<?xml version="1.0" encoding="utf-8"?>
<!-- Generator: Adobe Illustrator 22.0.1, SVG Export Plug-In . SVG Version: 6.00 Build 0)  -->
<svg version="1.1" id="Layer_1" xmlns="http://www.w3.org/2000/svg" xmlns:xlink="http://www.w3.org/1999/xlink" x="0px" y="0px"
	 width="1600px" height="900px" viewBox="0 0 1600 900" style="enable-background:new 0 0 1600 900;" xml:space="preserve">
<style type="text/css">
	.st0{fill:#E5BF23;stroke:#000000;stroke-miterlimit:10;}
	.st1{fill:url(#SVGID_1_);stroke:#000000;stroke-miterlimit:10;}
	.st2{fill:#686461;}
	.st3{fill:#7C7671;}
	.st4{fill:#545352;}
	.st5{fill:#3A3938;}
	.st6{fill:#4C4443;}
	.st7{fill:#3A3232;}
	.st8{fill:#563A2E;}
	.st9{fill:#492B16;}
	.st10{fill:#30190A;}
	.st11{fill:#C9C4C1;stroke:#000000;stroke-miterlimit:10;}
	.st12{fill:#2D190B;}
	.st13{fill:#3F3F3F;stroke:#000000;stroke-miterlimit:10;}
	.st14{fill:#77421B;}
	.st15{fill:#4F2A11;}
	.st16{fill:#E26E17;}
	.st17{fill:#CCAE1B;}
	.st18{fill:none;stroke:#30190A;stroke-miterlimit:10;}
	.st19{fill:#3F3F3F;}
	.st20{fill:#EDE4BC;}
	.st21{fill:#602315;}
	.st22{fill:#FFFFFF;stroke:#381810;stroke-miterlimit:10;}
	.st23{fill:#381810;}
	.st24{fill:#723322;}
	.st25{fill:#4C2306;}
	.st26{fill:#605553;}
	.st27{fill:#9E633B;}
	.st28{fill:#179926;}
	.st29{fill:#000200;}
	.st30{fill:#774D2F;}
	.st31{fill:#3A260A;}
	.st32{fill:#A5A5A5;stroke:#000000;stroke-miterlimit:10;}
	.st33{fill:none;stroke:#000000;stroke-miterlimit:10;}
	.st34{fill:#D8C623;stroke:#000000;stroke-miterlimit:10;}
	.st35{fill:#9E9C9A;}
	.st36{fill:#301B0C;}
	.st37{fill:#603A20;}
	.st38{fill:#996C44;}
	.st39{fill:#140B05;}
	.st40{fill:#604326;}
	.st41{fill:#CCB244;stroke:#000000;stroke-miterlimit:10;}
</style>
<rect x="0.5" y="450.5" class="st0" width="1599" height="450"/>
<linearGradient id="SVGID_1_" gradientUnits="userSpaceOnUse" x1="800.5" y1="899.5" x2="800.5" y2="323.5">
	<stop  offset="0" style="stop-color:#FF8215"/>
	<stop  offset="0.3716" style="stop-color:#FF7F52;stop-opacity:0.6284"/>
	<stop  offset="0.7983" style="stop-color:#FF7C93;stop-opacity:0.2017"/>
	<stop  offset="1" style="stop-color:#FF7BAC;stop-opacity:0"/>
</linearGradient>
<rect x="-1.5" y="323.5" class="st1" width="1604" height="576"/>
<path class="st2" d="M837,516.6l92.1-155.1l177.6-57.2c0,0,71.3-44.6,71.3-57.2s15.4-21.9,29.6-35.2s14.3-54,14.3-54
	s61.4-32.9,61.4-39.2s20.8,27.4,20.8,27.4l36.2,19.6l29.6,44.6l34,72.8c0,0,76.8,65.8,84.4,68.9c7.7,3.1,31.8,9.4,31.8,9.4
	l96.5,60.3l63.6,75.2l88.8,19.6l-145.8,34.5L837,516.6z"/>
<path class="st3" d="M965,529.9L729.2,228.3c0,0-22.6-55.6-33.9-37.6c-11.3,18-27.5,37.6-27.5,37.6h-22.6l-19.1-50.9l-21.9,13.3
	h-33.9l-31.1-25.8c0,0-4.9-11-15.5,0c-10.6,11-38.8,36-38.8,36l-38.1,58.7l-80.5-40.7l-14.8-18l-57.2-82.2v21.1l-38.8,37.6
	c0,0-6.4,0-11.3-6.3C239.3,164.9,216,150,216,150s-33.9,3.9-32.5,16.4c1.4,12.5-33.9,45.4-33.9,45.4l-8.5-30.5l-51.5,9.4
	c0,0,7.1,1.6,0,14.9c-7.1,13.3-26.1,22.7-26.1,22.7l-29.7,12L4.2,270.6l-5.6,10.2l-12,36c0,0-5.6,90.1,0,101
	c5.6,11,15.5,127.7,20.5,119c4.9-8.6,306.4,14.1,306.4,14.1L965,529.9z"/>
<path class="st2" d="M788,425l48-67l39-57c0,0,66-63,78-66s30-24,30-24l42,42l60,36l51,36c0,0,54,30,63,33s0,105,0,105
	s-103-12-146,0s-151.1,56.8-151.1,56.8S881,526,860,529S788,425,788,425z"/>
<g>
	<path class="st4" d="M692.8,498c0,0-62.6-185.6-82.5-198.1s-16.7-5.7-29.4-18.8c-12.7-13.2,1-20.6-17.3-26.9
		c-18.3-6.3-76.8-30.3-76.8-30.3l-39.4-40.2l-21.6-24.2l-29.6,26.4l-27.4,11.3l-2.8,12.3l-20.6,29.9c0,0-23.8,29.2-23.8,27.8
		c0-1.4-28.7,14.7-28.7,14.7l-182,219.8L692.8,498z"/>
	<path class="st5" d="M1573.3,160.6c0,0-111.8,15.8-127.6,26.5c-15.9,10.7-59.1,35.9-59.1,35.9s-5.4,37.9-9.2,47s-47,59.7-65.8,49.7
		c-18.8-10-96-63.1-114.5-68.7c-18.5-5.6-83.5,58.7-83.5,58.7s-44.6,51.9-113.5,60.3s-69.7,25.7-70.2,44.2s0.5,62.9,14.6,59.6
		c14.1-3.2,287.2-3.5,350.3,3.6c63,7,167.5,17.7,167.5,17.7s130,13.3,136.2-0.9c6.2-14.2,41.3-168.1,31.3-181.9
		C1619.8,298.4,1573.3,160.6,1573.3,160.6z"/>
	<path class="st6" d="M-35.6,228.7c0,0,116.5,4.4,145.6,24.4s44.5,77,55.8,67.4s104.4,12.6,104.4,12.6s21,19.2,21,34.8
		c0,15.5,122.2,56.3,123,56.3s63.9,40.7,63.9,40.7l12.9,21.5c0,0-56.6-6.7-74.4,0c-17.8,6.7-132.7,0-132.7,0l-164.2,3l-87.4,12.6
		L-55,490.7L-35.6,228.7z"/>
	<path class="st7" d="M771.9,487.7c0,0,68.4-137.9,89.2-147.1c20.8-9.2,17.4-4.1,30.8-13.8c13.4-9.7-0.7-15.4,18.4-19.9
		c19.1-4.6,80.1-21.9,80.1-21.9l41.6-29.6l22.8-17.9l30.2,19.9l28.2,8.7l2.7,9.2l20.8,22.5c0,0,24.1,22,24.1,20.9
		s29.5,11.2,29.5,11.2l184.4,165.5L771.9,487.7z"/>
	<path class="st6" d="M368.1,472.7l72.8-53l72.8-81.2l32.4-56.5l51.8,38.8c0,0,48.5,24.7,64.7,24.7c16.2,0,38.8-3.5,48.5-17.7
		c9.7-14.1-1.6-56.5,20.2-45.9c21.8,10.6,79.3-1.8,79.3-1.8l29.9,54.7v41.5l110,78.6l17.8,17.7l14.6,49.4c0,0-307.5-38.8-372.2-42.4
		s-200.7,42.4-200.7,42.4L368.1,472.7z"/>
	<path class="st8" d="M-2.4,563.6c0,0-8-66.6,3.1-70.9c11.1-4.2,26.7-29.6,26.7-29.6S37.2,447,43.6,426s2.8-63.8,2.8-63.8l4.4-44.8
		c0,0,5.8-21,24.9-1.3c19.1,19.8,14.8,33.8,6.5,59.5s3.3,62.5,3.3,62.5l22.9,1l1.3-29.1l2.4-54.3c0,0,3.4,4.9,23.7-1.3
		c20.2-6.2,32.5,3.8,38.8-14.9c6.3-18.7,14.8-6.4,25.5-1.2c10.7,5.2,6.9,35.8,6.9,35.8l-26.7,29.6c0,0-24.6-5.8-28.5,1.1
		c-3.9,6.9,0.2,36.3,0.2,36.3l26.6,1.2c0,0,21.9-16.4,26.1-16.2s9.2,9.9,20.9-8.5c11.7-18.4,31-43.6,22.3-53.5
		c-8.6-9.8-38-15.9,3.1-16.4s40.1-17.2,41.2-0.6c1.1,16.6-21.2,70.1-4,89.8s31.6,25.1,31.6,25.1l24.9,10.6c0,0-8,16.2-1,23.6
		c6.9,7.4-1.2,28.3-1.2,28.3s6.8,24,1.7,30.8S-2.4,563.6-2.4,563.6z"/>
	<path class="st8" d="M1603.5,554.6c0,0,26.9-55.3-2.6-57.9c-29.5-2.6-69.5-22.1-69.5-22.1s-25-12.4-40.5-29.2s-2.3-52.1-2.3-52.1
		l-8.1-36.4c0,0-13.8-16.8-66.9,1c-53.1,17.8-42.8,29-22.3,49.3s-14.1,51.5-14.1,51.5l-61.9,2.7l-1-23.8l-2-44.4
		c0,0-9.6,4.3-63.6,0.9c-54-3.4-87.9,5.8-103.2-9c-15.3-14.8-39.4-4.1-68.5,1.1c-29.2,5.2-21.5,30-21.5,30l69.5,22.1
		c0,0,66.6-6.8,76.7-1.4c10,5.4-3.6,29.8-3.6,29.8l-71.7,3.2c0,0-57.6-11.6-69-11.1s-25.7,8.9-55.7-5.3s-79.8-33.2-55.7-42
		c24.1-8.8,103.8-16.2-7.1-13.2s-106.6-10.8-110.9,3c-4.3,13.7,51.4,55.7,3.2,73.3C783,492.1,744,497.7,744,497.7L676,508.4
		c0,0,20.1,12.6,0.9,19.3c-19.3,6.7,1,23.2,1,23.2s-20.3,20.2-7,25.4C684.1,581.6,1603.5,554.6,1603.5,554.6z"/>
	<path class="st8" d="M110.9,533.7v-30.4l62.4-33.2h38.3l46.6,12.9l0-44.6l24.5-34.5h54.5l35.5,10.8l41.8-10.8l-19.1-34.5l19.1-42.6
		c0,0,34.5,0,42.7,0c8.2,0,46.4,0,46.4,0L487.2,349c0,0-30,14.2-27.3,20.3c2.7,6.1,13.6,16.9,13.6,16.9h30c0,0,5.5,0.7,13.6,0
		s24.5,0,24.5,0l37.3-29.3l47.2,0.3c2.7,10.1,0,32.2,0,32.2l32.7-3.1L675,349l5.9-8.1v-33.2l60,0h13.6v18.9c0,0-13.6,23.7-13.6,29.1
		s13.6,30.4,13.6,30.4h40.9v-10.8l47.3-56.8c15.5,8.1,56.4,22.3,56.4,22.3v30.4c0,0-2.7,20.3,0,28.4s-5.5,15.6,0,21
		c5.5,5.4-0.2,11.2,16.2,23.6c16.5,12.3,0.1,12.4,24.7,12.3c24.5,0,48.9-4.4,57.2-12.3c8.3-8,16.5-48.6,16.5-48.6l13.6-9.5
		c0,0,36.4-14.9,48.2-16.9c11.8-2,6.4-18.3,11.8-2c5.5,16.2-3.6,58,0,69.9c3.6,11.9-2.7,92.4-68.2,96.5
		c-65.5,4.1-433.6,46.7-433.6,46.7L110.9,533.7z"/>
</g>
<g>
	<path class="st9" d="M705.1,376.9c0,0,7.6,27.7,6.1,59.1c-1.5,31.4,10.7,83.1,10.7,92.3s6.1,55.4,6.1,62.8c0,7.4,168-14.8,168-14.8
		s-6.9-82.2-0.8-121c6.1-38.8,10.7-85,6.1-92.3c-4.6-7.4-198.5-3.7-197,5.5c1.5,9.2,0,9.2,0,9.2L705.1,376.9z"/>
	<path class="st10" d="M766.2,434.1c0,0,7.6,145.9,7.6,149.6c0,3.7,15.3,0,15.3,0s-12.2-145.9-7.6-149.6
		C786.1,430.4,766.2,434.1,766.2,434.1z"/>
	<path class="st10" d="M845.6,430.4c0,0,7.6,145.9,7.6,149.6c0,3.7,15.3,0,15.3,0s-12.2-145.9-7.6-149.6
		C865.5,426.7,845.6,430.4,845.6,430.4z"/>
	<path class="st11" d="M727.3,410.1c-4.9,28.4-3.6,47.1-3.6,47.1l8.6,57.1l10.7,64.1c0,0,13.6-2.9,15.2-1.8s-4.8-118.1-5-125.4
		c-0.2-7.2-10-50.9-15.7-50.2C731.8,401.7,728.5,403.3,727.3,410.1z"/>
	<line class="st11" x1="733.7" y1="401.5" x2="733.4" y2="401.5"/>
	<line class="st11" x1="751" y1="577.4" x2="733.4" y2="401.5"/>
	<line class="st11" x1="745.7" y1="522.4" x2="755.9" y2="501.7"/>
	<line class="st11" x1="739.4" y1="460.1" x2="749.1" y2="428.7"/>
	<line class="st11" x1="742" y1="487.7" x2="724.9" y2="429.2"/>
	<line class="st11" x1="746.7" y1="534.4" x2="729" y2="492.9"/>
	<path class="st11" d="M869.3,394c-6.6,27.9-6.9,46.7-6.9,46.7l3.5,58.2l4.9,65.5c0,0,12.7-1.2,14.1,0c1.4,1.2,4.6-118.8,4.9-126.1
		s-5.3-52.1-10.6-52.1S870.9,387.3,869.3,394z"/>
	<line class="st11" x1="875.8" y1="386.1" x2="875.4" y2="386.1"/>
	<line class="st11" x1="878.3" y1="564.3" x2="875.4" y2="386.1"/>
	<line class="st11" x1="877.5" y1="508.6" x2="888.5" y2="489.2"/>
	<line class="st11" x1="876.5" y1="445.5" x2="887.8" y2="415.2"/>
	<line class="st11" x1="876.8" y1="473.4" x2="865.6" y2="412.8"/>
	<line class="st11" x1="877.5" y1="520.7" x2="864.5" y2="477"/>
	<path class="st12" d="M794.5,384.3c0,0-42.8,36.9-50.4,53.6c0,0,119.1,0,134.4,0c15.3,0-38.2-55.4-44.3-53.6
		C828,386.1,794.5,384.3,794.5,384.3z"/>
	<path class="st13" d="M794.3,455.4c6.3-1.2,15.5-4.1,24.1-7.1c12-4.2,22.8-8.6,22.8-8.6l1.3,130.5l-48.2,17.2V455.4z"/>
	<line class="st13" x1="815.3" y1="449" x2="814" y2="581"/>
	<line class="st13" x1="815.3" y1="497.8" x2="841.9" y2="487.7"/>
	<line class="st13" x1="795" y1="494.9" x2="815.3" y2="497.8"/>
	<line class="st13" x1="793.7" y1="537.9" x2="814" y2="540.8"/>
	<line class="st13" x1="814" y1="542.2" x2="841.9" y2="530.8"/>
	<line class="st13" x1="793.7" y1="536.5" x2="814" y2="542.2"/>
	<ellipse class="st14" cx="825.4" cy="516.4" rx="3.2" ry="3.6"/>
	<path class="st15" d="M705.9,586.5c0,0,200-25.9,210.7-18.5c0,0,4.6,27.7,0,29.5s-200,12.9-204.6,16.6
		C707.4,617.9,698.2,586.5,705.9,586.5z"/>
	<polygon class="st14" points="765.9,592.5 766.2,609.7 865.5,599.6 865.2,583.9 	"/>
	<path class="st10" d="M740.7,608.6c0,0,136.7-11.1,141.1-9.2s0,14.8,0,14.8l-141.1,5.5C740.7,619.7,736.3,608.6,740.7,608.6z"/>
	<path class="st14" d="M725,634.5v-14.8c0,0,3.8-0.3,10.4-0.7c35.8-2.4,152.4-10.1,162.8-8.5c0,0,2,5.5,0,11.1
		C896.1,627.1,731.1,630.8,725,634.5z"/>
	<path class="st10" d="M780.4,161.7c6.2,22.9,24.7,81.6,15.7,36.1c-9-45.5-18.6-68.7-17.5-51.2"/>
	<path class="st10" d="M827.6,158.7c-5.8,23-18.6,83.9-4.3,40.5c14.3-43.5,17.4-69.1,10-54.1"/>
	<path class="st16" d="M802.8,173.7c-1.5,5.5,7.6,14.8,7.6,1.8S802.8,173.7,802.8,173.7z"/>
	<path class="st17" d="M808.9,149.8c0,0-2-3.8-6.9-0.8c-0.8,3.8,0.4,11.5-0.4,13.8c-2.4,1.5-3.2,3.8-3.6,6.1
		c-0.4,2.3-0.8,7.7-0.8,7.7s16.2,1.5,17.4,0c1.2-1.5,0-11.5-2-13.1c-2-1.5-3.6,1.5-3.6-6.1S809.7,150.6,808.9,149.8z"/>
	<path class="st15" d="M791.1,191.4c0,0,28.7-10.1,35.8,0c2,40.5-4.1,35.5-6.1,35.5c-2,0-30.7-5.1-32.7,0
		C785.9,231.9,783.9,191.4,791.1,191.4z"/>
	<path class="st13" d="M699,360.3c-1.5-1.8-7.6-12.9-7.6-12.9l87-109l30.5-27.7l102.3,125.6l4.6,27.7l-106.8-8.2l-89.6,5L699,360.3z
		"/>
	<path class="st15" d="M689.9,358.4c0,0,1.5,12.9,0,20.3c-1.5,7.4,29-18.5,114.5-11.1c85.5,7.4,108.4,5.5,114.5,12.9
		c6.1,7.4,9.2-33.2,3.1-31.4c-6.1,1.8-143.5,3.7-171,0C723.4,345.5,689.9,347.3,689.9,358.4z"/>
	<path class="st10" d="M670,358.4c0,0,1.5,11.1,13.7,5.5s73.3-96,97.7-120c24.4-24,19.9-27.7,29-20.3
		c9.2,7.4,93.1,125.6,103.8,134.8s27.5,36.9,22.9,18.5c-1.4-5.5-8.9-24.8-24.4-46.2c-36.4-50-99.1-121.1-102.3-123.7
		c-4.6-3.7-44.3,33.2-80.9,85C712.8,312.2,697.5,343.6,670,358.4z"/>
	<path class="st11" d="M859.3,326.1c0,21.7-110.5,21.7-110.5,0s24.7-39.2,55.2-39.2S859.3,304.5,859.3,326.1z"/>
	<line class="st18" x1="804.1" y1="342.7" x2="801.4" y2="286.4"/>
	<line class="st18" x1="810.5" y1="342.7" x2="846.1" y2="300.7"/>
	<line class="st18" x1="794.1" y1="341.6" x2="769.4" y2="295.2"/>
	<path class="st18" d="M767.5,338.7c0,0,52.2-76.3,66.3,1.4"/>
	<path class="st19" d="M776.4,155.5c22.4,0,63.3,3.7,64.6,0s-23.7-92.6-34.3-75.9C796.2,96.2,763.2,155.5,776.4,155.5z"/>
	<path class="st11" d="M792,149.6c20.5-6.5,34.7,4.8,28.6-17s-12.2-43.5-19.7-17.4C793.4,141.3,788.6,150.7,792,149.6z"/>
	<line class="st18" x1="804.5" y1="147.7" x2="811.4" y2="106"/>
	<line class="st18" x1="808.6" y1="122.7" x2="798.6" y2="120"/>
	<line class="st18" x1="807.2" y1="131" x2="822.7" y2="139.9"/>
	<line class="st18" x1="807" y1="137" x2="793.4" y2="141.3"/>
	<path class="st20" d="M803.6,23.3c-5.1,0-10.2,1.5-10.8,3.8c-0.6,2.3-4.5,6.2,0,6.2s8.3-3.8,12.7-1.5c0,6.2,0.6,16.9,0,23.8
		c-0.6,6.9-0.6,10.8,0,15.4c0.6,4.6,6.4,2.3,6.4-3.1s-0.6-30.8,0-33.1c0.6-2.3-1.9-3.8,2.5-3.1c4.5,0.8,9.5,3.1,10.8,0.8
		c1.3-2.3,3.2-10-3.8-9.2c-7,0.8-9.5,3.8-10.2,0s1.3-20.8-1.9-19.2c-3.2,1.5-5.1,2.3-5.1,9.2S805.5,23.3,803.6,23.3z"/>
	<path class="st10" d="M766.2,146c-6.1,20.3-1.5,27.7,9.2,5.5s32.1-81.3,33.6-70.2c1.5,11.1,33.6,81.3,39.7,83.1
		s-10.7-40.6-15.3-53.6C828.8,98,818.1,72.2,809,66.6s-29,55.4-35.1,64.6C767.7,140.5,766.2,146,766.2,146z"/>
</g>
<g>
	<path class="st10" d="M551.5,428.9"/>
	<path class="st14" d="M114.2,525.5l2.6,73.2c0,0,427.1,3,439.9,4.2c12.9,1.2,4.2-74.9,10.3-78.9S119.3,521.8,114.2,525.5z"/>
	<path class="st21" d="M249.9,523.6c0,0-1.6,20,1.5,34.7c3.1,14.7,3.3,19.9,0.9,24.3c-2.4,4.5-1.5,10.5,0.9,14.4s28,3.5,28,3.5
		s-0.9-73.1,1.3-77.5s-5.8-11.7-17.2-7.8c-11.4,3.9-16.3,11.4-16.3,11.4"/>
	<path class="st21" d="M414,524.3c0,0-1.6,20,1.5,34.7c3.1,14.7,3.3,19.9,0.9,24.3s-1.5,10.5,0.9,14.4c2.3,4,28,3.5,28,3.5
		s-0.9-73.1,1.3-77.5s-5.8-11.7-17.2-7.8c-11.4,3.9-16.3,11.4-16.3,11.4"/>
	<path class="st13" d="M290.4,556.8l0.9,26.2l50.3-0.9c0,0-3.8-6.8-0.5-14.5c3.3-7.7-1.3-37.3-1.3-37.3s-39.8-6.2-32.7,25.4
		L290.4,556.8z"/>
	<path class="st13" d="M401.9,554.8l0.9,26.2l-50.3,0.9c0,0,3.4-7-0.5-14.5c-3.9-7.5-1.3-37.3-1.3-37.3s39.3-7.6,34.4,24.2
		L401.9,554.8z"/>
	<path class="st22" d="M134.4,535.7c0.1,3.7,0.4,10.3,0.4,12.5c0.1,2.2,23.1-0.4,28.3,1c5.2,1.4,3.4-14.1-0.5-14
		C158.8,535.3,134.4,535.7,134.4,535.7z"/>
	<path class="st22" d="M183.3,575.4c0.1,3.7,0.4,10.3,0.4,12.5c0.1,2.2,23.1-0.4,28.3,1s3.4-14.1-0.5-14
		C207.7,575,183.3,575.4,183.3,575.4z"/>
	<path class="st22" d="M138.9,554.1c0,0,1.7,11,0.5,13.3s21.8-1.1,23.1-0.4c1.3,0.7-3-11.8-0.5-13.3
		C164.5,552.1,141.5,552.6,138.9,554.1z"/>
	<path class="st22" d="M178,534.9c0,0,0.3,9.6,0.4,12.5c0.1,3,16.6-2.5,35.8-2.9c0,0,4.8-8.9-0.4-10.3
		C208.7,532.9,178,534.9,178,534.9z"/>
	<path class="st22" d="M182.5,554c0,0,1.7,11.8,0.5,13.3c-1.2,1.5,23-1.9,28.1-2c5.1-0.1,2.1-11.8-0.4-11.8
		C208.2,553.5,182.5,554,182.5,554z"/>
	<path class="st22" d="M135.8,574.1c0,0,1.7,11.8,0.5,13.3s23-1.9,28.1-2c5.1-0.1,2.1-11.8-0.4-11.8
		C161.4,573.6,135.8,574.1,135.8,574.1z"/>
	<path class="st22" d="M464.1,534.8c0.1,3.7,0.4,10.3,0.4,12.5c0.1,2.2,23.1-0.4,28.3,1c5.2,1.4,3.4-14.1-0.5-14
		C488.4,534.4,464.1,534.8,464.1,534.8z"/>
	<path class="st22" d="M512.9,574.5c0.1,3.7,0.4,10.3,0.4,12.5s23.1-0.4,28.3,1s3.4-14.1-0.5-14S512.9,574.5,512.9,574.5z"/>
	<path class="st22" d="M468.6,553.2c0,0,1.7,11,0.5,13.3s21.8-1.1,23.1-0.4c1.3,0.7-3-11.8-0.5-13.3
		C494.2,551.2,471.1,551.7,468.6,553.2z"/>
	<path class="st22" d="M507.7,534c0,0,0.3,9.6,0.4,12.5c0.1,3,16.6-2.5,35.8-2.9c0,0,4.8-8.9-0.4-10.3
		C538.4,532,507.7,534,507.7,534z"/>
	<path class="st22" d="M512.2,553.1c0,0,1.7,11.8,0.5,13.3c-1.2,1.5,23-1.9,28.1-2s2.1-11.8-0.4-11.8S512.2,553.1,512.2,553.1z"/>
	<path class="st22" d="M465.4,573.2c0,0,1.7,11.8,0.5,13.3s23-1.9,28.1-2c5.1-0.1,2.1-11.8-0.4-11.8
		C491.1,572.7,465.4,573.2,465.4,573.2z"/>
	<path class="st23" d="M72.8,624.3c0,0,122.8-8.9,148.5-7.9s137.2-0.3,162.9,0.7c25.7,1,196.2-0.6,209.1,0.6
		c12.9,1.2,55.2,1.9,61.6,1.8c6.4-0.1,0.6-18.5,1.8-22.9c1.1-4.4-14.1,0.3-29.5,0.5c-15.4,0.3-148.7,1.2-165.4,0.8
		c-16.7-0.4-123.2-0.7-143.7-1.8s-115.3,2.8-138.4,2.5s-109-0.2-112.8,1.3s-11.9,27.5-2.9,25.9S72.8,624.3,72.8,624.3z"/>
	<path class="st14" d="M177.8,438.6c0,0-1.1,77.5,2.8,78.2c3.9,0.7,365.3-5.9,373.1-3.9c7.8,2.1-10.1-68.5,3.8-75.4
		s-66.7-0.3-66.7-0.3s-324.6-4.4-322-1.5S177.8,438.6,177.8,438.6z"/>
	<path class="st22" d="M194.3,451.3c0.1,2.6,0.3,7.2,0.3,8.8s16.2-0.3,19.8,0.7c3.6,1,2.4-9.9-0.3-9.8S194.3,451.3,194.3,451.3z"/>
	<path class="st22" d="M228.6,479.1c0.1,2.6,0.3,7.2,0.3,8.8c0.1,1.6,16.2-0.3,19.8,0.7s2.4-9.9-0.3-9.8
		C245.7,478.8,228.6,479.1,228.6,479.1z"/>
	<path class="st22" d="M197.5,464.2c0,0,1.2,7.7,0.3,9.3c-0.8,1.6,15.3-0.8,16.2-0.3c0.9,0.5-2.1-8.2-0.3-9.3
		C215.5,462.8,199.3,463.1,197.5,464.2z"/>
	<path class="st22" d="M224.9,450.7c0,0,0.2,6.7,0.3,8.8c0.1,2.1,11.6-1.8,25.1-2c0,0,3.4-6.3-0.3-7.2
		C246.5,449.3,224.9,450.7,224.9,450.7z"/>
	<path class="st22" d="M228.1,464.1c0,0,1.2,8.3,0.3,9.3c-0.9,1.1,16.2-1.3,19.7-1.4c3.6-0.1,1.5-8.3-0.3-8.3
		C246.1,463.8,228.1,464.1,228.1,464.1z"/>
	<path class="st22" d="M195.3,478.2c0,0,1.2,8.3,0.3,9.3c-0.9,1.1,16.2-1.3,19.7-1.4c3.6-0.1,1.5-8.3-0.3-8.3
		C213.3,477.9,195.3,478.2,195.3,478.2z"/>
	<path class="st22" d="M284.2,452.6c0.1,2.6,0.3,7.2,0.3,8.8c0.1,1.6,16.2-0.3,19.8,0.7s2.4-9.9-0.3-9.8
		C301.3,452.3,284.2,452.6,284.2,452.6z"/>
	<path class="st22" d="M318.5,480.5c0.1,2.6,0.3,7.2,0.3,8.8c0.1,1.6,16.2-0.3,19.8,0.7s2.4-9.9-0.3-9.8
		C335.5,480.1,318.5,480.5,318.5,480.5z"/>
	<path class="st22" d="M287.3,465.5c0,0,1.2,7.7,0.3,9.3c-0.8,1.6,15.3-0.8,16.2-0.3c0.9,0.5-2.1-8.2-0.3-9.3
		C305.3,464.1,289.1,464.4,287.3,465.5z"/>
	<path class="st22" d="M314.7,452c0,0,0.2,6.7,0.3,8.8c0.1,2.1,11.6-1.8,25.1-2c0,0,3.4-6.3-0.3-7.2S314.7,452,314.7,452z"/>
	<path class="st22" d="M317.9,465.4c0,0,1.2,8.3,0.3,9.3c-0.9,1.1,16.2-1.3,19.7-1.4c3.6-0.1,1.5-8.3-0.3-8.3
		C335.9,465.1,317.9,465.4,317.9,465.4z"/>
	<path class="st22" d="M285.1,479.5c0,0,1.2,8.3,0.3,9.3s16.2-1.3,19.7-1.4c3.6-0.1,1.5-8.3-0.3-8.3
		C303.1,479.2,285.1,479.5,285.1,479.5z"/>
	<path class="st22" d="M373.9,451.7c0.1,2.6,0.3,7.2,0.3,8.8c0.1,1.6,16.2-0.3,19.8,0.7s2.4-9.9-0.3-9.8
		C391,451.4,373.9,451.7,373.9,451.7z"/>
	<path class="st22" d="M408.2,479.6c0.1,2.6,0.3,7.2,0.3,8.8c0.1,1.6,16.2-0.3,19.8,0.7c3.6,1,2.4-9.9-0.3-9.8
		C425.3,479.2,408.2,479.6,408.2,479.6z"/>
	<path class="st22" d="M377.1,464.6c0,0,1.2,7.7,0.3,9.3c-0.8,1.6,15.3-0.8,16.2-0.3c0.9,0.5-2.1-8.2-0.3-9.3
		C395,463.2,378.8,463.5,377.1,464.6z"/>
	<path class="st22" d="M404.5,451.1c0,0,0.2,6.7,0.3,8.8c0.1,2.1,11.6-1.8,25.1-2c0,0,3.4-6.3-0.3-7.2S404.5,451.1,404.5,451.1z"/>
	<path class="st22" d="M407.7,464.5c0,0,1.2,8.3,0.3,9.3s16.2-1.3,19.7-1.4c3.6-0.1,1.5-8.3-0.3-8.3
		C425.7,464.2,407.7,464.5,407.7,464.5z"/>
	<path class="st22" d="M374.9,478.6c0,0,1.2,8.3,0.3,9.3s16.2-1.3,19.7-1.4s1.5-8.3-0.3-8.3S374.9,478.6,374.9,478.6z"/>
	<path class="st22" d="M463.7,450.8c0.1,2.6,0.3,7.2,0.3,8.8c0.1,1.6,16.2-0.3,19.8,0.7s2.4-9.9-0.3-9.8
		C480.8,450.5,463.7,450.8,463.7,450.8z"/>
	<path class="st22" d="M497.9,478.7c0.1,2.6,0.3,7.2,0.3,8.8c0.1,1.6,16.2-0.3,19.8,0.7c3.6,1,2.4-9.9-0.3-9.8
		S497.9,478.7,497.9,478.7z"/>
	<path class="st22" d="M466.8,463.7c0,0,1.2,7.7,0.3,9.3c-0.8,1.6,15.3-0.8,16.2-0.3c0.9,0.5-2.1-8.2-0.3-9.3
		C484.8,462.3,468.6,462.6,466.8,463.7z"/>
	<path class="st22" d="M494.2,450.2c0,0,0.2,6.7,0.3,8.8c0.1,2.1,11.6-1.8,25.1-2c0,0,3.4-6.3-0.3-7.2
		C515.8,448.8,494.2,450.2,494.2,450.2z"/>
	<path class="st22" d="M497.4,463.6c0,0,1.2,8.3,0.3,9.3c-0.9,1.1,16.2-1.3,19.7-1.4c3.6-0.1,1.5-8.3-0.3-8.3
		C515.4,463.3,497.4,463.6,497.4,463.6z"/>
	<path class="st22" d="M464.6,477.7c0,0,1.2,8.3,0.3,9.3c-0.9,1.1,16.2-1.3,19.7-1.4c3.6-0.1,1.5-8.3-0.3-8.3
		C482.6,477.4,464.6,477.7,464.6,477.7z"/>
	<path class="st21" d="M123.3,475.4c0,0,1.7,21.4,0.9,26.6c-0.8,5.2,13,3.5,13,3.5l-1.1-30.2L123.3,475.4z"/>
	<path class="st21" d="M147.7,474.9c0,0,1.7,21.4,0.9,26.6c-0.8,5.2,13,3.5,13,3.5l-1.1-30.2L147.7,474.9z"/>
	<path class="st21" d="M182.4,476.5c0,0,1.7,21.4,0.9,26.6c-0.8,5.2,13,3.5,13,3.5l-1.1-30.2L182.4,476.5z"/>
	<path class="st21" d="M218.3,475.9c0,0,1.7,21.4,0.9,26.6c-0.8,5.2,13,3.5,13,3.5l-1.1-30.2L218.3,475.9z"/>
	<path class="st21" d="M251.6,475.3c0,0,1.7,21.4,0.9,26.6c-0.8,5.2,13,3.5,13,3.5l-1.1-30.2L251.6,475.3z"/>
	<path class="st21" d="M297.7,474.4c0,0,1.7,21.4,0.9,26.6c-0.8,5.2,13,3.5,13,3.5l-1.1-30.2L297.7,474.4z"/>
	<path class="st21" d="M356.7,473.3c0,0,1.7,21.4,0.9,26.6c-0.8,5.2,13,3.5,13,3.5l-1.1-30.2L356.7,473.3z"/>
	<path class="st21" d="M422.1,474.4c0,0,1.7,21.4,0.9,26.6s13,3.5,13,3.5l-1.1-30.2L422.1,474.4z"/>
	<path class="st21" d="M465.8,476.5c0,0,1.7,21.4,0.9,26.6c-0.8,5.2,13,3.5,13,3.5l-1.1-30.2L465.8,476.5z"/>
	<path class="st21" d="M522.2,475.5c0,0,1.7,21.4,0.9,26.6c-0.8,5.2,13,3.5,13,3.5l-1.1-30.2L522.2,475.5z"/>
	<path class="st23" d="M96.2,470.7c0,0,1.3,0.7,0.2,5.2c-1.1,4.4,120.6,2.2,151.4,2.4s96.2-1,123-2.2c26.9-1.2,87.2,0.6,101.4,1.8
		c14.2,1.2,46.1-1.6,69.2-1.3s25.8,4,28.2,0.2s-2.6-1.4,3.6-6.7s-25.8-4.7-29.6-3.9c-3.8,0.8-123,3-135.9,2.5s-75.6,1.4-91,1.7
		c-15.4,0.3-52.5,1.7-71.8,2s-39.7,0.7-60.3-0.4c-20.6-1.1-29.6-1.7-41.1-2.2C132.1,469.3,101.3,468.4,96.2,470.7z"/>
	<path class="st23" d="M84,504.5c0,0,7.2,21.3,5.9,22.8s44.8-3.8,70.5-2s108.9-2,130.8-1.6c21.8,0.3,94.8-1.7,120.6,0.8
		c25.7,2.5,70.5,0.2,84.6-1.5c14-1.7,44.9,1.4,57.8,1.9c12.8,0.5,47.5,2.1,52.6-1s5.7-19.3-0.7-20.7s-52.5,1.7-64.1,1.2
		c-11.6-0.5-76.9,1.4-88.5,0.1s-52.7-2.7-68-1.7s-25.7-0.3-46.2-1.4c-15.8-0.8-69.3-0.2-83.4,0c-4.6,0.1-34.5,2.8-58.9,1.8
		S90.3,501.4,84,504.5z"/>
	<path class="st23" d="M134.9,422.4c0,0,439.7-5.1,442.5,0.8s9.6,17.5,0.7,18.4s-449.9,9-448.8,3.8S123.4,422.6,134.9,422.4z"/>
	<path class="st24" d="M113.9,406.5c0,0-2.6-0.7-2.1,11.8c0,0-3.7,3,2.7,4.4s18.4-0.3,25.9-0.4c7.5-0.2,441,0.8,460.2-0.3
		c6.3-4.5,2.2-9.6-0.4-11.8c-2.6-2.2-75.9-6.7-90-5S347.3,406,328,404.8c-19.3-1.1-120.6-1.5-147.5,0.5c-26.9,2-62.9-0.3-59,0.3
		C125.4,406.3,113.9,406.5,113.9,406.5z"/>
	<path class="st25" d="M155.6,373.2c0,0,22.4-14.6,60.5-14.2c38.1,0.3,50.3-0.3,66.6,0.6c16.3,0.9-10.5-51.4,100.6-43.8
		c111.2,7.6,90.6,41.4,91.6,48.8s60.1-6.1,69.1,5s24.1,37.9,7.6,41.4c-16.5,3.5-220-7.1-270.4-6.1c-50.4,1-129.8,12.9-135.9-2.7
		C139.4,386.7,143.9,377.9,155.6,373.2z"/>
	<path class="st26" d="M158.1,392.8c0,0-10.2-14.1,25.5-22.7c35.8-8.5,68.2-5.3,84.6-5.2s32.7-0.5,35.7-7.8
		c3.1-7.4,2.4-22.9,12.1-27.2c9.7-4.3,137.2-25.4,146.8,30.8c0,0-10.1,11.7,10.3,11.9c20.4,0.2,54.7-6.9,58.5-0.2
		c3.8,6.7,22,24.6,6.9,27.4s-127.9,1.1-176.7-1.6s-80.1-2.2-125.2,1.1C191.7,402.7,154.8,406.8,158.1,392.8z"/>
	<g>
		<g>
			<path class="st26" d="M237.1,375c-2.3-9.9-19.9-6.9-26.6-6c-1.9,0.3-1.1,3.1,0.8,2.9c3.9-0.5,7.8-1.1,11.8-0.9
				c3.3,0.2,10.2,0.7,11.1,4.8C234.6,377.7,237.5,376.9,237.1,375L237.1,375z"/>
		</g>
	</g>
	<g>
		<g>
			<path d="M210.7,376.5c-1.8-6-7.6-8.9-13.7-7.9c-4.1,0.7-10.3,4.1-7.7,9.1c3.8,7.3,14.5,4.8,20.8,5.5c0.9,0,1.8,0.1,2.6,0.5
				c1.5,0.1,1.5,0.6,0.2,1.4c-1,1.2-1.9,1.2-3.3,1.5c-2.8,0.6-5.7,1-8.6,1.3c-5.3,0.6-10.5,0.6-15.6-0.9c0.1,0.9,0.2,1.8,0.4,2.7
				c4.1-2.8,8.5-4.3,13.4-5.3c1.9-0.4,1.1-3.3-0.8-2.9c-5.1,1-9.8,2.6-14.1,5.6c-1,0.7-0.9,2.4,0.4,2.7c4.5,1.3,35.3,3.2,33-5.9
				c-1.3-5.2-11-3.7-14.4-3.7c-2.5,0-16.8-2.8-9.3-7.4c4.9-3,12.1-1.2,13.9,4.5C208.3,379.1,211.2,378.4,210.7,376.5L210.7,376.5z"
				/>
		</g>
	</g>
	<g>
		<g>
			<path d="M239.8,380.2c-5-3.4-14,2.3-7.5,6.7c2.6,1.7,8,2.8,10.7,0.8c3.2-2.3,1-5.4-1.3-7.3c-0.6,0.8-1.2,1.6-1.8,2.4
				c3.3,1.8,11.4,7,14.6,3.3c0.5-0.5,0.5-1.2,0.2-1.8c-0.1-0.2-0.2-0.3-0.2-0.5c-0.8-1.7-3.4-0.2-2.6,1.5c0.1,0.2,0.2,0.3,0.2,0.5
				c0.1-0.6,0.2-1.2,0.2-1.8c-1.5,1.7-9.5-2.9-11-3.8c-1.4-0.8-3.2,1.2-1.8,2.4c2.9,2.4-1.9,3.9-4,2.6c-5.5-3.4,0.8-3.6,2.6-2.3
				C239.9,383.8,241.4,381.2,239.8,380.2L239.8,380.2z"/>
		</g>
	</g>
	<g>
		<g>
			<path d="M268.2,371.9c1.8,2.2-1.6,6,0.8,8.7c2.1,2.4,6.4,3,9.4,3.3c4.2,0.6,19.3,1.6,17.2-6.6c-0.5-1.9-3.4-1.1-2.9,0.8
				c1.3,4.9-17,2.9-19.1,1.7c-4-2.3-0.5-6.8-3.2-10C269.1,368.3,267,370.5,268.2,371.9L268.2,371.9z"/>
		</g>
	</g>
	<g>
		<g>
			<path d="M314.5,368.4c-3.9,0.1-10.1,0.5-11.9,4.6c-1.7,3.8,2,6.6,5.3,7.4c3.6,0.8,8.7,0.5,11.4-2.4c1.1-1.2,1.6-2.8,1.2-4.4
				c-0.2-0.9-0.7-1.6-1.3-2.3c-0.5-0.5-1.9-1-2.2-1.6c0,0.5,0,1,0,1.5c-0.3,0-0.7,0-1,0.1c1.4,1.3,3.6-0.8,2.1-2.1
				c-1.4-1.2-4.3-0.5-3.9,1.7c0.3,1.4,1.8,1.6,2.6,2.4c1.7,1.6,0.2,3.1-1.5,3.8c-2.5,1-7.6,1.4-9.5-1c-3.1-3.8,7-4.7,8.7-4.7
				C316.5,371.3,316.5,368.3,314.5,368.4L314.5,368.4z"/>
		</g>
	</g>
	<g>
		<g>
			<path d="M337,367.1c-0.1,0.4-4.4,0.8-5.1,1c-1,0.3-1.9,0.8-2.5,1.7c-1.1,1.5-0.7,3.2,0.3,4.6c2.9,3.7,9.6,6.1,14.2,5.5
				c4.4-0.6,7-4.4,4-8.3c-3.3-4.4-10.1-5.9-15.1-7.3c-1.9-0.5-2.7,2.4-0.8,2.9c3.6,1,7.3,2,10.6,3.9c1.2,0.7,3.5,2,3.6,3.6
				c0.3,3.2-5.1,2.4-6.7,2c-1.8-0.5-3.4-1.4-5-2.3c-0.6-0.3-2.3-1.2-2.4-1.7c-0.3-1.3,1.9-1.9,2.7-2c2.4-0.4,4.9-0.8,5.3-3.5
				C340.3,365.2,337.3,365.2,337,367.1L337,367.1z"/>
		</g>
	</g>
	<g>
		<g>
			<path d="M357.6,368.6c1.2,3.3,3.3,5.3,6.2,7.2c0.5,0.3,1.4,0.3,1.8-0.2c5.1-6.6,16.8-6.1,24.3-5.3c4.8,0.5,5.8,2.7,8.9,5.4
				c1.9,1.7,4,2.2,6.5,2.3c1.9,0.1,1.9-2.9,0-3c-5-0.2-6.1-4.8-10.1-6.6c-3.1-1.4-7.2-1.3-10.5-1.3c-7-0.1-16.5,0.4-21.2,6.4
				c0.6-0.1,1.2-0.2,1.8-0.2c-2.2-1.4-3.9-2.9-4.8-5.4C359.8,366,356.9,366.8,357.6,368.6L357.6,368.6z"/>
		</g>
	</g>
	<path class="st13" d="M337.8,558.5l-4.5,0.1c-1,0-1.8-0.6-1.9-1.3l0,0c0-0.7,0.8-1.3,1.8-1.3l4.5-0.1c1,0,1.8,0.6,1.9,1.3l0,0
		C339.5,557.9,338.8,558.5,337.8,558.5z"/>
</g>
<g>
	<g>
		<g>
			<path class="st27" d="M1547.8,595.6c0.2-0.3,0.3-0.4,0.7-0.5c0.3,0,0.5,0,0.8,0c0.1,0,0.2,0,0.3,0c0.5,0.1,0.5,0,0-0.4
				c0-0.3,0-0.5,0-0.8c0,0.1,0,0.1-0.1,0.2c-0.6,1.8,2.3,2.6,2.9,0.8c0.3-0.8,0-1.6-0.6-2.2c-0.7-0.6-1.7-0.6-2.5-0.7
				c-1.6,0-3.3,0.5-4.1,2C1544.3,595.9,1546.9,597.4,1547.8,595.6L1547.8,595.6z"/>
		</g>
	</g>
	<g>
		<g>
			<path class="st27" d="M1547.4,596.3c0.4-0.6,1.1-1,1.9-1.2c0.3-0.1,2.1-0.2,2.2-0.3c-0.7,1.8,2.2,2.6,2.9,0.8
				c1-2.6-1.9-3.8-3.9-3.7c-2.2,0.2-4.3,1-5.6,2.9C1543.7,596.4,1546.3,597.9,1547.4,596.3L1547.4,596.3z"/>
		</g>
	</g>
	<path class="st28" d="M1593.3,499.8c-7.5-1.6-7,5.4-7.5,7c-0.5,1.6-3.2,18.2-4.8,27.9c-1,6.2-5.4,8.4-8.4,9.2
		c1.3-12.6,2.8-25.7,3.6-29c1.6-6.4,3.2-30-1.6-32.7c-4.8-2.7-15.5-5.4-20.4,15.5c-1.5,6.6-1.7,18.6-1.1,31.8
		c-4.7,0.9-14,0.9-14.4-13.1c-0.5-18.8,2.7-22,2.7-24.1c0-2.1-17.7-15-15,7.5c2.7,22.5,12.9,31.6,18.2,33.2c3,0.9,5.9,1.6,8.8,1.6
		c1.4,27.6,5.2,58.4,5.2,58.4s9.1,2.1,8,0c-1.1-2.1,2.1-17.1,3.2-23.6c0.4-2.2,1-8.3,1.8-15.7c5.8,0.7,17.4-14.8,21.2-18.6
		c4.3-4.3,5.9-20.9,7.5-24.6C1601.8,506.8,1600.8,501.4,1593.3,499.8z"/>
	<g>
		<g>
			<path class="st29" d="M1560.6,488.3c-0.3,1.1-0.5,2.1-0.6,3.2c-0.1,1,1.4,1,1.5,0c0.1-1,0.3-1.9,0.5-2.8
				C1562.4,487.7,1560.9,487.3,1560.6,488.3L1560.6,488.3z"/>
		</g>
	</g>
	<g>
		<g>
			<path class="st29" d="M1567.7,484c-0.3,2-0.4,4.1-0.3,6.1c0,1,1.5,1,1.5,0c-0.1-1.9,0-3.8,0.3-5.7
				C1569.3,483.4,1567.9,483,1567.7,484L1567.7,484z"/>
		</g>
	</g>
	<g>
		<g>
			<path class="st29" d="M1573.4,495.6c-0.2,1-0.5,2-0.7,3.1c-0.2,0.9,1.2,1.3,1.4,0.4c0.2-1,0.5-2,0.7-3.1
				C1575.1,495,1573.6,494.6,1573.4,495.6L1573.4,495.6z"/>
		</g>
	</g>
	<g>
		<g>
			<path class="st29" d="M1563.7,495.6c-0.2,1.1-0.4,2.3-0.6,3.4c-0.2,0.9,1.3,1.4,1.4,0.4c0.2-1.1,0.4-2.3,0.6-3.4
				C1565.3,495,1563.8,494.6,1563.7,495.6L1563.7,495.6z"/>
		</g>
	</g>
	<g>
		<g>
			<path class="st29" d="M1558.7,501.7c0.1,0.8,0.2,1.5,0.1,2.3c0,0.4,0.4,0.8,0.8,0.8c0.4,0,0.7-0.3,0.8-0.8c0.1-0.9,0-1.8-0.1-2.7
				C1560,500.3,1558.6,500.7,1558.7,501.7L1558.7,501.7z"/>
		</g>
	</g>
	<g>
		<g>
			<path class="st29" d="M1560.1,511c0,1.4,0,2.7,0,4.1c0,1,1.5,1,1.5,0c0-1.4,0-2.7,0-4.1C1561.6,510,1560.1,510,1560.1,511
				L1560.1,511z"/>
		</g>
	</g>
	<g>
		<g>
			<path class="st29" d="M1556.5,517.4c0,1,0,2,0,3c0,1,1.5,1,1.5,0c0-1,0-2,0-3C1558,516.4,1556.5,516.4,1556.5,517.4L1556.5,517.4
				z"/>
		</g>
	</g>
	<g>
		<g>
			<path class="st29" d="M1567.7,504.8c-0.7,2.2-0.9,4.5-0.6,6.8c0.1,1,1.6,0.5,1.4-0.4c-0.3-2.1-0.1-4.1,0.6-6
				C1569.5,504.3,1568,503.9,1567.7,504.8L1567.7,504.8z"/>
		</g>
	</g>
	<g>
		<g>
			<path class="st29" d="M1570.3,509.9c-0.1,1.2-0.2,2.4-0.2,3.6c-0.1,1,1.4,1,1.5,0c0.1-1.2,0.2-2.4,0.2-3.6
				C1571.9,508.9,1570.4,508.9,1570.3,509.9L1570.3,509.9z"/>
		</g>
	</g>
	<g>
		<g>
			<path class="st29" d="M1565.6,525.2c-0.2,1.5-0.5,3-0.7,4.5c-0.2,0.9,1.3,1.4,1.4,0.4c0.2-1.5,0.5-3,0.7-4.5
				C1567.2,524.7,1565.8,524.3,1565.6,525.2L1565.6,525.2z"/>
		</g>
	</g>
	<g>
		<g>
			<path class="st29" d="M1561.7,519.5c-0.1,1.5-0.1,3-0.2,4.5c0,1,1.5,1,1.5,0c0.1-1.5,0.1-3,0.2-4.5
				C1563.3,518.6,1561.8,518.6,1561.7,519.5L1561.7,519.5z"/>
		</g>
	</g>
	<g>
		<g>
			<path class="st29" d="M1557.9,528.5c0,1.4,0,2.7,0,4.1c0,1,1.5,1,1.5,0c0-1.4,0-2.7,0-4.1
				C1559.4,527.5,1557.9,527.5,1557.9,528.5L1557.9,528.5z"/>
		</g>
	</g>
	<g>
		<g>
			<path class="st29" d="M1569.8,519c-0.2,0.9-0.3,1.8-0.2,2.7c0.1,1,1.6,1,1.5,0c-0.1-0.8,0-1.5,0.1-2.3
				C1571.4,518.4,1570,518,1569.8,519L1569.8,519z"/>
		</g>
	</g>
	<g>
		<g>
			<path class="st29" d="M1570.2,533.5c-0.6,2.2-1,4.5-1.3,6.8c-0.1,1,1.4,1,1.5,0c0.2-2.2,0.6-4.3,1.2-6.4
				C1571.9,532.9,1570.4,532.5,1570.2,533.5L1570.2,533.5z"/>
		</g>
	</g>
	<g>
		<g>
			<path class="st29" d="M1562.2,538.6c0,1.6-0.2,3.2-0.5,4.8c-0.2,0.9,1.2,1.3,1.4,0.4c0.4-1.7,0.5-3.4,0.6-5.2
				C1563.8,537.7,1562.3,537.7,1562.2,538.6L1562.2,538.6z"/>
		</g>
	</g>
	<g>
		<g>
			<path class="st29" d="M1558.1,547c-0.1,2.4-0.1,4.8,0,7.1c0.1,1,1.6,1,1.5,0c-0.1-2.4-0.2-4.8,0-7.1
				C1559.7,546.1,1558.2,546.1,1558.1,547L1558.1,547z"/>
		</g>
	</g>
	<g>
		<g>
			<path class="st29" d="M1564.5,550.6c-0.4,1.6-0.7,3.3-0.7,5c0,1,1.5,1,1.5,0c0.1-1.6,0.3-3.1,0.7-4.6
				C1566.2,550,1564.8,549.6,1564.5,550.6L1564.5,550.6z"/>
		</g>
	</g>
	<g>
		<g>
			<path class="st29" d="M1566.7,554.9c0.1,3.3,0.2,6.7,0.3,10c0,1,1.5,1,1.5,0c-0.1-3.3-0.2-6.7-0.3-10
				C1568.2,553.9,1566.7,553.9,1566.7,554.9L1566.7,554.9z"/>
		</g>
	</g>
	<g>
		<g>
			<path class="st29" d="M1558.6,559c0,2.2,0.2,4.3,0.6,6.4c0.2,0.9,1.6,0.5,1.4-0.4c-0.4-2-0.6-4-0.6-6
				C1560.2,558,1558.7,558,1558.6,559L1558.6,559z"/>
		</g>
	</g>
	<g>
		<g>
			<path class="st29" d="M1564.2,565.1c-0.1,1.8-0.1,3.7,0,5.5c0.1,1,1.6,1,1.5,0c-0.1-1.8-0.1-3.7,0-5.5
				C1565.7,564.1,1564.2,564.1,1564.2,565.1L1564.2,565.1z"/>
		</g>
	</g>
	<g>
		<g>
			<path class="st29" d="M1561,573.1c-0.2,1.4-0.4,2.8-0.7,4.3c-0.1,0.9,1.3,1.4,1.4,0.4c0.2-1.4,0.4-2.8,0.7-4.3
				C1562.6,572.6,1561.2,572.1,1561,573.1L1561,573.1z"/>
		</g>
	</g>
	<g>
		<g>
			<path class="st29" d="M1563.1,576.7c-0.3,2.4-0.6,4.8-0.8,7.2c-0.1,1,1.4,0.9,1.5,0c0.3-2.4,0.6-4.8,0.8-7.2
				C1564.7,575.7,1563.2,575.7,1563.1,576.7L1563.1,576.7z"/>
		</g>
	</g>
	<g>
		<g>
			<path class="st29" d="M1573.8,544.9c-0.5,2-0.8,4-0.7,6.1c0,1,1.5,1,1.5,0c-0.1-1.9,0.2-3.8,0.7-5.7
				C1575.5,544.4,1574,544,1573.8,544.9L1573.8,544.9z"/>
		</g>
	</g>
	<g>
		<g>
			<path class="st29" d="M1580,542.4c-0.6,0.7-1,1.6-1.2,2.5c-0.2,0.9,1.2,1.3,1.4,0.4c0.2-0.8,0.5-1.5,1-2.1c0.2-0.3,0-0.8-0.3-1
				C1580.7,541.9,1580.3,542.1,1580,542.4L1580,542.4z"/>
		</g>
	</g>
	<g>
		<g>
			<path class="st29" d="M1583.3,526.9c-0.1,2.1-0.3,4.2-0.4,6.2c-0.1,1,1.4,1,1.5,0c0.1-2.1,0.3-4.2,0.4-6.2
				C1584.9,525.9,1583.4,525.9,1583.3,526.9L1583.3,526.9z"/>
		</g>
	</g>
	<g>
		<g>
			<path class="st29" d="M1585.6,522c0.7,1,0.8,2.2,0.3,3.3c-0.3,0.9,1.1,1.3,1.4,0.4c0.6-1.5,0.4-3.1-0.5-4.5
				C1586.4,520.5,1585.1,521.2,1585.6,522L1585.6,522z"/>
		</g>
	</g>
	<g>
		<g>
			<path class="st29" d="M1587.5,511.7c0.6,0.9,0.9,1.9,0.8,3c0,1,1.5,1,1.5,0c0-1.3-0.3-2.6-1-3.8
				C1588.3,510.1,1587,510.9,1587.5,511.7L1587.5,511.7z"/>
		</g>
	</g>
	<g>
		<g>
			<path class="st29" d="M1591,501.7c-0.1,1.9-0.3,3.8-0.4,5.7c-0.1,1,1.4,1,1.5,0c0.1-1.9,0.3-3.8,0.4-5.7
				C1592.6,500.7,1591.1,500.7,1591,501.7L1591,501.7z"/>
		</g>
	</g>
	<g>
		<g>
			<path class="st29" d="M1595.1,504.5c-1,1.9-1.8,3.8-2.4,5.9c-0.3,0.9,1.2,1.3,1.4,0.4c0.6-1.9,1.3-3.8,2.3-5.5
				C1596.8,504.4,1595.5,503.7,1595.1,504.5L1595.1,504.5z"/>
		</g>
	</g>
	<g>
		<g>
			<path class="st29" d="M1593,519.6c1.4-1.2,2.7-2.5,3.7-4.1c0.5-0.8-0.8-1.6-1.3-0.8c-1,1.4-2.1,2.7-3.5,3.8
				C1591.2,519.1,1592.3,520.2,1593,519.6L1593,519.6z"/>
		</g>
	</g>
	<g>
		<g>
			<path class="st29" d="M1589.7,530c1.6-1.8,2.8-3.9,3.7-6.1c0.4-0.9-1.1-1.3-1.4-0.4c-0.8,2-1.9,3.9-3.3,5.5
				C1588,529.7,1589.1,530.7,1589.7,530L1589.7,530z"/>
		</g>
	</g>
	<g>
		<g>
			<path class="st29" d="M1584.9,539.7c0.4-1.6,1.3-2.9,2.6-3.9c0.8-0.6-0.3-1.6-1.1-1.1c-1.5,1.1-2.5,2.8-3,4.6
				C1583.2,540.3,1584.6,540.7,1584.9,539.7L1584.9,539.7z"/>
		</g>
	</g>
	<g>
		<g>
			<path class="st29" d="M1531.1,496c0.3-2.2,0.9-4.2,1.8-6.2c0.4-0.9-0.9-1.6-1.3-0.8c-1,2.1-1.6,4.3-2,6.6
				C1529.6,496.5,1531,496.9,1531.1,496L1531.1,496z"/>
		</g>
	</g>
	<g>
		<g>
			<path class="st29" d="M1535,493.8c0.8-1.6,2-2.9,3.3-4.1c0.7-0.6-0.3-1.7-1.1-1.1c-1.5,1.2-2.7,2.7-3.6,4.4
				C1533.3,493.9,1534.5,494.7,1535,493.8L1535,493.8z"/>
		</g>
	</g>
	<g>
		<g>
			<path class="st29" d="M1533.9,507.7c-0.4-1.2-1-2.3-1.6-3.4c-0.2-0.3-2.1-2.7-2.2-2.7c0.6-0.8-0.7-1.5-1.3-0.8
				c-0.7,1,0.3,1.9,0.9,2.6c1.2,1.4,2.1,2.9,2.7,4.6C1532.8,509,1534.2,508.6,1533.9,507.7L1533.9,507.7z"/>
		</g>
	</g>
	<g>
		<g>
			<path class="st29" d="M1535.4,503.1c0.5-2.4,1.4-4.6,2.9-6.6c0.6-0.8-0.7-1.5-1.3-0.8c-1.5,2.1-2.5,4.4-3,7
				C1533.7,503.6,1535.2,504.1,1535.4,503.1L1535.4,503.1z"/>
		</g>
	</g>
	<g>
		<g>
			<path class="st29" d="M1535.9,520.6c0.1-2.2,0.2-4.4,0.3-6.6c0.1-1-1.4-1-1.5,0c-0.1,2.2-0.2,4.4-0.3,6.6
				C1534.3,521.6,1535.8,521.6,1535.9,520.6L1535.9,520.6z"/>
		</g>
	</g>
	<g>
		<g>
			<path class="st29" d="M1539,525.8c0-1.4,0.2-2.8,0.5-4.2c0.2-0.9-1.2-1.3-1.4-0.4c-0.4,1.5-0.6,3.1-0.6,4.6
				C1537.5,526.8,1539,526.8,1539,525.8L1539,525.8z"/>
		</g>
	</g>
	<g>
		<g>
			<path class="st29" d="M1548.5,531.1c-2.4-1.6-4.9-3.2-7.3-4.9c-0.8-0.5-1.6,0.8-0.8,1.3c2.4,1.6,4.9,3.2,7.3,4.9
				C1548.5,532.9,1549.3,531.6,1548.5,531.1L1548.5,531.1z"/>
		</g>
	</g>
	<g>
		<g>
			<path class="st29" d="M1551.8,531.7c0-0.4,0-0.7,0-1.1c0-1-1.5-1-1.5,0c0,0.4,0,0.7,0,1.1
				C1550.3,532.6,1551.8,532.6,1551.8,531.7L1551.8,531.7z"/>
		</g>
	</g>
	<path class="st30" d="M1540.7,597.3c0,0,7.5-15,14.5-1.6c0,0-1.1-13.9,3.8-8.6s4.3,5.9,4.3,5.9s5.4-13.4,9.6-6.4
		c4.3,7,5.9-1.1,6.4,1.6c0.5,2.7,9.6,4.3,3.2,7.5C1576.1,598.9,1542.4,598.9,1540.7,597.3z"/>
	<g>
		<g>
			<path class="st27" d="M1547.4,595.6c0-0.1,0.3-1.3,0.2-1.4c-0.6,0.2-0.7,0.3-0.2,0.4c0.2,0.1,0.4,0.2,0.6,0.2
				c1,0.4,2.1,0.8,3.1,1.2c1.8,0.7,2.6-2.2,0.8-2.9c-0.9-0.3-1.8-0.7-2.7-1c-0.7-0.3-1.5-0.7-2.4-0.6c-1.9,0.1-2.1,1.8-2.4,3.3
				C1544.1,596.7,1547,597.5,1547.4,595.6L1547.4,595.6z"/>
		</g>
	</g>
	<g>
		<g>
			<path class="st27" d="M1558.9,596.9c0.7-0.8,2.4-2,3.5-1.2c0.7,0.5,1.7,0.1,2.1-0.5c0.5-0.8,0.1-1.6-0.5-2.1
				c-2.2-1.6-5.5-0.1-7.1,1.7C1555.5,596.2,1557.6,598.3,1558.9,596.9L1558.9,596.9z"/>
		</g>
	</g>
	<g>
		<g>
			<path class="st27" d="M1571.9,593.1c0.2-1.4,2-1.3,2.4-0.1c0.6,1.8,3.5,1.1,2.9-0.8c-0.6-2-2.4-3.4-4.5-3.1c-2.1,0.2-3.5,2-3.8,4
				c-0.1,0.8,0.8,1.5,1.5,1.5C1571.2,594.6,1571.8,593.9,1571.9,593.1L1571.9,593.1z"/>
		</g>
	</g>
</g>
<g>
	<path class="st31" d="M1105.6,480.5c0,0,6.6,119.5-25,132.3c-31.6,12.8,432.3,2.3,446.8,4.3s25.7,3.1,23.1-6.1
		c-2.6-9.2-11.9-71.9-6.6-83.9c5.3-12.1-129.2-53.4-150.2-54.1C1372.5,472.4,1112.9,473.1,1105.6,480.5z"/>
	<g>
		<path class="st32" d="M1267.9,511.6c10.6-18.4,123.2,0,123.2,0s-46,68.1-8,83.4c7.2,15.6-71.6,6.5-93.2,9.5c-21.6,3-48.8,0-48.8,0
			S1285.1,544.2,1267.9,511.6z"/>
		<polyline class="st33" points="1329.1,504.2 1309.9,554.8 1304.3,603.7 		"/>
		<line class="st33" x1="1271.5" y1="530.8" x2="1271.5" y2="530.8"/>
		<polyline class="st33" points="1377.9,534.6 1320.3,526.5 1271.5,530.8 		"/>
		<polyline class="st33" points="1256.3,580.1 1307.5,577.1 1369.1,580.9 		"/>
		<polygon class="st34" points="1329.5,559.2 1324.9,557.8 1320,558.9 1321.2,556.2 1317.5,554.1 1322.9,553.8 1325.5,551.4
			1327.6,554 1332.9,554.5 1328.9,556.4 		"/>
		<polygon class="st34" points="1300.7,558.4 1296.1,556.9 1291.2,558.1 1292.4,555.3 1288.7,553.2 1294.1,553 1296.7,550.5
			1298.8,553.1 1304.1,553.7 1300.1,555.6 		"/>
	</g>
	<polygon class="st35" points="1430.8,513.8 1467.8,514.1 1467.8,538 1426,539.5 	"/>
	<polygon class="st35" points="1139.5,508.9 1187.3,509.3 1187.2,539.7 1133.3,541.6 	"/>
	<path class="st36" d="M1141.2,509.6c0,6.3-1.3,32.6,0,34c1.3,1.4-10.5,0-10.5,0s4-27.1,1.3-31.9
		C1129.3,506.9,1141.2,508.3,1141.2,509.6z"/>
	<path class="st36" d="M1195.2,509.6c0,6.3-1.3,32.6,0,34s-10.5,0-10.5,0s4-27.1,1.3-31.9C1183.3,506.9,1195.2,508.3,1195.2,509.6z"
		/>
	<path class="st37" d="M1126.7,504.1c22.4,0,63.2,2.1,69.8,2.1c6.6,0,7.9,4.9,4,5.6c-4,0.7-71.1-1.4-73.8,0
		C1124.1,513.1,1121.4,504.1,1126.7,504.1z"/>
	<path class="st37" d="M1118.8,539.5c13.2,0,42.2,1.9,58,0.9c15.8-0.9,27.7-0.9,25,0.9s-1.3,3.7-17.1,3.7s-48.7,0-60.6-0.5
		C1112.2,544.1,1113.5,539.5,1118.8,539.5z"/>
	<path class="st36" d="M1430.8,515.2c0,4.7-1,24.3,0,25.4c1,1-7.9,0-7.9,0s2.9-20.2,1-23.8C1422,513.1,1430.8,514.1,1430.8,515.2z"
		/>
	<path class="st36" d="M1471.1,515.2c0,4.7-1,24.3,0,25.4s-7.9,0-7.9,0s2.9-20.2,1-23.8C1462.2,513.1,1471.1,514.1,1471.1,515.2z"/>
	<path class="st37" d="M1420,511c16.7,0,47.1,1.6,52.1,1.6s5.9,3.6,2.9,4.1c-2.9,0.5-53-1-55,0C1418,517.8,1416.1,511,1420,511z"/>
	<path class="st37" d="M1414.1,537.4c9.9,0,31.4,1.4,43.2,0.7c11.8-0.7,20.6-0.7,18.7,0.7c-2,1.4-1,2.8-12.8,2.8
		c-11.8,0-36.3,0-45.2-0.3C1409.2,540.9,1410.2,537.4,1414.1,537.4z"/>
	<path class="st36" d="M1071.4,580.4c1.4,3.7,8.3,23.9,4.8,28.3s16.3,3.7,16.3,3.7s-10.5-29.8-5.3-31.9
		C1092.4,578.3,1070.1,576.9,1071.4,580.4z"/>
	<path class="st36" d="M1118.8,578.3c0,0,15,24.6,4.8,30.7c-10.1,6.1,11,6.8,13.6,5.4s-15.8-31.9,0-34S1118.8,578.3,1118.8,578.3z"
		/>
	<path class="st36" d="M1179.4,578.3c0,0-7.9,31.9-10.5,36.8s18.4,0,18.4,0s-10.5-27.1,18.4-34.7S1179.4,578.3,1179.4,578.3z"/>
	<path class="st36" d="M1423.1,579c1.4,3.7,8.3,23.9,4.8,28.3s16.3,3.7,16.3,3.7s-10.5-29.8-5.3-31.9
		C1444.1,576.9,1421.7,575.6,1423.1,579z"/>
	<path class="st36" d="M1470.5,576.9c0,0,15,24.6,4.8,30.7c-10.1,6.1,11,6.8,13.6,5.4s-15.8-31.9,0-34S1470.5,576.9,1470.5,576.9z"
		/>
	<path class="st36" d="M1531.1,576.9c0,0-7.9,31.9-10.5,36.8c-2.6,4.9,18.4,0,18.4,0s-10.5-27.1,18.4-34.7
		S1531.1,576.9,1531.1,576.9z"/>
	<path class="st37" d="M1061.5,608.5c0,0,122.5,1.4,156.7,0c34.2-1.4,238.4-1.4,248.9,0s83,0,86.9-1.4s31.6,25,6.6,25
		s-101.4-3.5-138.3-2.8c-36.9,0.7-158.1,1.4-212.1,2.8c-54,1.4-31.6,1.4-90.9,0c-59.3-1.4-50.1,1.4-63.2,0.7
		S1048.3,608.5,1061.5,608.5z"/>
	<path class="st37" d="M1046.3,567.2c0,0-4,11.8,0,15.3s134.4-2.1,159.4-0.7c25,1.4,21.1-1.4,21.1-1.4s7.9-14.6,0-13.2
		c-7.9,1.4-114.6,2.8-126.5,2.8C1088.5,570,1047.7,563.8,1046.3,567.2z"/>
	<path class="st37" d="M1395.4,565.8c0,6.9-4,11.8,0,12.5s113.3-0.7,127.8,0c14.5,0.7,35.6,2.8,47.4,2.1s13.2-8.3,11.9-10.4
		c-1.3-2.1-13.2,0-29,0s-83-2.1-108-4.2C1420.4,563.8,1395.4,563.1,1395.4,565.8z"/>
	<path class="st38" d="M1450.7,375.7c0,0-82.8,87.2-61.9,95.8c23.7,9.7-310.9,4.9-310.9,4.9s40.8-85.4,10.5-104.8
		c10.5-15.3,362.2,5.6,362.2,5.6"/>
	<polygon class="st35" points="1342.3,386.8 1390.1,387.1 1390.1,417.6 1336.1,419.4 	"/>
	<path class="st36" d="M1341.4,386.8c0,6.3-1.3,32.6,0,34c1.3,1.4-10.5,0-10.5,0s4-27.1,1.3-31.9
		C1329.5,384,1341.4,385.4,1341.4,386.8z"/>
	<path class="st36" d="M1395.4,386.8c0,6.3-1.3,32.6,0,34c1.3,1.4-10.5,0-10.5,0s4-27.1,1.3-31.9S1395.4,385.4,1395.4,386.8z"/>
	<path class="st37" d="M1326.9,381.3c22.4,0,63.2,2.1,69.8,2.1s7.9,4.9,4,5.6c-4,0.7-71.1-1.4-73.8,0S1321.6,381.3,1326.9,381.3z"/>
	<path class="st37" d="M1319,416.7c13.2,0,42.2,1.9,58,0.9c15.8-0.9,27.7-0.9,25,0.9s-1.3,3.7-17.1,3.7c-15.8,0-48.7,0-60.6-0.5
		C1312.4,421.3,1313.7,416.7,1319,416.7z"/>
	<polygon class="st35" points="1239.6,386.8 1287.4,387.1 1287.3,417.6 1233.4,419.4 	"/>
	<path class="st36" d="M1295.3,386.1c0,6.3-1.3,32.6,0,34s-10.5,0-10.5,0s4-27.1,1.3-31.9S1295.3,384.7,1295.3,386.1z"/>
	<path class="st36" d="M1238.7,386.8c0,6.3-1.3,32.6,0,34c1.3,1.4-10.5,0-10.5,0s4-27.1,1.3-31.9
		C1226.8,384,1238.7,385.4,1238.7,386.8z"/>
	<path class="st37" d="M1224.2,381.3c22.4,0,63.2,2.1,69.8,2.1s7.9,4.9,4,5.6s-71.1-1.4-73.8,0S1218.9,381.3,1224.2,381.3z"/>
	<path class="st37" d="M1216.3,416.7c13.2,0,42.2,1.9,58,0.9c15.8-0.9,27.7-0.9,25,0.9s-1.3,3.7-17.1,3.7s-48.7,0-60.6-0.5
		C1209.7,421.3,1211,416.7,1216.3,416.7z"/>
	<g>
		<path class="st32" d="M1142.8,381.1c19.4-2.6,37.8-2.8,60.3,3.8c22.5,6.6,13.5,61.7,7.2,69.3c-6.3,7.6-80.1,5.2-80.1,3.3
			S1124.8,383.4,1142.8,381.1z"/>
		<line class="st33" x1="1170.7" y1="379.6" x2="1164.4" y2="459.3"/>
		<line class="st33" x1="1168.9" y1="406.2" x2="1216.7" y2="406.2"/>
		<line class="st33" x1="1131.1" y1="406.2" x2="1168.9" y2="406.2"/>
		<line class="st33" x1="1129.3" y1="428" x2="1216.7" y2="432.8"/>
		<ellipse class="st33" cx="1181.1" cy="421.2" rx="3.2" ry="1.7"/>
		<ellipse class="st33" cx="1159.5" cy="421.2" rx="3.2" ry="1.7"/>
	</g>
	<path class="st36" d="M1058.2,439.6c1.4,3.7,8.3,23.9,4.8,28.3s16.3,3.7,16.3,3.7s-10.5-29.8-5.3-31.9
		C1079.3,437.5,1056.9,436.1,1058.2,439.6z"/>
	<path class="st36" d="M1105.6,437.5c0,0,15,24.6,4.8,30.7s11,6.8,13.6,5.4s-15.8-31.9,0-34C1139.9,437.5,1105.6,437.5,1105.6,437.5
		z"/>
	<path class="st36" d="M1166.2,437.5c0,0-7.9,31.9-10.5,36.8s18.4,0,18.4,0s-10.5-27.1,18.4-34.7
		C1221.5,431.9,1166.2,437.5,1166.2,437.5z"/>
	<path class="st36" d="M1241.3,441.6c1.4,3.7,8.3,23.9,4.8,28.3c-3.5,4.4,16.3,3.7,16.3,3.7s-10.5-29.8-5.3-31.9
		C1262.4,439.6,1240,438.2,1241.3,441.6z"/>
	<path class="st36" d="M1403.3,441.2c1.9,4,11.4,26.3,6.6,31.1s22.3,4,22.3,4s-14.5-32.8-7.2-35.1S1401.5,437.3,1403.3,441.2z"/>
	<path class="st36" d="M1288.7,439.6c0,0,15,24.6,4.8,30.7c-10.1,6.1,11,6.8,13.6,5.4c2.6-1.4-15.8-31.9,0-34
		C1323,439.6,1288.7,439.6,1288.7,439.6z"/>
	<path class="st36" d="M1349.3,439.6c0,0-7.9,31.9-10.5,36.8c-2.6,4.9,18.4,0,18.4,0s-10.5-27.1,18.4-34.7
		C1404.6,434,1349.3,439.6,1349.3,439.6z"/>
	<path class="st39" d="M1049,468c0,0,343.8-2.1,359.6,0s168.6,50,180.5,58.3c11.9,8.3-6.6,14.6-6.6,14.6s-121.8-55.9-198.2-60
		c-76.4-4.2-325.3-0.7-339.8,7.6C1029.9,496.8,1033.8,467.7,1049,468z"/>
	<path class="st36" d="M1020,360.4"/>
	<path class="st39" d="M1029.2,364.6c-3.5,4.6-1.3,14.6,0,16.7c1.3,2.1,14.5-14.6,169.9-8.3c155.4,6.2,243.7,6.2,252.9,8.3
		s35.6-14.6,0-13.2c-28.9,1.1-216.5-2.7-303-4.9c-20-0.5-37.8-0.7-43.5-1.4c-18.4,0.7-40.7-0.2-57.1,0.3
		C1037.9,362.4,1030.3,363.2,1029.2,364.6z"/>
	<path class="st37" d="M1044.5,432.9c0,0-8.6,7.7,0,10s293.8-1.4,348.5-0.5c54.7,0.9,46.1-0.9,46.1-0.9s17.3-9.6,0-8.6
		c-17.3,0.9-250.6,1.8-276.5,1.8C1136.6,434.8,1047.4,430.7,1044.5,432.9z"/>
	<path class="st39" d="M1184,292.1c-37.2,25.2-55.8,74.2-55.8,74.2s283.4,11.9,298.7,9.4c15.3-2.5-21.6-103.1-129.6-97.5
		C1189.3,283.8,1193.2,285.9,1184,292.1z"/>
	<path class="st40" d="M1195.8,300.4c-10.5,11.1-51.4,46.5-48.7,54.8s189.7,11.1,222.6,10.4s46.1,0.7,26.3-22.9s-25-41.6-54-42.3
		s-83-16.7-114.6-8.3S1195.8,300.4,1195.8,300.4z"/>
	<path class="st41" d="M1348.8,326.7c-3.4,0.1-6.2,1.3-7.1,2.9l-35.3-5.1c-5.2-0.7-9.7-2.5-12.4-4.9c0,0-0.1-0.1-0.1-0.1
		c-3.2-2.9-3.5-6.5-1.1-9.6l12.5-16.1c0.9,0.2,1.8,0.2,2.8,0.2c4.3-0.1,7.6-2,7.4-4.2c-0.2-2.2-3.7-4-8-3.9c-4.3,0.1-7.6,2-7.4,4.2
		c0.1,1,0.8,1.8,1.9,2.5l-18.4,7.6c-9,3.7-12.5,16-23.4,14.2l-32.9-14c1.6-0.8,2.6-1.9,2.5-3.2c-0.2-2.2-3.7-4-8-3.9
		c-4.3,0.1-7.6,2-7.4,4.2c0.2,2.2,3.7,4,8,3.9c0.6,0,1.1-0.1,1.6-0.1l8.5,12.4c3.8,5.6,22.2,10.8,15.6,15.6l-31.4,11.9
		c-1.3-1.4-4.1-2.3-7.2-2.2c-4.3,0.1-7.6,2-7.4,4.2c0.2,2.2,3.7,4,8,3.9c3.7-0.1,6.7-1.5,7.3-3.3l28.7-0.5
		c5.1-0.1,13.2-4.1,19.7-6.3c4-1.3,9.3-0.2,10.5,2.2l0.3,20.8c-3.6,0.4-6.3,2.1-6.2,4.1c0.2,2.2,3.7,4,8,3.9c4.3-0.1,7.6-2,7.4-4.2
		c-0.1-1.8-2.4-3.2-5.5-3.7l11.4-14.5c3-5.5,16.8-7.8,27-9.5l23.1-4c1.1,1.7,4.1,2.8,7.6,2.8c4.3-0.1,7.6-2,7.4-4.2
		C1356.6,328.4,1353,326.6,1348.8,326.7z"/>
</g>
<g>
	<g>
		<g>
			<path class="st27" d="M66.8,644.6c0.2-0.3,0.3-0.4,0.7-0.5c0.3,0,0.5,0,0.8,0c0.1,0,0.2,0,0.3,0c0.5,0.1,0.5,0,0-0.4
				c0-0.3,0-0.5,0-0.8c0,0.1,0,0.1-0.1,0.2c-0.6,1.8,2.3,2.6,2.9,0.8c0.3-0.8,0-1.6-0.6-2.2c-0.7-0.6-1.7-0.6-2.5-0.7
				c-1.6,0-3.3,0.5-4.1,2C63.3,644.9,65.9,646.4,66.8,644.6L66.8,644.6z"/>
		</g>
	</g>
	<g>
		<g>
			<path class="st27" d="M66.4,645.3c0.4-0.6,1.1-1,1.9-1.2c0.3-0.1,2.1-0.2,2.2-0.3c-0.7,1.8,2.2,2.6,2.9,0.8
				c1-2.6-1.9-3.8-3.9-3.7c-2.2,0.2-4.3,1-5.6,2.9C62.7,645.4,65.3,646.9,66.4,645.3L66.4,645.3z"/>
		</g>
	</g>
	<path class="st28" d="M112.3,548.8c-7.5-1.6-7,5.4-7.5,7c-0.5,1.6-3.2,18.2-4.8,27.9c-1,6.2-5.4,8.4-8.4,9.2
		c1.3-12.6,2.8-25.7,3.6-29c1.6-6.4,3.2-30-1.6-32.7c-4.8-2.7-15.5-5.4-20.4,15.5c-1.5,6.6-1.7,18.6-1.1,31.8
		c-4.7,0.9-14,0.9-14.4-13.1c-0.5-18.8,2.7-22,2.7-24.1s-17.7-15-15,7.5s12.9,31.6,18.2,33.2c3,0.9,5.9,1.6,8.8,1.6
		c1.4,27.6,5.2,58.4,5.2,58.4s9.1,2.1,8,0c-1.1-2.1,2.1-17.1,3.2-23.6c0.4-2.2,1-8.3,1.8-15.7c5.8,0.7,17.4-14.8,21.2-18.6
		c4.3-4.3,5.9-20.9,7.5-24.6C120.8,555.8,119.8,550.4,112.3,548.8z"/>
	<g>
		<g>
			<path class="st29" d="M79.6,537.3c-0.3,1.1-0.5,2.1-0.6,3.2c-0.1,1,1.4,1,1.5,0c0.1-1,0.3-1.9,0.5-2.8
				C81.4,536.7,79.9,536.3,79.6,537.3L79.6,537.3z"/>
		</g>
	</g>
	<g>
		<g>
			<path class="st29" d="M86.7,533c-0.3,2-0.4,4.1-0.3,6.1c0,1,1.5,1,1.5,0c-0.1-1.9,0-3.8,0.3-5.7C88.3,532.4,86.9,532,86.7,533
				L86.7,533z"/>
		</g>
	</g>
	<g>
		<g>
			<path class="st29" d="M92.4,544.6c-0.2,1-0.5,2-0.7,3.1c-0.2,0.9,1.2,1.3,1.4,0.4c0.2-1,0.5-2,0.7-3.1
				C94.1,544,92.6,543.6,92.4,544.6L92.4,544.6z"/>
		</g>
	</g>
	<g>
		<g>
			<path class="st29" d="M82.7,544.6c-0.2,1.1-0.4,2.3-0.6,3.4c-0.2,0.9,1.3,1.4,1.4,0.4c0.2-1.1,0.4-2.3,0.6-3.4
				C84.3,544,82.8,543.6,82.7,544.6L82.7,544.6z"/>
		</g>
	</g>
	<g>
		<g>
			<path class="st29" d="M77.7,550.7c0.1,0.8,0.2,1.5,0.1,2.3c0,0.4,0.4,0.8,0.8,0.8c0.4,0,0.7-0.3,0.8-0.8c0.1-0.9,0-1.8-0.1-2.7
				C79,549.3,77.6,549.7,77.7,550.7L77.7,550.7z"/>
		</g>
	</g>
	<g>
		<g>
			<path class="st29" d="M79.1,560c0,1.4,0,2.7,0,4.1c0,1,1.5,1,1.5,0c0-1.4,0-2.7,0-4.1C80.6,559,79.1,559,79.1,560L79.1,560z"/>
		</g>
	</g>
	<g>
		<g>
			<path class="st29" d="M75.5,566.4c0,1,0,2,0,3c0,1,1.5,1,1.5,0c0-1,0-2,0-3C77,565.4,75.5,565.4,75.5,566.4L75.5,566.4z"/>
		</g>
	</g>
	<g>
		<g>
			<path class="st29" d="M86.7,553.8c-0.7,2.2-0.9,4.5-0.6,6.8c0.1,1,1.6,0.5,1.4-0.4c-0.3-2.1-0.1-4.1,0.6-6
				C88.5,553.3,87,552.9,86.7,553.8L86.7,553.8z"/>
		</g>
	</g>
	<g>
		<g>
			<path class="st29" d="M89.3,558.9c-0.1,1.2-0.2,2.4-0.2,3.6c-0.1,1,1.4,1,1.5,0c0.1-1.2,0.2-2.4,0.2-3.6
				C90.9,557.9,89.4,557.9,89.3,558.9L89.3,558.9z"/>
		</g>
	</g>
	<g>
		<g>
			<path class="st29" d="M84.6,574.2c-0.2,1.5-0.5,3-0.7,4.5c-0.2,0.9,1.3,1.4,1.4,0.4c0.2-1.5,0.5-3,0.7-4.5
				C86.2,573.7,84.8,573.3,84.6,574.2L84.6,574.2z"/>
		</g>
	</g>
	<g>
		<g>
			<path class="st29" d="M80.7,568.5c-0.1,1.5-0.1,3-0.2,4.5c0,1,1.5,1,1.5,0c0.1-1.5,0.1-3,0.2-4.5
				C82.3,567.6,80.8,567.6,80.7,568.5L80.7,568.5z"/>
		</g>
	</g>
	<g>
		<g>
			<path class="st29" d="M76.9,577.5c0,1.4,0,2.7,0,4.1c0,1,1.5,1,1.5,0c0-1.4,0-2.7,0-4.1C78.4,576.5,76.9,576.5,76.9,577.5
				L76.9,577.5z"/>
		</g>
	</g>
	<g>
		<g>
			<path class="st29" d="M88.8,568c-0.2,0.9-0.3,1.8-0.2,2.7c0.1,1,1.6,1,1.5,0c-0.1-0.8,0-1.5,0.1-2.3C90.4,567.4,89,567,88.8,568
				L88.8,568z"/>
		</g>
	</g>
	<g>
		<g>
			<path class="st29" d="M89.2,582.5c-0.6,2.2-1,4.5-1.3,6.8c-0.1,1,1.4,1,1.5,0c0.2-2.2,0.6-4.3,1.2-6.4
				C90.9,581.9,89.4,581.5,89.2,582.5L89.2,582.5z"/>
		</g>
	</g>
	<g>
		<g>
			<path class="st29" d="M81.2,587.6c0,1.6-0.2,3.2-0.5,4.8c-0.2,0.9,1.2,1.3,1.4,0.4c0.4-1.7,0.5-3.4,0.6-5.2
				C82.8,586.7,81.3,586.7,81.2,587.6L81.2,587.6z"/>
		</g>
	</g>
	<g>
		<g>
			<path class="st29" d="M77.1,596c-0.1,2.4-0.1,4.8,0,7.1c0.1,1,1.6,1,1.5,0c-0.1-2.4-0.2-4.8,0-7.1
				C78.7,595.1,77.2,595.1,77.1,596L77.1,596z"/>
		</g>
	</g>
	<g>
		<g>
			<path class="st29" d="M83.5,599.6c-0.4,1.6-0.7,3.3-0.7,5c0,1,1.5,1,1.5,0c0.1-1.6,0.3-3.1,0.7-4.6
				C85.2,599,83.8,598.6,83.5,599.6L83.5,599.6z"/>
		</g>
	</g>
	<g>
		<g>
			<path class="st29" d="M85.7,603.9c0.1,3.3,0.2,6.7,0.3,10c0,1,1.5,1,1.5,0c-0.1-3.3-0.2-6.7-0.3-10
				C87.2,602.9,85.7,602.9,85.7,603.9L85.7,603.9z"/>
		</g>
	</g>
	<g>
		<g>
			<path class="st29" d="M77.6,608c0,2.2,0.2,4.3,0.6,6.4c0.2,0.9,1.6,0.5,1.4-0.4c-0.4-2-0.6-4-0.6-6C79.2,607,77.7,607,77.6,608
				L77.6,608z"/>
		</g>
	</g>
	<g>
		<g>
			<path class="st29" d="M83.2,614.1c-0.1,1.8-0.1,3.7,0,5.5c0.1,1,1.6,1,1.5,0c-0.1-1.8-0.1-3.7,0-5.5
				C84.7,613.1,83.2,613.1,83.2,614.1L83.2,614.1z"/>
		</g>
	</g>
	<g>
		<g>
			<path class="st29" d="M80,622.1c-0.2,1.4-0.4,2.8-0.7,4.3c-0.1,0.9,1.3,1.4,1.4,0.4c0.2-1.4,0.4-2.8,0.7-4.3
				C81.6,621.6,80.2,621.1,80,622.1L80,622.1z"/>
		</g>
	</g>
	<g>
		<g>
			<path class="st29" d="M82.1,625.7c-0.3,2.4-0.6,4.8-0.8,7.2c-0.1,1,1.4,0.9,1.5,0c0.3-2.4,0.6-4.8,0.8-7.2
				C83.7,624.7,82.2,624.7,82.1,625.7L82.1,625.7z"/>
		</g>
	</g>
	<g>
		<g>
			<path class="st29" d="M92.8,593.9c-0.5,2-0.8,4-0.7,6.1c0,1,1.5,1,1.5,0c-0.1-1.9,0.2-3.8,0.7-5.7C94.5,593.4,93,593,92.8,593.9
				L92.8,593.9z"/>
		</g>
	</g>
	<g>
		<g>
			<path class="st29" d="M99,591.4c-0.6,0.7-1,1.6-1.2,2.5c-0.2,0.9,1.2,1.3,1.4,0.4c0.2-0.8,0.5-1.5,1-2.1c0.2-0.3,0-0.8-0.3-1
				C99.7,590.9,99.3,591.1,99,591.4L99,591.4z"/>
		</g>
	</g>
	<g>
		<g>
			<path class="st29" d="M102.3,575.9c-0.1,2.1-0.3,4.2-0.4,6.2c-0.1,1,1.4,1,1.5,0c0.1-2.1,0.3-4.2,0.4-6.2
				C103.9,574.9,102.4,574.9,102.3,575.9L102.3,575.9z"/>
		</g>
	</g>
	<g>
		<g>
			<path class="st29" d="M104.6,571c0.7,1,0.8,2.2,0.3,3.3c-0.3,0.9,1.1,1.3,1.4,0.4c0.6-1.5,0.4-3.1-0.5-4.5
				C105.4,569.5,104.1,570.2,104.6,571L104.6,571z"/>
		</g>
	</g>
	<g>
		<g>
			<path class="st29" d="M106.5,560.7c0.6,0.9,0.9,1.9,0.8,3c0,1,1.5,1,1.5,0c0-1.3-0.3-2.6-1-3.8
				C107.3,559.1,106,559.9,106.5,560.7L106.5,560.7z"/>
		</g>
	</g>
	<g>
		<g>
			<path class="st29" d="M110,550.7c-0.1,1.9-0.3,3.8-0.4,5.7c-0.1,1,1.4,1,1.5,0c0.1-1.9,0.3-3.8,0.4-5.7
				C111.6,549.7,110.1,549.7,110,550.7L110,550.7z"/>
		</g>
	</g>
	<g>
		<g>
			<path class="st29" d="M114.1,553.5c-1,1.9-1.8,3.8-2.4,5.9c-0.3,0.9,1.2,1.3,1.4,0.4c0.6-1.9,1.3-3.8,2.3-5.5
				C115.8,553.4,114.5,552.7,114.1,553.5L114.1,553.5z"/>
		</g>
	</g>
	<g>
		<g>
			<path class="st29" d="M112,568.6c1.4-1.2,2.7-2.5,3.7-4.1c0.5-0.8-0.8-1.6-1.3-0.8c-1,1.4-2.1,2.7-3.5,3.8
				C110.2,568.1,111.3,569.2,112,568.6L112,568.6z"/>
		</g>
	</g>
	<g>
		<g>
			<path class="st29" d="M108.7,579c1.6-1.8,2.8-3.9,3.7-6.1c0.4-0.9-1.1-1.3-1.4-0.4c-0.8,2-1.9,3.9-3.3,5.5
				C107,578.7,108.1,579.7,108.7,579L108.7,579z"/>
		</g>
	</g>
	<g>
		<g>
			<path class="st29" d="M103.9,588.7c0.4-1.6,1.3-2.9,2.6-3.9c0.8-0.6-0.3-1.6-1.1-1.1c-1.5,1.1-2.5,2.8-3,4.6
				C102.2,589.3,103.6,589.7,103.9,588.7L103.9,588.7z"/>
		</g>
	</g>
	<g>
		<g>
			<path class="st29" d="M50.1,545c0.3-2.2,0.9-4.2,1.8-6.2c0.4-0.9-0.9-1.6-1.3-0.8c-1,2.1-1.6,4.3-2,6.6
				C48.6,545.5,50,545.9,50.1,545L50.1,545z"/>
		</g>
	</g>
	<g>
		<g>
			<path class="st29" d="M54,542.8c0.8-1.6,2-2.9,3.3-4.1c0.7-0.6-0.3-1.7-1.1-1.1c-1.5,1.2-2.7,2.7-3.6,4.4
				C52.3,542.9,53.5,543.7,54,542.8L54,542.8z"/>
		</g>
	</g>
	<g>
		<g>
			<path class="st29" d="M52.9,556.7c-0.4-1.2-1-2.3-1.6-3.4c-0.2-0.3-2.1-2.7-2.2-2.7c0.6-0.8-0.7-1.5-1.3-0.8
				c-0.7,1,0.3,1.9,0.9,2.6c1.2,1.4,2.1,2.9,2.7,4.6C51.8,558,53.2,557.6,52.9,556.7L52.9,556.7z"/>
		</g>
	</g>
	<g>
		<g>
			<path class="st29" d="M54.4,552.1c0.5-2.4,1.4-4.6,2.9-6.6c0.6-0.8-0.7-1.5-1.3-0.8c-1.5,2.1-2.5,4.4-3,7
				C52.7,552.6,54.2,553.1,54.4,552.1L54.4,552.1z"/>
		</g>
	</g>
	<g>
		<g>
			<path class="st29" d="M54.9,569.6c0.1-2.2,0.2-4.4,0.3-6.6c0.1-1-1.4-1-1.5,0c-0.1,2.2-0.2,4.4-0.3,6.6
				C53.3,570.6,54.8,570.6,54.9,569.6L54.9,569.6z"/>
		</g>
	</g>
	<g>
		<g>
			<path class="st29" d="M58,574.8c0-1.4,0.2-2.8,0.5-4.2c0.2-0.9-1.2-1.3-1.4-0.4c-0.4,1.5-0.6,3.1-0.6,4.6
				C56.5,575.8,58,575.8,58,574.8L58,574.8z"/>
		</g>
	</g>
	<g>
		<g>
			<path class="st29" d="M67.5,580.1c-2.4-1.6-4.9-3.2-7.3-4.9c-0.8-0.5-1.6,0.8-0.8,1.3c2.4,1.6,4.9,3.2,7.3,4.9
				C67.5,581.9,68.3,580.6,67.5,580.1L67.5,580.1z"/>
		</g>
	</g>
	<g>
		<g>
			<path class="st29" d="M70.8,580.7c0-0.4,0-0.7,0-1.1c0-1-1.5-1-1.5,0c0,0.4,0,0.7,0,1.1C69.3,581.6,70.8,581.6,70.8,580.7
				L70.8,580.7z"/>
		</g>
	</g>
	<path class="st30" d="M59.7,646.3c0,0,7.5-15,14.5-1.6c0,0-1.1-13.9,3.8-8.6c4.8,5.4,4.3,5.9,4.3,5.9s5.4-13.4,9.6-6.4
		s5.9-1.1,6.4,1.6c0.5,2.7,9.6,4.3,3.2,7.5S61.4,647.9,59.7,646.3z"/>
	<g>
		<g>
			<path class="st27" d="M66.4,644.6c0-0.1,0.3-1.3,0.2-1.4c-0.6,0.2-0.7,0.3-0.2,0.4c0.2,0.1,0.4,0.2,0.6,0.2
				c1,0.4,2.1,0.8,3.1,1.2c1.8,0.7,2.6-2.2,0.8-2.9c-0.9-0.3-1.8-0.7-2.7-1c-0.7-0.3-1.5-0.7-2.4-0.6c-1.9,0.1-2.1,1.8-2.4,3.3
				C63.1,645.7,66,646.5,66.4,644.6L66.4,644.6z"/>
		</g>
	</g>
	<g>
		<g>
			<path class="st27" d="M77.9,645.9c0.7-0.8,2.4-2,3.5-1.2c0.7,0.5,1.7,0.1,2.1-0.5c0.5-0.8,0.1-1.6-0.5-2.1
				c-2.2-1.6-5.5-0.1-7.1,1.7C74.5,645.2,76.6,647.3,77.9,645.9L77.9,645.9z"/>
		</g>
	</g>
	<g>
		<g>
			<path class="st27" d="M90.9,642.1c0.2-1.4,2-1.3,2.4-0.1c0.6,1.8,3.5,1.1,2.9-0.8c-0.6-2-2.4-3.4-4.5-3.1c-2.1,0.2-3.5,2-3.8,4
				c-0.1,0.8,0.8,1.5,1.5,1.5C90.2,643.6,90.8,642.9,90.9,642.1L90.9,642.1z"/>
		</g>
	</g>
</g>
<g>
	<g>
		<g>
			<path class="st27" d="M979.8,617.6c0.2-0.3,0.3-0.4,0.7-0.5c0.3,0,0.5,0,0.8,0c0.1,0,0.2,0,0.3,0c0.5,0.1,0.5,0,0-0.4
				c0-0.3,0-0.5,0-0.8c0,0.1,0,0.1-0.1,0.2c-0.6,1.8,2.3,2.6,2.9,0.8c0.3-0.8,0-1.6-0.6-2.2c-0.7-0.6-1.7-0.6-2.5-0.7
				c-1.6,0-3.3,0.5-4.1,2C976.3,617.9,978.9,619.4,979.8,617.6L979.8,617.6z"/>
		</g>
	</g>
	<g>
		<g>
			<path class="st27" d="M979.4,618.3c0.4-0.6,1.1-1,1.9-1.2c0.3-0.1,2.1-0.2,2.2-0.3c-0.7,1.8,2.2,2.6,2.9,0.8
				c1-2.6-1.9-3.8-3.9-3.7c-2.2,0.2-4.3,1-5.6,2.9C975.7,618.4,978.3,619.9,979.4,618.3L979.4,618.3z"/>
		</g>
	</g>
	<path class="st28" d="M1025.3,521.8c-7.5-1.6-7,5.4-7.5,7s-3.2,18.2-4.8,27.9c-1,6.2-5.4,8.4-8.4,9.2c1.3-12.6,2.8-25.7,3.6-29
		c1.6-6.4,3.2-30-1.6-32.7c-4.8-2.7-15.5-5.4-20.4,15.5c-1.5,6.6-1.7,18.6-1.1,31.8c-4.7,0.9-14,0.9-14.4-13.1
		c-0.5-18.8,2.7-22,2.7-24.1s-17.7-15-15,7.5c2.7,22.5,12.9,31.6,18.2,33.2c3,0.9,5.9,1.6,8.8,1.6c1.4,27.6,5.2,58.4,5.2,58.4
		s9.1,2.1,8,0c-1.1-2.1,2.1-17.1,3.2-23.6c0.4-2.2,1-8.3,1.8-15.7c5.8,0.7,17.4-14.8,21.2-18.6c4.3-4.3,5.9-20.9,7.5-24.6
		C1033.8,528.8,1032.8,523.4,1025.3,521.8z"/>
	<g>
		<g>
			<path class="st29" d="M992.6,510.3c-0.3,1.1-0.5,2.1-0.6,3.2c-0.1,1,1.4,1,1.5,0c0.1-1,0.3-1.9,0.5-2.8
				C994.4,509.7,992.9,509.3,992.6,510.3L992.6,510.3z"/>
		</g>
	</g>
	<g>
		<g>
			<path class="st29" d="M999.7,506c-0.3,2-0.4,4.1-0.3,6.1c0,1,1.5,1,1.5,0c-0.1-1.9,0-3.8,0.3-5.7
				C1001.3,505.4,999.9,505,999.7,506L999.7,506z"/>
		</g>
	</g>
	<g>
		<g>
			<path class="st29" d="M1005.4,517.6c-0.2,1-0.5,2-0.7,3.1c-0.2,0.9,1.2,1.3,1.4,0.4c0.2-1,0.5-2,0.7-3.1
				C1007.1,517,1005.6,516.6,1005.4,517.6L1005.4,517.6z"/>
		</g>
	</g>
	<g>
		<g>
			<path class="st29" d="M995.7,517.6c-0.2,1.1-0.4,2.3-0.6,3.4c-0.2,0.9,1.3,1.4,1.4,0.4c0.2-1.1,0.4-2.3,0.6-3.4
				C997.3,517,995.8,516.6,995.7,517.6L995.7,517.6z"/>
		</g>
	</g>
	<g>
		<g>
			<path class="st29" d="M990.7,523.7c0.1,0.8,0.2,1.5,0.1,2.3c0,0.4,0.4,0.8,0.8,0.8c0.4,0,0.7-0.3,0.8-0.8c0.1-0.9,0-1.8-0.1-2.7
				C992,522.3,990.6,522.7,990.7,523.7L990.7,523.7z"/>
		</g>
	</g>
	<g>
		<g>
			<path class="st29" d="M992.1,533c0,1.4,0,2.7,0,4.1c0,1,1.5,1,1.5,0c0-1.4,0-2.7,0-4.1C993.6,532,992.1,532,992.1,533L992.1,533z
				"/>
		</g>
	</g>
	<g>
		<g>
			<path class="st29" d="M988.5,539.4c0,1,0,2,0,3c0,1,1.5,1,1.5,0c0-1,0-2,0-3C990,538.4,988.5,538.4,988.5,539.4L988.5,539.4z"/>
		</g>
	</g>
	<g>
		<g>
			<path class="st29" d="M999.7,526.8c-0.7,2.2-0.9,4.5-0.6,6.8c0.1,1,1.6,0.5,1.4-0.4c-0.3-2.1-0.1-4.1,0.6-6
				C1001.5,526.3,1000,525.9,999.7,526.8L999.7,526.8z"/>
		</g>
	</g>
	<g>
		<g>
			<path class="st29" d="M1002.3,531.9c-0.1,1.2-0.2,2.4-0.2,3.6c-0.1,1,1.4,1,1.5,0c0.1-1.2,0.2-2.4,0.2-3.6
				C1003.9,530.9,1002.4,530.9,1002.3,531.9L1002.3,531.9z"/>
		</g>
	</g>
	<g>
		<g>
			<path class="st29" d="M997.6,547.2c-0.2,1.5-0.5,3-0.7,4.5c-0.2,0.9,1.3,1.4,1.4,0.4c0.2-1.5,0.5-3,0.7-4.5
				C999.2,546.7,997.8,546.3,997.6,547.2L997.6,547.2z"/>
		</g>
	</g>
	<g>
		<g>
			<path class="st29" d="M993.7,541.5c-0.1,1.5-0.1,3-0.2,4.5c0,1,1.5,1,1.5,0c0.1-1.5,0.1-3,0.2-4.5
				C995.3,540.6,993.8,540.6,993.7,541.5L993.7,541.5z"/>
		</g>
	</g>
	<g>
		<g>
			<path class="st29" d="M989.9,550.5c0,1.4,0,2.7,0,4.1c0,1,1.5,1,1.5,0c0-1.4,0-2.7,0-4.1C991.4,549.5,989.9,549.5,989.9,550.5
				L989.9,550.5z"/>
		</g>
	</g>
	<g>
		<g>
			<path class="st29" d="M1001.8,541c-0.2,0.9-0.3,1.8-0.2,2.7c0.1,1,1.6,1,1.5,0c-0.1-0.8,0-1.5,0.1-2.3
				C1003.4,540.4,1002,540,1001.8,541L1001.8,541z"/>
		</g>
	</g>
	<g>
		<g>
			<path class="st29" d="M1002.2,555.5c-0.6,2.2-1,4.5-1.3,6.8c-0.1,1,1.4,1,1.5,0c0.2-2.2,0.6-4.3,1.2-6.4
				C1003.9,554.9,1002.4,554.5,1002.2,555.5L1002.2,555.5z"/>
		</g>
	</g>
	<g>
		<g>
			<path class="st29" d="M994.2,560.6c0,1.6-0.2,3.2-0.5,4.8c-0.2,0.9,1.2,1.3,1.4,0.4c0.4-1.7,0.5-3.4,0.6-5.2
				C995.8,559.7,994.3,559.7,994.2,560.6L994.2,560.6z"/>
		</g>
	</g>
	<g>
		<g>
			<path class="st29" d="M990.1,569c-0.1,2.4-0.1,4.8,0,7.1c0.1,1,1.6,1,1.5,0c-0.1-2.4-0.2-4.8,0-7.1
				C991.7,568.1,990.2,568.1,990.1,569L990.1,569z"/>
		</g>
	</g>
	<g>
		<g>
			<path class="st29" d="M996.5,572.6c-0.4,1.6-0.7,3.3-0.7,5c0,1,1.5,1,1.5,0c0.1-1.6,0.3-3.1,0.7-4.6
				C998.2,572,996.8,571.6,996.5,572.6L996.5,572.6z"/>
		</g>
	</g>
	<g>
		<g>
			<path class="st29" d="M998.7,576.9c0.1,3.3,0.2,6.7,0.3,10c0,1,1.5,1,1.5,0c-0.1-3.3-0.2-6.7-0.3-10
				C1000.2,575.9,998.7,575.9,998.7,576.9L998.7,576.9z"/>
		</g>
	</g>
	<g>
		<g>
			<path class="st29" d="M990.6,581c0,2.2,0.2,4.3,0.6,6.4c0.2,0.9,1.6,0.5,1.4-0.4c-0.4-2-0.6-4-0.6-6
				C992.2,580,990.7,580,990.6,581L990.6,581z"/>
		</g>
	</g>
	<g>
		<g>
			<path class="st29" d="M996.2,587.1c-0.1,1.8-0.1,3.7,0,5.5c0.1,1,1.6,1,1.5,0c-0.1-1.8-0.1-3.7,0-5.5
				C997.7,586.1,996.2,586.1,996.2,587.1L996.2,587.1z"/>
		</g>
	</g>
	<g>
		<g>
			<path class="st29" d="M993,595.1c-0.2,1.4-0.4,2.8-0.7,4.3c-0.1,0.9,1.3,1.4,1.4,0.4c0.2-1.4,0.4-2.8,0.7-4.3
				C994.6,594.6,993.2,594.1,993,595.1L993,595.1z"/>
		</g>
	</g>
	<g>
		<g>
			<path class="st29" d="M995.1,598.7c-0.3,2.4-0.6,4.8-0.8,7.2c-0.1,1,1.4,0.9,1.5,0c0.3-2.4,0.6-4.8,0.8-7.2
				C996.7,597.7,995.2,597.7,995.1,598.7L995.1,598.7z"/>
		</g>
	</g>
	<g>
		<g>
			<path class="st29" d="M1005.8,566.9c-0.5,2-0.8,4-0.7,6.1c0,1,1.5,1,1.5,0c-0.1-1.9,0.2-3.8,0.7-5.7
				C1007.5,566.4,1006,566,1005.8,566.9L1005.8,566.9z"/>
		</g>
	</g>
	<g>
		<g>
			<path class="st29" d="M1012,564.4c-0.6,0.7-1,1.6-1.2,2.5c-0.2,0.9,1.2,1.3,1.4,0.4c0.2-0.8,0.5-1.5,1-2.1c0.2-0.3,0-0.8-0.3-1
				C1012.7,563.9,1012.3,564.1,1012,564.4L1012,564.4z"/>
		</g>
	</g>
	<g>
		<g>
			<path class="st29" d="M1015.3,548.9c-0.1,2.1-0.3,4.2-0.4,6.2c-0.1,1,1.4,1,1.5,0c0.1-2.1,0.3-4.2,0.4-6.2
				C1016.9,547.9,1015.4,547.9,1015.3,548.9L1015.3,548.9z"/>
		</g>
	</g>
	<g>
		<g>
			<path class="st29" d="M1017.6,544c0.7,1,0.8,2.2,0.3,3.3c-0.3,0.9,1.1,1.3,1.4,0.4c0.6-1.5,0.4-3.1-0.5-4.5
				C1018.4,542.5,1017.1,543.2,1017.6,544L1017.6,544z"/>
		</g>
	</g>
	<g>
		<g>
			<path class="st29" d="M1019.5,533.7c0.6,0.9,0.9,1.9,0.8,3c0,1,1.5,1,1.5,0c0-1.3-0.3-2.6-1-3.8
				C1020.3,532.1,1019,532.9,1019.5,533.7L1019.5,533.7z"/>
		</g>
	</g>
	<g>
		<g>
			<path class="st29" d="M1023,523.7c-0.1,1.9-0.3,3.8-0.4,5.7c-0.1,1,1.4,1,1.5,0c0.1-1.9,0.3-3.8,0.4-5.7
				C1024.6,522.7,1023.1,522.7,1023,523.7L1023,523.7z"/>
		</g>
	</g>
	<g>
		<g>
			<path class="st29" d="M1027.1,526.5c-1,1.9-1.8,3.8-2.4,5.9c-0.3,0.9,1.2,1.3,1.4,0.4c0.6-1.9,1.3-3.8,2.3-5.5
				C1028.8,526.4,1027.5,525.7,1027.1,526.5L1027.1,526.5z"/>
		</g>
	</g>
	<g>
		<g>
			<path class="st29" d="M1025,541.6c1.4-1.2,2.7-2.5,3.7-4.1c0.5-0.8-0.8-1.6-1.3-0.8c-1,1.4-2.1,2.7-3.5,3.8
				C1023.2,541.1,1024.3,542.2,1025,541.6L1025,541.6z"/>
		</g>
	</g>
	<g>
		<g>
			<path class="st29" d="M1021.7,552c1.6-1.8,2.8-3.9,3.7-6.1c0.4-0.9-1.1-1.3-1.4-0.4c-0.8,2-1.9,3.9-3.3,5.5
				C1020,551.7,1021.1,552.7,1021.7,552L1021.7,552z"/>
		</g>
	</g>
	<g>
		<g>
			<path class="st29" d="M1016.9,561.7c0.4-1.6,1.3-2.9,2.6-3.9c0.8-0.6-0.3-1.6-1.1-1.1c-1.5,1.1-2.5,2.8-3,4.6
				C1015.2,562.3,1016.6,562.7,1016.9,561.7L1016.9,561.7z"/>
		</g>
	</g>
	<g>
		<g>
			<path class="st29" d="M963.1,518c0.3-2.2,0.9-4.2,1.8-6.2c0.4-0.9-0.9-1.6-1.3-0.8c-1,2.1-1.6,4.3-2,6.6
				C961.6,518.5,963,518.9,963.1,518L963.1,518z"/>
		</g>
	</g>
	<g>
		<g>
			<path class="st29" d="M967,515.8c0.8-1.6,2-2.9,3.3-4.1c0.7-0.6-0.3-1.7-1.1-1.1c-1.5,1.2-2.7,2.7-3.6,4.4
				C965.3,515.9,966.5,516.7,967,515.8L967,515.8z"/>
		</g>
	</g>
	<g>
		<g>
			<path class="st29" d="M965.9,529.7c-0.4-1.2-1-2.3-1.6-3.4c-0.2-0.3-2.1-2.7-2.2-2.7c0.6-0.8-0.7-1.5-1.3-0.8
				c-0.7,1,0.3,1.9,0.9,2.6c1.2,1.4,2.1,2.9,2.7,4.6C964.8,531,966.2,530.6,965.9,529.7L965.9,529.7z"/>
		</g>
	</g>
	<g>
		<g>
			<path class="st29" d="M967.4,525.1c0.5-2.4,1.4-4.6,2.9-6.6c0.6-0.8-0.7-1.5-1.3-0.8c-1.5,2.1-2.5,4.4-3,7
				C965.7,525.6,967.2,526.1,967.4,525.1L967.4,525.1z"/>
		</g>
	</g>
	<g>
		<g>
			<path class="st29" d="M967.9,542.6c0.1-2.2,0.2-4.4,0.3-6.6c0.1-1-1.4-1-1.5,0c-0.1,2.2-0.2,4.4-0.3,6.6
				C966.3,543.6,967.8,543.6,967.9,542.6L967.9,542.6z"/>
		</g>
	</g>
	<g>
		<g>
			<path class="st29" d="M971,547.8c0-1.4,0.2-2.8,0.5-4.2c0.2-0.9-1.2-1.3-1.4-0.4c-0.4,1.5-0.6,3.1-0.6,4.6
				C969.5,548.8,971,548.8,971,547.8L971,547.8z"/>
		</g>
	</g>
	<g>
		<g>
			<path class="st29" d="M980.5,553.1c-2.4-1.6-4.9-3.2-7.3-4.9c-0.8-0.5-1.6,0.8-0.8,1.3c2.4,1.6,4.9,3.2,7.3,4.9
				C980.5,554.9,981.3,553.6,980.5,553.1L980.5,553.1z"/>
		</g>
	</g>
	<g>
		<g>
			<path class="st29" d="M983.8,553.7c0-0.4,0-0.7,0-1.1c0-1-1.5-1-1.5,0c0,0.4,0,0.7,0,1.1C982.3,554.6,983.8,554.6,983.8,553.7
				L983.8,553.7z"/>
		</g>
	</g>
	<path class="st30" d="M972.7,619.3c0,0,7.5-15,14.5-1.6c0,0-1.1-13.9,3.8-8.6c4.8,5.4,4.3,5.9,4.3,5.9s5.4-13.4,9.6-6.4
		c4.3,7,5.9-1.1,6.4,1.6s9.6,4.3,3.2,7.5S974.4,620.9,972.7,619.3z"/>
	<g>
		<g>
			<path class="st27" d="M979.4,617.6c0-0.1,0.3-1.3,0.2-1.4c-0.6,0.2-0.7,0.3-0.2,0.4c0.2,0.1,0.4,0.2,0.6,0.2
				c1,0.4,2.1,0.8,3.1,1.2c1.8,0.7,2.6-2.2,0.8-2.9c-0.9-0.3-1.8-0.7-2.7-1c-0.7-0.3-1.5-0.7-2.4-0.6c-1.9,0.1-2.1,1.8-2.4,3.3
				C976.1,618.7,979,619.5,979.4,617.6L979.4,617.6z"/>
		</g>
	</g>
	<g>
		<g>
			<path class="st27" d="M990.9,618.9c0.7-0.8,2.4-2,3.5-1.2c0.7,0.5,1.7,0.1,2.1-0.5c0.5-0.8,0.1-1.6-0.5-2.1
				c-2.2-1.6-5.5-0.1-7.1,1.7C987.5,618.2,989.6,620.3,990.9,618.9L990.9,618.9z"/>
		</g>
	</g>
	<g>
		<g>
			<path class="st27" d="M1003.9,615.1c0.2-1.4,2-1.3,2.4-0.1c0.6,1.8,3.5,1.1,2.9-0.8c-0.6-2-2.4-3.4-4.5-3.1c-2.1,0.2-3.5,2-3.8,4
				c-0.1,0.8,0.8,1.5,1.5,1.5C1003.2,616.6,1003.8,615.9,1003.9,615.1L1003.9,615.1z"/>
		</g>
	</g>
</g>
<g>
	<g>
		<g>
			<path class="st27" d="M644.3,579.6c0,0-0.3,0.2-0.3,0.2c0.1,0,0.2,0,0.3,0c0.4,0,0.2,0-0.5-0.3c-0.1-0.2-0.3-0.4-0.4-0.7
				c0,0,0,0.1,0,0.1c0-0.3,0-0.5,0-0.8c0,0,0,0.1,0,0.1c-0.2,0.8,0.2,1.7,1,1.8c0.8,0.2,1.6-0.2,1.8-1c0.2-0.7,0-1.3-0.5-1.8
				c-0.4-0.4-1-0.5-1.6-0.5c-1.1,0-2.1,0.3-2.6,1.3c-0.4,0.7-0.2,1.6,0.5,2.1C642.9,580.5,643.9,580.3,644.3,579.6L644.3,579.6z"/>
		</g>
	</g>
	<g>
		<g>
			<path class="st27" d="M644.1,579.9C644,580,644.3,579.8,644.1,579.9c0.5-0.2-0.2,0,0.3-0.1c0,0,0.5-0.1,0.3-0.1
				c0.1,0,0.1,0,0.2,0c0.6,0,0.4-0.3-0.5-1.1c-0.3,0.8,0.3,1.6,1,1.8c0.8,0.2,1.6-0.3,1.8-1c0.3-0.7,0-1.5-0.5-2.1
				c-0.5-0.5-1.3-0.7-2-0.6c-1.3,0.1-2.4,0.6-3.2,1.7c-0.5,0.7-0.1,1.7,0.5,2.1C642.8,580.9,643.7,580.6,644.1,579.9L644.1,579.9z"
				/>
		</g>
	</g>
	<path class="st28" d="M663.5,537.1c-3.3-0.7-3.1,2.4-3.3,3.1c-0.2,0.7-1.4,8-2.1,12.2c-0.5,2.7-2.4,3.7-3.7,4
		c0.6-5.5,1.2-11.3,1.6-12.7c0.7-2.8,1.4-13.2-0.7-14.3c-2.1-1.2-6.8-2.4-8.9,6.8c-0.7,2.9-0.7,8.1-0.5,14c-2.1,0.4-6.2,0.4-6.3-5.7
		c-0.2-8.2,1.2-9.6,1.2-10.6c0-0.9-7.8-6.6-6.6,3.3c1.2,9.9,5.6,13.9,8,14.6c1.3,0.4,2.6,0.7,3.8,0.7c0.6,12.1,2.3,25.6,2.3,25.6
		s4,0.9,3.5,0c-0.5-0.9,0.9-7.5,1.4-10.3c0.2-0.9,0.4-3.6,0.8-6.9c2.6,0.3,7.6-6.5,9.3-8.2c1.9-1.9,2.6-9.2,3.3-10.8
		C667.3,540.2,666.8,537.8,663.5,537.1z"/>
	<g>
		<g>
			<path class="st29" d="M648.8,531.9c-0.1,0.5-0.2,1-0.3,1.5c-0.1,1,1.4,1,1.5,0c0-0.4,0.1-0.8,0.2-1.1
				C650.5,531.4,649.1,531,648.8,531.9L648.8,531.9z"/>
		</g>
	</g>
	<g>
		<g>
			<path class="st29" d="M651.9,530c-0.1,0.9-0.2,1.9-0.2,2.8c0,1,1.5,1,1.5,0c0-0.8,0-1.6,0.1-2.4c0.1-0.4-0.1-0.8-0.5-0.9
				C652.5,529.4,652,529.6,651.9,530L651.9,530z"/>
		</g>
	</g>
	<g>
		<g>
			<path class="st29" d="M654.4,535.1c-0.1,0.4-0.2,0.9-0.3,1.3c-0.2,0.9,1.2,1.3,1.4,0.4c0.1-0.4,0.2-0.9,0.3-1.3
				C656.1,534.6,654.6,534.2,654.4,535.1L654.4,535.1z"/>
		</g>
	</g>
	<g>
		<g>
			<path class="st29" d="M650.1,535.1c-0.1,0.5-0.2,1-0.3,1.5c-0.2,0.9,1.3,1.4,1.4,0.4c0.1-0.5,0.2-1,0.3-1.5
				C651.7,534.6,650.3,534.2,650.1,535.1L650.1,535.1z"/>
		</g>
	</g>
	<g>
		<g>
			<path class="st29" d="M648,538c0.1,0.3,0,0.6,0,0.9c-0.1,1,1.4,1,1.5,0c0-0.4,0-0.9-0.1-1.3C649.2,536.7,647.8,537.1,648,538
				L648,538z"/>
		</g>
	</g>
	<g>
		<g>
			<path class="st29" d="M648.5,542c0,0.6,0,1.2,0,1.8c0,1,1.5,1,1.5,0c0-0.6,0-1.2,0-1.8C650,541,648.5,541,648.5,542L648.5,542z"
				/>
		</g>
	</g>
	<g>
		<g>
			<path class="st29" d="M647,544.8c0,0.4,0,0.9,0,1.3c0,1,1.5,1,1.5,0c0-0.4,0-0.9,0-1.3C648.5,543.9,647,543.9,647,544.8
				L647,544.8z"/>
		</g>
	</g>
	<g>
		<g>
			<path class="st29" d="M651.9,539.2c-0.4,1.1-0.4,2.1-0.3,3.2c0.1,0.4,0.6,0.6,0.9,0.5c0.4-0.1,0.6-0.5,0.5-0.9
				c-0.1-0.8,0-1.6,0.3-2.4C653.7,538.7,652.2,538.3,651.9,539.2L651.9,539.2z"/>
		</g>
	</g>
	<g>
		<g>
			<path class="st29" d="M653,541.5c0,0.5-0.1,1-0.1,1.6c-0.1,1,1.4,1,1.5,0c0-0.5,0.1-1,0.1-1.6C654.6,540.6,653.1,540.6,653,541.5
				L653,541.5z"/>
		</g>
	</g>
	<g>
		<g>
			<path class="st29" d="M651,548.1c-0.1,0.7-0.2,1.3-0.3,2c-0.1,0.4,0.1,0.8,0.5,0.9c0.4,0.1,0.9-0.1,0.9-0.5
				c0.1-0.7,0.2-1.3,0.3-2c0.1-0.4-0.1-0.8-0.5-0.9C651.5,547.5,651,547.7,651,548.1L651,548.1z"/>
		</g>
	</g>
	<g>
		<g>
			<path class="st29" d="M649.3,545.8c0,0.7-0.1,1.3-0.1,2c0,1,1.5,1,1.5,0c0-0.7,0.1-1.3,0.1-2
				C650.8,544.8,649.3,544.8,649.3,545.8L649.3,545.8z"/>
		</g>
	</g>
	<g>
		<g>
			<path class="st29" d="M647.6,549.7c0,0.6,0,1.2,0,1.8c0,1,1.5,1,1.5,0c0-0.6,0-1.2,0-1.8C649.1,548.7,647.6,548.7,647.6,549.7
				L647.6,549.7z"/>
		</g>
	</g>
	<g>
		<g>
			<path class="st29" d="M652.8,545.4c-0.1,0.4-0.1,0.9-0.1,1.3c0.1,1,1.6,1,1.5,0c0-0.3,0-0.6,0-0.9
				C654.4,544.9,653,544.5,652.8,545.4L652.8,545.4z"/>
		</g>
	</g>
	<g>
		<g>
			<path class="st29" d="M653,551.8c-0.3,1-0.5,2-0.6,3.1c-0.1,1,1.4,1,1.5,0c0.1-0.9,0.3-1.8,0.5-2.7
				C654.7,551.2,653.3,550.8,653,551.8L653,551.8z"/>
		</g>
	</g>
	<g>
		<g>
			<path class="st29" d="M649.5,554.2c0,0.7-0.1,1.3-0.2,2c-0.2,0.9,1.2,1.3,1.4,0.4c0.2-0.8,0.3-1.6,0.3-2.4
				C651,553.2,649.5,553.2,649.5,554.2L649.5,554.2z"/>
		</g>
	</g>
	<g>
		<g>
			<path class="st29" d="M647.7,557.8c-0.1,1,0,2.1,0,3.1c0.1,1,1.6,1,1.5,0c-0.1-1-0.1-2.1,0-3.1
				C649.2,556.9,647.7,556.9,647.7,557.8L647.7,557.8z"/>
		</g>
	</g>
	<g>
		<g>
			<path class="st29" d="M650.5,559.3c-0.2,0.8-0.3,1.5-0.3,2.3c0,1,1.5,1,1.5,0c0-0.7,0.1-1.3,0.3-1.9
				C652.2,558.7,650.8,558.3,650.5,559.3L650.5,559.3z"/>
		</g>
	</g>
	<g>
		<g>
			<path class="st29" d="M651.5,561.3c0,1.5,0.1,2.9,0.1,4.4c0,1,1.5,1,1.5,0c0-1.5-0.1-2.9-0.1-4.4
				C652.9,560.3,651.4,560.3,651.5,561.3L651.5,561.3z"/>
		</g>
	</g>
	<g>
		<g>
			<path class="st29" d="M647.9,563.1c0,1,0.1,2,0.3,2.9c0.2,0.9,1.6,0.5,1.4-0.4c-0.2-0.8-0.2-1.7-0.2-2.5
				C649.4,562.1,647.9,562.1,647.9,563.1L647.9,563.1z"/>
		</g>
	</g>
	<g>
		<g>
			<path class="st29" d="M650.3,565.8c0,0.8,0,1.6,0,2.4c0.1,1,1.6,1,1.5,0c0-0.8,0-1.6,0-2.4C651.9,564.8,650.4,564.8,650.3,565.8
				L650.3,565.8z"/>
		</g>
	</g>
	<g>
		<g>
			<path class="st29" d="M649,569.2c-0.1,0.6-0.2,1.2-0.3,1.9c-0.1,0.4,0.1,0.8,0.5,0.9c0.4,0.1,0.9-0.1,0.9-0.5
				c0.1-0.6,0.2-1.2,0.3-1.9c0.1-0.4-0.1-0.8-0.5-0.9C649.5,568.5,649,568.8,649,569.2L649,569.2z"/>
		</g>
	</g>
	<g>
		<g>
			<path class="st29" d="M649.9,570.9c-0.1,1-0.2,2.1-0.4,3.1c-0.1,1,1.4,0.9,1.5,0c0.1-1,0.2-2.1,0.4-3.1
				C651.5,569.9,650,569.9,649.9,570.9L649.9,570.9z"/>
		</g>
	</g>
	<g>
		<g>
			<path class="st29" d="M654.6,556.8c-0.2,0.9-0.4,1.8-0.3,2.8c0,1,1.5,1,1.5,0c0-0.8,0.1-1.6,0.3-2.4
				C656.3,556.3,654.8,555.9,654.6,556.8L654.6,556.8z"/>
		</g>
	</g>
	<g>
		<g>
			<path class="st29" d="M657.4,555.6c-0.3,0.4-0.4,0.8-0.6,1.2c-0.2,0.9,1.2,1.3,1.4,0.4c0.1-0.3,0.2-0.6,0.4-0.8
				c0.2-0.3,0.1-0.8-0.3-1C658,555.1,657.6,555.3,657.4,555.6L657.4,555.6z"/>
		</g>
	</g>
	<g>
		<g>
			<path class="st29" d="M658.8,549c-0.1,0.9-0.1,1.8-0.2,2.7c-0.1,1,1.4,1,1.5,0c0.1-0.9,0.1-1.8,0.2-2.7
				C660.3,548,658.8,548,658.8,549L658.8,549z"/>
		</g>
	</g>
	<g>
		<g>
			<path class="st29" d="M659.8,547.1c0.2,0.4,0.3,0.7,0.1,1.1c-0.3,0.9,1.1,1.3,1.4,0.4c0.3-0.8,0.2-1.6-0.3-2.3
				C660.6,545.5,659.3,546.3,659.8,547.1L659.8,547.1z"/>
		</g>
	</g>
	<g>
		<g>
			<path class="st29" d="M660.6,542.5c0.2,0.4,0.3,0.7,0.3,1.1c0,1,1.5,1,1.5,0c0-0.7-0.2-1.3-0.5-1.9
				C661.4,541,660.1,541.7,660.6,542.5L660.6,542.5z"/>
		</g>
	</g>
	<g>
		<g>
			<path class="st29" d="M662.1,537.9c-0.1,0.8-0.1,1.7-0.2,2.5c-0.1,1,1.4,1,1.5,0c0.1-0.8,0.1-1.7,0.2-2.5
				C663.7,537,662.2,537,662.1,537.9L662.1,537.9z"/>
		</g>
	</g>
	<g>
		<g>
			<path class="st29" d="M664,539c-0.5,0.9-0.8,1.8-1.1,2.7c-0.3,0.9,1.2,1.3,1.4,0.4c0.2-0.8,0.6-1.6,1-2.3
				C665.7,538.9,664.4,538.1,664,539L664,539z"/>
		</g>
	</g>
	<g>
		<g>
			<path class="st29" d="M663.7,546.1c0.7-0.5,1.2-1.2,1.7-1.9c0.5-0.8-0.8-1.6-1.3-0.8c-0.4,0.6-0.9,1.1-1.5,1.6
				C661.9,545.6,663,546.7,663.7,546.1L663.7,546.1z"/>
		</g>
	</g>
	<g>
		<g>
			<path class="st29" d="M662.3,550.7c0.8-0.9,1.3-1.8,1.7-2.9c0.1-0.4-0.2-0.8-0.5-0.9c-0.4-0.1-0.8,0.1-0.9,0.5
				c-0.3,0.8-0.8,1.6-1.4,2.2C660.6,550.3,661.6,551.4,662.3,550.7L662.3,550.7z"/>
		</g>
	</g>
	<g>
		<g>
			<path class="st29" d="M660.3,554.7c0.2-0.6,0.5-1.1,1-1.5c0.3-0.3,0.3-0.8,0-1.1c-0.3-0.3-0.7-0.2-1.1,0
				c-0.7,0.6-1.2,1.3-1.4,2.2C658.6,555.3,660,555.7,660.3,554.7L660.3,554.7z"/>
		</g>
	</g>
	<g>
		<g>
			<path class="st29" d="M636.7,535.5c0.1-0.9,0.4-1.8,0.7-2.6c0.4-0.9-0.9-1.6-1.3-0.8c-0.4,1-0.8,1.9-0.9,3
				c-0.1,0.4,0.1,0.8,0.5,0.9C636.1,536.2,636.6,535.9,636.7,535.5L636.7,535.5z"/>
		</g>
	</g>
	<g>
		<g>
			<path class="st29" d="M638.3,534.7c0.4-0.7,0.8-1.2,1.4-1.7c0.7-0.6-0.3-1.7-1.1-1.1c-0.7,0.6-1.2,1.2-1.6,2
				C636.6,534.8,637.9,535.5,638.3,534.7L638.3,534.7z"/>
		</g>
	</g>
	<g>
		<g>
			<path class="st29" d="M637.9,540.5c-0.2-0.6-0.4-1.1-0.8-1.6c-0.1-0.2-0.3-0.4-0.5-0.6c-0.1-0.1-0.2-0.3-0.3-0.4
				c0,0-0.1-0.1-0.1-0.1c-0.2-0.2-0.2-0.1,0,0.4c0.6-0.8-0.7-1.5-1.3-0.8c-0.5,0.6,0.1,1.2,0.5,1.6c0.5,0.5,0.8,1.2,1.1,1.9
				C636.7,541.8,638.2,541.4,637.9,540.5L637.9,540.5z"/>
		</g>
	</g>
	<g>
		<g>
			<path class="st29" d="M638.5,538.7c0.2-1,0.6-1.9,1.2-2.8c0.6-0.8-0.7-1.5-1.3-0.8c-0.7,0.9-1.1,2-1.4,3.2
				C636.9,539.2,638.3,539.6,638.5,538.7L638.5,538.7z"/>
		</g>
	</g>
	<g>
		<g>
			<path class="st29" d="M638.7,546.2c0.1-1,0.1-1.9,0.2-2.9c0.1-1-1.4-1-1.5,0c-0.1,1-0.1,1.9-0.2,2.9
				C637.2,547.2,638.7,547.2,638.7,546.2L638.7,546.2z"/>
		</g>
	</g>
	<g>
		<g>
			<path class="st29" d="M640.1,548.5c0-0.6,0.1-1.2,0.2-1.8c0.2-0.9-1.2-1.3-1.4-0.4c-0.2,0.7-0.3,1.4-0.3,2.2
				C638.6,549.5,640.1,549.5,640.1,548.5L640.1,548.5z"/>
		</g>
	</g>
	<g>
		<g>
			<path class="st29" d="M644.1,550.5c-1.1-0.7-2.1-1.4-3.2-2.1c-0.8-0.5-1.6,0.8-0.8,1.3c1.1,0.7,2.1,1.4,3.2,2.1
				C644.1,552.3,644.9,551,644.1,550.5L644.1,550.5z"/>
		</g>
	</g>
	<g>
		<g>
			<path class="st29" d="M645.7,551.1c0-0.2,0-0.3,0-0.5c0-1-1.5-1-1.5,0c0,0.2,0,0.3,0,0.5C644.2,552.1,645.7,552.1,645.7,551.1
				L645.7,551.1z"/>
		</g>
	</g>
	<path class="st30" d="M640.5,579.9c0,0,3.3-6.6,6.4-0.7c0,0-0.5-6.1,1.6-3.8c2.1,2.4,1.9,2.6,1.9,2.6s2.4-5.9,4.2-2.8
		s2.6-0.5,2.8,0.7c0.2,1.2,4.2,1.9,1.4,3.3S641.2,580.6,640.5,579.9z"/>
	<g>
		<g>
			<path class="st27" d="M644.2,579.4c0-0.1,0-0.3,0.1-0.4c0.1-0.4,0.1-0.1-0.2,0.1c-0.2,0.1-0.4,0.3-0.7,0.4c-0.4,0-0.5,0-0.3,0
				c0.1,0,0.2,0.1,0.2,0.1c0.2,0.1,0.3,0.1,0.5,0.2c0.3,0.1,0.7,0.2,1,0.4c0.7,0.3,1.7-0.3,1.8-1c0.2-0.8-0.3-1.6-1-1.8
				c-0.8-0.3-1.6-0.8-2.4-0.7c-0.6,0-1.2,0.3-1.5,0.9c-0.2,0.4-0.3,0.8-0.3,1.2c-0.1,0.8,0.2,1.7,1,1.8
				C643.1,580.6,644,580.2,644.2,579.4L644.2,579.4z"/>
		</g>
	</g>
	<g>
		<g>
			<path class="st27" d="M649,580.3c0.1-0.1,0.2-0.2,0.3-0.3c-0.3,0.2,0.3-0.1,0.1-0.1c-0.2,0.1,0.4-0.1,0.2,0c-0.1,0-0.1,0,0.1,0
				c-0.4-0.1-0.4-0.1-0.2,0c0.7,0.5,1.7,0.1,2.1-0.5c0.4-0.8,0.1-1.6-0.5-2.1c-1.3-0.9-3.2-0.2-4.2,0.9c-0.5,0.6-0.6,1.5,0,2.1
				C647.5,580.9,648.5,580.9,649,580.3L649,580.3z"/>
		</g>
	</g>
	<g>
		<g>
			<path class="st27" d="M655,578.1c0,0.1,0,0.2-0.1,0.3c-0.1,0.1-0.1,0.1,0,0c0,0-0.1,0.1-0.2,0.1c-0.1,0-0.2,0-0.3-0.1
				c-0.1-0.1,0,0,0.1,0.1c-0.1,0-0.1-0.1-0.1-0.2c0.2,0.8,1,1.3,1.8,1c0.8-0.2,1.3-1.1,1-1.8c-0.4-1.2-1.6-2.2-2.9-2
				c-1.4,0.2-2.2,1.3-2.4,2.6c-0.1,0.8,0.8,1.5,1.5,1.5C654.4,579.5,654.9,578.9,655,578.1L655,578.1z"/>
		</g>
	</g>
</g>
</svg>
