<?xml version="1.0" encoding="utf-8"?>
<!-- Generator: Adobe Illustrator 22.0.1, SVG Export Plug-In . SVG Version: 6.00 Build 0)  -->
<svg version="1.1" id="Layer_1" xmlns="http://www.w3.org/2000/svg" xmlns:xlink="http://www.w3.org/1999/xlink" x="0px" y="0px"
	 width="309px" height="368px" viewBox="0 0 309 368" style="enable-background:new 0 0 309 368;" xml:space="preserve">
<style type="text/css">
	.st0{fill:#492920;}
	.st1{fill:#7C4735;}
	.st2{fill:#EFB27B;}
	.st3{fill:none;stroke:#000000;stroke-miterlimit:10;}
	.st4{fill:#B7AEA1;}
	.st5{fill:#720F35;}
	.st6{fill:#44413F;}
	.st7{fill:none;stroke:#492920;stroke-miterlimit:10;}
</style>
<g>
	<path class="st0" d="M35.8,294c-1,2.8-1.9,5.6-3.3,8c-7-6-24.6-7.4-7,6c7.4,2.4,17.8,2.9,16.7-5.6C39.9,299.1,35.8,294,35.8,294z"
		/>
	<path class="st0" d="M24.5,321"/>
	<path class="st1" d="M149.5,318c-16,1-55,13.3-68,10S15,319.5,36,249.2s39-113.6,40-126.7s7-58,8-60.5c1-2.5,25-45,79-13.1
		c12,9,21,24.5,25,35.1s17,36.8,15,44.1c-2,7.4-3,11.4-21,6.5c-18-4.9-43-7.4-28,18.8s25,21.3,27,18.8c2-2.5,21-19.6,30-7.4
		c9,12.3,7,25.3,13,33.5c1.9,2.5,9.4,8.8,18.7,17.5c20.6,19.2,49.5,50,43.3,78.2C277,335,188.5,315.5,149.5,318z"/>
	<path class="st2" d="M226.6,238.4c-3,4.6-5.5,11.2-9.4,14.9c-3.9,3.7-39.2,16.6-29.3,40s25,24.9,41.6,26.7c18,2,77.4-6.2,55.1-51.6
		s-46.7-44.5-49.1-43.1c-2.4,1.5-6.7,1.9-7.9,7.5L226.6,238.4z"/>
	<path class="st2" d="M234.5,340"/>
	<ellipse cx="280" cy="290.9" rx="3" ry="5.7"/>
	<ellipse cx="181.5" cy="82.9" rx="3.5" ry="6.1"/>
	<path class="st3" d="M183,101.3c-5,6.5-8,14.7,0,13.1c1.8-0.4,3.5-0.5,5-0.5c5.5-0.2,8.9,0.4,5-6c-5-8.2-4-11.4-7-9
		C183,101.3,183,101.3,183,101.3z"/>
	<path class="st3" d="M188,111.1c0,1.6,2,6.5,0,7.4c-2,0.8-5,0.8-6-0.8"/>
	<path class="st4" d="M193,138.9c-3.7,4.6-6,7.4-12,3.3c-6-4.1,2-11.4,4-12.3S195,136.4,193,138.9z"/>
	<path class="st4" d="M171,127.4c2.9,2.4,1,9.8,0,11.4s-9,3.3-12,0s-6-11.4-2-12.3S168,125,171,127.4z"/>
	<path class="st5" d="M201,165c-3-2.5-15-12.3-27-11.4s-19,4.1-19,7.4c0,3.3,7,22.1,21,18C190,174.8,204,167.5,201,165z"/>
	<line class="st3" x1="174" y1="167.5" x2="182" y2="154.4"/>
	<path class="st2" d="M156,112.7c-10,8.2-19.5,8.3-18.5,52.3c0.5,24.1,8.1,35.4,30,35c8-0.1,19.5-5,27-9s26.5-11.3,21.5-18.6
		s-9.7-9.7-13.8-10.6S181,173.2,176,173.2S137,146,150,134c13-12,43.3,8.4,44.1,3c0.9-5.4,9.9,0.3,8.9-8.7
		c-0.4-3.4-1.3-8.1-3.1-13.2c-2.9-8.5-8.2-17.9-16.9-23.6c-8,2.5-12,11.4-17,16.3S156,112.7,156,112.7z"/>
	<path class="st3" d="M197.5,117c0,0,0.8,7.6-5.1-4.2"/>
	<path d="M203,130.7c0,0-0.2,11.5-25.9,2.4s-29.1,4.4-29.9,5.6c-1.7,2.2,19.3,35.2,28.3,33.2c16.4-4,16.6-9.5,22-10.5
		c5.5-1,8.5-0.6,10.5,0.7s-3,12.3-22,14.3s-25,1-34-13s-13-34-5-39s34,0,38,1s16,1,17,3S202,129,203,130.7z"/>
	<path d="M170.5,180"/>
	<path class="st1" d="M101,75.1c-3-2.5-16-15.5-20-20.4s-9-22.9,10-25.3s33,22.1,33,22.1C101,75.1,101,75.1,101,75.1z"/>
	<path class="st2" d="M115,52.2c0,0-9-12.3-19-10.6c-10,1.6-6,9.8-6,10.6s10,11.4,11,9.8S116,53.9,115,52.2z"/>
	<path class="st1" d="M152,46.5c-1-3.3-12-21.3-20-24.5s-16-3.3-17,2.5s2,17.2,8,19.6C129,46.5,152,46.5,152,46.5z"/>
	<path class="st0" d="M168.4,73.1c-6-3.5-12,0-14.2-0.7c-2.5,1.4-7.3,3.5,3.1,4.5s10,3,12.8,2.4C172.8,78.7,170.9,74.5,168.4,73.1z"
		/>
	<path class="st0" d="M173.2,72.7c0.5-2.7,3.8-3.2,4.2-4c1.3-0.2,3.7-0.8,0.8,2.2c-2.9,3-2,3.6-3.1,4.2
		C174,75.6,173,73.8,173.2,72.7z"/>
	<ellipse transform="matrix(0.7071 -0.7071 0.7071 0.7071 -12.8558 144.9148)" cx="168.5" cy="88" rx="6.3" ry="4.5"/>
	<path d="M185.4,97.5c0.6,0.4,6.9,5,9.1,10.7c0.1,0.2,0.7,1.9,0.7,3.1c-0.1,1.8-1.6,0.2-2.8,1.4c-0.8,0.8-0.4,1.8-1.3,2.1
		c-0.2,0-1.6,0.5-2.8-1.3c-0.9-1.4-0.9-2.8-2.1-7.3c-1.5-5.7-2.9-8.7-2.2-9.3C184.1,96.7,184.4,96.8,185.4,97.5z"/>
	<path class="st3" d="M192.5,111c0,0,0,3,2,7s-4,3-4,1"/>
	<g>
		<path class="st6" d="M427.5,139.6c0,0,0.6-3.9-1.1-3.1s-3.9,3.8-6.1,3.5C418,139.6,427.5,139.6,427.5,139.6z"/>
	</g>
</g>
<path class="st7" d="M95.3,258.6l-18.5-3.3l11.6,12.4l-2.6,21.4l13.1-16.9l-2,27.4l11.5-11.3c0,0,7.3,0.1,8.8,1.8
	c1.5,1.7-2.3-8.7-2.3-8.7"/>
<polyline class="st7" points="111.5,107.5 107.5,126.5 103.5,113.5 101.5,135.5 96.5,119.5 96.5,148.5 90.5,134.5 "/>
</svg>
