<?xml version="1.0" encoding="utf-8"?>
<!-- Generator: Adobe Illustrator 22.0.1, SVG Export Plug-In . SVG Version: 6.00 Build 0)  -->
<svg version="1.1" id="Layer_1" xmlns="http://www.w3.org/2000/svg" xmlns:xlink="http://www.w3.org/1999/xlink" x="0px" y="0px"
	 width="288.8px" height="263.9px" viewBox="0 0 288.8 263.9" style="enable-background:new 0 0 288.8 263.9;" xml:space="preserve"
	>
<style type="text/css">
	.st0{fill:#492920;}
	.st1{fill:none;stroke:#000000;stroke-miterlimit:10;}
	.st2{fill:#7C4735;}
	.st3{fill:#EFB27B;}
	.st4{fill:#380A21;stroke:#000000;stroke-miterlimit:10;}
	.st5{fill:#E5E1DC;}
</style>
<path class="st0" d="M132.4,226.8c3.4,9.3,12.1,17.1,4.7,19.4s-12.3-2.5-11.2-11.1C128.3,231.9,132.4,226.8,132.4,226.8z"/>
<path class="st1" d="M160.9,293.8"/>
<path class="st2" d="M236.5,147.7c-10.6-14-30.8-46.2-35.8-56c-2.9-5.7-4.7-19.8-9.9-33.1c1.5-2.3,3.5-5.2,6.6-8.4
	c6.2-6.5,5-17.7,5.6-20.1s-3.9-8.9-16.8-7.9c-7.6,0.6-12.3,6.8-14.8,11.8c-19.1-10-51.3-2.2-58.5-0.3c-3.3-3.2-7.9-7.2-9-7.8
	c-1.7-0.9-15.1-9.3-21.8,2.3c-5.6,9.7,7.3,22.8,11.9,27.1c-4.9,8.1-10.6,18.4-19.2,32.7c-18.5,30.8-53.8,73.3-65,111.6
	c-0.6,43.4,17.4,37.8,66.6,34.5s80.1,8.4,152.3,8.9S247.2,161.7,236.5,147.7z"/>
<path class="st3" d="M106.1,36.6c0,0-9,11.2-10.6,11.2c-1.7,0-8.4-8.4-4.5-13.1S99.9,28.6,106.1,36.6z"/>
<path class="st3" d="M177.2,37.5c0,0,7.3,9.8,8.4,10.7c1.1,0.9,17.4-10.7,9-15.4C186.1,28.1,177.2,37.5,177.2,37.5z"/>
<path class="st3" d="M104.9,151.9c-23.4,4.4-42,20.5-48.2,32.2c-6.2,11.7-11.8,27.5-4.5,33.1s21.8,12.1,38.6,8.4s36.4-8.4,50.4-6.5
	c14,1.9,35.8,7.5,43.1,6.1c7.3-1.4,23.5-3.7,14-21s-30.8-50.9-58.8-52.3C111.7,150.5,117.3,149.5,104.9,151.9z"/>
<ellipse cx="123.7" cy="192" rx="5.9" ry="5.1"/>
<path class="st3" d="M108.3,95.4c-6.1,5.8-6.9,4.5-17.9,12.6c-14.4,10.7-22.3,16.5-21.3,23.3c1,7,10.7,11,11.2,11.2
	c9.6,3.8,15.9-1.3,34.2-2.3c14.1-0.8,25.6,1.3,30.8,2.3c18.5,3.5,22,8.4,31.4,7c8.9-1.4,18.8-6.9,21.3-14.9
	c3.2-10.3-7.4-19.9-12.3-24.3c-9.1-8.1-12.9-5.7-24.6-14C145,85,142.5,73.7,134.1,74.4c-2.4,0.2-5,2.1-10.1,6.1
	C116.2,86.4,113.5,90.4,108.3,95.4z"/>
<path d="M98.8,108.4c0,0-0.7,0.2-1.9,0.6c-3.8,1.4-12.1,4.9-13.8,9.2c-2.2,5.6-6.7,11.7,0,14c6.7,2.3,14.6,1.4,20.2,0.9
	c5.6-0.5,25.2-2.8,32.5-0.9c7.3,1.9,20.2,7,25.8,7.5c5.6,0.5,25.8-1.4,23.5-11.7s-2.8-19.1-15.7-19.6s-22.4,5.1-31.4,3.7
	c-9-1.4-26.9-5.6-33-4.7C98.8,108.4,98.8,108.4,98.8,108.4z"/>
<path class="st4" d="M107.2,112.6c0,0-12.9,2.3-17.4,5.6c-4.5,3.3-6.7,6.5-5,8.9c1.7,2.3,7.3,4.7,17.4,2.3
	c10.1-2.3,32.5-4.2,47.6,0.9c15.1,5.1,22.4,4.2,25.2,0.5c2.8-3.7,6.2-13.1-5-15.4s-21.8,0.9-33,0.9
	C125.7,116.4,113.9,111.2,107.2,112.6z"/>
<path class="st5" d="M122.9,115c0,0-0.6,5.6-0.6,6.5c0,0.9,6.7,0.5,6.7-0.9c0-1.4,1.1-6.5,0-6.5C127.9,114,122.9,113.1,122.9,115z"
	/>
<path class="st5" d="M133.5,114.5c0,0,0.6,6.1,1.7,7c1.1,0.9,8.4-0.5,9-0.9c0.6-0.5-2.8-7.5-3.9-7S133.5,113.1,133.5,114.5z"/>
<path d="M131.3,80.4c-0.8,0.5-10.2,5.7-8.4,10.3c0.1,0.1,0.6,1.6,2.2,2.3c2.3,1.1,4.1-0.4,8.4,0c2.9,0.3,3.1,1.1,5.6,0.9
	c0.4,0,4.3-0.2,5-1.9c0.5-1.2-1.2-2.2-3.9-5.6c-3.5-4.3-3.9-6.8-6.2-7C133.4,79.4,132.8,79.6,131.3,80.4z"/>
<path class="st1" d="M125.7,98.2c0,0,0,8.4,6.7,1.9c2.8-6.5,0-7.9,0-7.9s-0.6,7.9,0,9.3c0.6,1.4,7.3,3.7,8.4-0.9"/>
<ellipse cx="117" cy="68.3" rx="7" ry="6.1"/>
<ellipse cx="149.7" cy="69.2" rx="7.3" ry="6.1"/>
<path class="st0" d="M112.8,46.8c3.8-0.9,7.1,0,10.6,0.9c2.2,0.6,4.8,1.3,7.3,3.3c1.3,1,3.8,2.9,3.4,5.1c-0.3,1.4-1.5,2.2-1.7,2.3
	c-1.4,0.9-3.2,0.9-4.5,0.5c-2-0.7-1.8-2.1-3.9-3.7c-2.2-1.7-4.8-2.1-6.7-2.3c-2.1-0.3-5-0.7-7.8,0.5c-1.3,0.5-2.1,1.2-2.8,0.9
	c-0.8-0.3-0.9-1.8-0.6-2.8C107,48.3,112.2,47,112.8,46.8z"/>
<path class="st0" d="M164.9,47.3c-4.8-0.7-9,0.8-11.8,1.9c-1.4,0.5-2.6,1.1-5,2.3c-2.9,1.4-3.7,2-4.5,2.8c-0.8,0.8-2.4,2.4-1.7,3.7
	c0.6,1.1,2.4,1.6,3.9,1.4c2.4-0.3,2.4-2.2,5-3.7c2.3-1.3,4.9-1.3,10.1-1.4c3.5-0.1,4.7,0.3,6.7-0.5c1.5-0.5,4-1.8,3.9-3.3
	C171.4,48.8,167.2,47.6,164.9,47.3z"/>
</svg>
