<?xml version="1.0" encoding="utf-8"?>
<!-- Generator: Adobe Illustrator 22.0.1, SVG Export Plug-In . SVG Version: 6.00 Build 0)  -->
<svg version="1.1" id="Layer_1" xmlns="http://www.w3.org/2000/svg" xmlns:xlink="http://www.w3.org/1999/xlink" x="0px" y="0px"
	 width="174.8px" height="272.6px" viewBox="0 0 174.8 272.6" style="enable-background:new 0 0 174.8 272.6;" xml:space="preserve"
	>
<style type="text/css">
	.st0{fill:#9E633B;}
	.st1{fill:#179926;}
	.st2{fill:#000200;}
	.st3{fill:#774D2F;}
</style>
<g>
	<g>
		<g>
			<path class="st0" d="M55.7,242.6c0.5-1,1.3-1.4,2.3-1.6c0.5-0.1,3.2,0.2,3.3-0.2c-0.6,1.8,2.3,2.6,2.9,0.8c1-3-2.5-3.6-4.6-3.6
				c-2.6,0-5.3,0.7-6.5,3.1C52.3,242.8,54.8,244.4,55.7,242.6L55.7,242.6z"/>
		</g>
	</g>
	<g>
		<g>
			<path class="st0" d="M55,243.9c1-1.5,2.6-2.3,4.3-2.8c0.5-0.1,6.5-1.3,5.7,1c-0.7,1.8,2.2,2.6,2.9,0.8c1.5-4-3.1-5.4-6.1-5.2
				c-3.7,0.3-7.1,1.6-9.3,4.7C51.3,244,53.9,245.5,55,243.9L55,243.9z"/>
		</g>
	</g>
	<path class="st1" d="M141.7,64.4c-14-3-13,10-14,13c-1,3-6,34-9,52c-1.9,11.6-10.2,15.7-15.7,17.2c2.5-23.5,5.1-47.9,6.7-54.2
		c3-12,6-56-3-61s-29-10-38,29c-2.8,12.3-3.1,34.6-2.1,59.4c-8.8,1.7-26.2,1.6-26.9-24.4c-1-35,5-41,5-45s-33-28-28,14s24,59,34,62
		c5.6,1.7,11,3.1,16.3,3c2.6,51.4,9.7,109,9.7,109s17,4,15,0s4-32,6-44c0.7-4,1.9-15.4,3.3-29.3c10.9,1.2,32.5-27.6,39.7-34.7
		c8-8,11-39,14-46S155.7,67.4,141.7,64.4z"/>
	<g>
		<g>
			<path class="st2" d="M81.4,43c-0.6,1.9-0.9,3.9-1.1,5.9c-0.1,1,1.4,1,1.5,0c0.1-1.9,0.5-3.7,1-5.5C83.1,42.5,81.7,42.1,81.4,43
				L81.4,43z"/>
		</g>
	</g>
	<g>
		<g>
			<path class="st2" d="M94.7,35c-0.5,3.7-0.7,7.4-0.6,11.2c0,1,1.5,1,1.5,0c-0.2-3.6,0-7.2,0.5-10.8C96.3,34.5,94.8,34.1,94.7,35
				L94.7,35z"/>
		</g>
	</g>
	<g>
		<g>
			<path class="st2" d="M105.3,56.7c-0.5,1.9-0.9,3.8-1.4,5.7c-0.2,0.9,1.2,1.3,1.4,0.4c0.5-1.9,0.9-3.8,1.4-5.7
				C106.9,56.1,105.5,55.7,105.3,56.7L105.3,56.7z"/>
		</g>
	</g>
	<g>
		<g>
			<path class="st2" d="M87.1,56.7c-0.4,2.1-0.7,4.2-1.1,6.3c-0.2,0.9,1.3,1.4,1.4,0.4c0.4-2.1,0.7-4.2,1.1-6.3
				C88.7,56.2,87.3,55.8,87.1,56.7L87.1,56.7z"/>
		</g>
	</g>
	<g>
		<g>
			<path class="st2" d="M77.9,67.7c0.3,1.5,0.3,3,0.2,4.5c-0.1,1,1.4,1,1.5,0c0.2-1.6,0.1-3.3-0.2-4.9
				C79.1,66.4,77.7,66.8,77.9,67.7L77.9,67.7z"/>
		</g>
	</g>
	<g>
		<g>
			<path class="st2" d="M80.4,85.2c0,2.6,0,5.1,0,7.7c0,1,1.5,1,1.5,0c0-2.6,0-5.1,0-7.7C81.9,84.3,80.4,84.3,80.4,85.2L80.4,85.2z"
				/>
		</g>
	</g>
	<g>
		<g>
			<path class="st2" d="M73.7,97.2c0,1.9,0,3.8,0,5.7c0,1,1.5,1,1.5,0c0-1.9,0-3.8,0-5.7C75.2,96.3,73.7,96.3,73.7,97.2L73.7,97.2z"
				/>
		</g>
	</g>
	<g>
		<g>
			<path class="st2" d="M94.6,74c-1.4,4.1-1.7,8.2-1.1,12.4c0.1,1,1.6,0.5,1.4-0.4c-0.6-4-0.2-7.8,1.1-11.6
				C96.4,73.5,94.9,73.1,94.6,74L94.6,74z"/>
		</g>
	</g>
	<g>
		<g>
			<path class="st2" d="M99.5,83.2c-0.1,2.2-0.3,4.4-0.4,6.7c-0.1,1,1.4,1,1.5,0c0.1-2.2,0.3-4.4,0.4-6.7
				C101,82.3,99.5,82.3,99.5,83.2L99.5,83.2z"/>
		</g>
	</g>
	<g>
		<g>
			<path class="st2" d="M90.7,112c-0.5,2.8-0.9,5.6-1.4,8.3c-0.2,0.9,1.3,1.4,1.4,0.4c0.5-2.8,0.9-5.6,1.4-8.3
				C92.3,111.5,90.8,111.1,90.7,112L90.7,112z"/>
		</g>
	</g>
	<g>
		<g>
			<path class="st2" d="M83.5,101.2c-0.1,2.8-0.3,5.6-0.4,8.3c0,1,1.5,1,1.5,0c0.1-2.8,0.3-5.6,0.4-8.3
				C85,100.3,83.5,100.3,83.5,101.2L83.5,101.2z"/>
		</g>
	</g>
	<g>
		<g>
			<path class="st2" d="M76.4,117.9c0,2.6,0,5.1,0,7.7c0,1,1.5,1,1.5,0c0-2.6,0-5.1,0-7.7C77.9,116.9,76.4,116.9,76.4,117.9
				L76.4,117.9z"/>
		</g>
	</g>
	<g>
		<g>
			<path class="st2" d="M98.4,100.4c-0.3,1.6-0.5,3.2-0.3,4.9c0.1,1,1.6,1,1.5,0c-0.1-1.5,0-3,0.3-4.5
				C100.1,99.8,98.6,99.4,98.4,100.4L98.4,100.4z"/>
		</g>
	</g>
	<g>
		<g>
			<path class="st2" d="M99.2,127.4c-1.2,4.1-1.9,8.3-2.4,12.5c-0.1,1,1.4,1,1.5,0c0.4-4.1,1.2-8.1,2.3-12.1
				C100.9,126.9,99.5,126.5,99.2,127.4L99.2,127.4z"/>
		</g>
	</g>
	<g>
		<g>
			<path class="st2" d="M84.4,136.9c0,3.1-0.3,6.1-1,9.1c-0.2,0.9,1.2,1.3,1.4,0.4c0.7-3.2,1-6.3,1-9.5
				C86,135.9,84.5,135.9,84.4,136.9L84.4,136.9z"/>
		</g>
	</g>
	<g>
		<g>
			<path class="st2" d="M76.7,152.6c-0.2,4.4-0.2,8.9,0.1,13.3c0.1,1,1.6,1,1.5,0c-0.3-4.4-0.3-8.9-0.1-13.3
				C78.3,151.6,76.8,151.6,76.7,152.6L76.7,152.6z"/>
		</g>
	</g>
	<g>
		<g>
			<path class="st2" d="M88.7,159.3c-0.8,3-1.2,6.1-1.3,9.2c0,1,1.5,1,1.5,0c0.1-3,0.5-5.9,1.3-8.8
				C90.4,158.8,88.9,158.4,88.7,159.3L88.7,159.3z"/>
		</g>
	</g>
	<g>
		<g>
			<path class="st2" d="M92.8,167.2c0.2,6.2,0.4,12.4,0.5,18.7c0,1,1.5,1,1.5,0c-0.2-6.2-0.4-12.4-0.5-18.7
				C94.3,166.3,92.8,166.3,92.8,167.2L92.8,167.2z"/>
		</g>
	</g>
	<g>
		<g>
			<path class="st2" d="M77.7,174.9c-0.1,4,0.3,7.9,1.1,11.8c0.2,0.9,1.6,0.5,1.4-0.4c-0.8-3.8-1.1-7.6-1.1-11.4
				C79.2,173.9,77.7,173.9,77.7,174.9L77.7,174.9z"/>
		</g>
	</g>
	<g>
		<g>
			<path class="st2" d="M88.1,186.2c-0.1,3.4-0.1,6.9,0.1,10.3c0.1,1,1.6,1,1.5,0c-0.2-3.4-0.2-6.9-0.1-10.3
				C89.6,185.3,88.1,185.3,88.1,186.2L88.1,186.2z"/>
		</g>
	</g>
	<g>
		<g>
			<path class="st2" d="M82.2,201.4c-0.4,2.7-0.8,5.3-1.2,8c-0.1,0.9,1.3,1.4,1.4,0.4c0.4-2.7,0.8-5.3,1.2-8
				C83.8,200.8,82.3,200.4,82.2,201.4L82.2,201.4z"/>
		</g>
	</g>
	<g>
		<g>
			<path class="st2" d="M86,207.9c-0.5,4.4-1,8.9-1.6,13.3c-0.1,1,1.4,0.9,1.5,0c0.5-4.4,1-8.9,1.6-13.3
				C87.6,206.9,86.1,206.9,86,207.9L86,207.9z"/>
		</g>
	</g>
	<g>
		<g>
			<path class="st2" d="M105.9,148.7c-1,3.7-1.4,7.4-1.3,11.2c0,1,1.5,1,1.5,0c-0.1-3.7,0.3-7.2,1.3-10.8
				C107.6,148.2,106.2,147.8,105.9,148.7L105.9,148.7z"/>
		</g>
	</g>
	<g>
		<g>
			<path class="st2" d="M117.5,144.2c-1,1.3-1.7,2.9-2.1,4.5c-0.2,0.9,1.2,1.3,1.4,0.4c0.4-1.5,1-2.9,2-4.1
				C119.4,144.2,118.1,143.4,117.5,144.2L117.5,144.2z"/>
		</g>
	</g>
	<g>
		<g>
			<path class="st2" d="M123.8,114.9c-0.3,3.9-0.5,7.8-0.8,11.7c-0.1,1,1.4,1,1.5,0c0.3-3.9,0.5-7.8,0.8-11.7
				C125.4,113.9,123.9,113.9,123.8,114.9L123.8,114.9z"/>
		</g>
	</g>
	<g>
		<g>
			<path class="st2" d="M127.9,105.6c1.3,2.1,1.6,4.4,0.7,6.7c-0.3,0.9,1.1,1.3,1.4,0.4c1-2.6,0.6-5.5-0.9-7.9
				C128.7,104,127.4,104.8,127.9,105.6L127.9,105.6z"/>
		</g>
	</g>
	<g>
		<g>
			<path class="st2" d="M131.5,86.3c1.1,1.8,1.7,3.8,1.7,5.9c0,1,1.5,1,1.5,0c0-2.4-0.6-4.7-1.9-6.7C132.2,84.7,131,85.5,131.5,86.3
				L131.5,86.3z"/>
		</g>
	</g>
	<g>
		<g>
			<path class="st2" d="M138.1,67.9c-0.3,3.6-0.5,7.1-0.8,10.7c-0.1,1,1.4,1,1.5,0c0.3-3.6,0.5-7.1,0.8-10.7
				C139.7,66.9,138.2,66.9,138.1,67.9L138.1,67.9z"/>
		</g>
	</g>
	<g>
		<g>
			<path class="st2" d="M145.6,73.6c-1.8,3.5-3.3,7.1-4.5,10.8c-0.3,0.9,1.2,1.3,1.4,0.4c1.1-3.6,2.5-7.1,4.3-10.5
				C147.3,73.5,146.1,72.7,145.6,73.6L145.6,73.6z"/>
		</g>
	</g>
	<g>
		<g>
			<path class="st2" d="M140.7,100.8c2.6-2.2,4.9-4.7,6.8-7.5c0.5-0.8-0.8-1.6-1.3-0.8c-1.8,2.7-4,5.1-6.6,7.2
				C138.9,100.4,140,101.4,140.7,100.8L140.7,100.8z"/>
		</g>
	</g>
	<g>
		<g>
			<path class="st2" d="M134.6,120.3c2.9-3.3,5.2-7.1,6.8-11.2c0.4-0.9-1.1-1.3-1.4-0.4c-1.5,3.9-3.7,7.4-6.4,10.5
				C132.9,120,134,121.1,134.6,120.3L134.6,120.3z"/>
		</g>
	</g>
	<g>
		<g>
			<path class="st2" d="M125.4,138.7c0.8-3.1,2.5-5.7,5-7.6c0.8-0.6-0.3-1.6-1.1-1.1c-2.7,2.1-4.5,5-5.4,8.2
				C123.7,139.3,125.2,139.7,125.4,138.7L125.4,138.7z"/>
		</g>
	</g>
	<g>
		<g>
			<path class="st2" d="M25.1,57.1c0.6-4.1,1.7-8,3.4-11.8c0.4-0.9-0.9-1.6-1.3-0.8c-1.8,3.9-3,7.9-3.6,12.1
				C23.5,57.6,25,58,25.1,57.1L25.1,57.1z"/>
		</g>
	</g>
	<g>
		<g>
			<path class="st2" d="M32.4,52.9c1.6-3,3.7-5.6,6.3-7.8c0.7-0.6-0.3-1.7-1.1-1.1c-2.7,2.3-4.9,5-6.6,8.1
				C30.6,53,31.9,53.8,32.4,52.9L32.4,52.9z"/>
		</g>
	</g>
	<g>
		<g>
			<path class="st2" d="M30.2,79.4c-0.8-2.2-1.7-4.2-3-6.2c-0.5-0.8-4.5-5.1-4.1-5.7c0.6-0.8-0.7-1.5-1.3-0.8
				c-1.1,1.5,0.7,2.9,1.7,4c2.3,2.6,4,5.7,5.2,9C29.1,80.7,30.5,80.3,30.2,79.4L30.2,79.4z"/>
		</g>
	</g>
	<g>
		<g>
			<path class="st2" d="M33,70.4c0.9-4.6,2.7-8.7,5.4-12.5c0.6-0.8-0.7-1.5-1.3-0.8c-2.8,3.9-4.6,8.2-5.6,12.9
				C31.4,70.9,32.8,71.3,33,70.4L33,70.4z"/>
		</g>
	</g>
	<g>
		<g>
			<path class="st2" d="M33.9,103.2c0.2-4.1,0.4-8.2,0.6-12.3c0.1-1-1.4-1-1.5,0c-0.2,4.1-0.4,8.2-0.6,12.3
				C32.3,104.2,33.8,104.2,33.9,103.2L33.9,103.2z"/>
		</g>
	</g>
	<g>
		<g>
			<path class="st2" d="M39.7,112.9c0-2.7,0.3-5.4,1-8.1c0.2-0.9-1.2-1.3-1.4-0.4c-0.7,2.8-1,5.6-1,8.5
				C38.2,113.9,39.7,113.9,39.7,112.9L39.7,112.9z"/>
		</g>
	</g>
	<g>
		<g>
			<path class="st2" d="M57.8,123.4c-4.5-3-9.1-6.1-13.6-9.1c-0.8-0.5-1.6,0.8-0.8,1.3c4.5,3,9.1,6.1,13.6,9.1
				C57.8,125.2,58.6,123.9,57.8,123.4L57.8,123.4z"/>
		</g>
	</g>
	<g>
		<g>
			<path class="st2" d="M63.6,123.9c0-0.7,0-1.3,0-2c0-1-1.5-1-1.5,0c0,0.7,0,1.3,0,2C62.1,124.9,63.6,124.9,63.6,123.9L63.6,123.9z
				"/>
		</g>
	</g>
	<path class="st3" d="M43.7,246.4c0,0,14-28,27-3c0,0-2-26,7-16s8,11,8,11s10-25,18-12s11-2,12,3s18,8,6,14S46.7,249.4,43.7,246.4z"
		/>
	<g>
		<g>
			<path class="st0" d="M54.8,242.9c0.1-0.5,0.1-2.2,0.5-2.6c0.7-0.6,1.6,0,2.3,0.3c1.9,0.7,3.9,1.4,5.8,2.1
				c1.8,0.7,2.6-2.2,0.8-2.9c-1.7-0.6-3.4-1.2-5-1.9c-1.3-0.5-2.7-1.2-4-1.1c-2.7,0.2-2.8,3.1-3.2,5.2
				C51.6,244,54.4,244.8,54.8,242.9L54.8,242.9z"/>
		</g>
	</g>
	<g>
		<g>
			<path class="st0" d="M76.6,244.7c1.8-2,5.5-4.4,8.1-2.5c1.5,1.2,3-1.4,1.5-2.6c-3.7-2.7-9.1-0.1-11.7,2.9
				C73.2,244,75.3,246.1,76.6,244.7L76.6,244.7z"/>
		</g>
	</g>
	<g>
		<g>
			<path class="st0" d="M100.4,238.6c0.5-4.1,5.9-4.3,7-0.5c0.6,1.8,3.5,1.1,2.9-0.8c-0.9-3-3.8-5.3-7-4.9c-3.3,0.3-5.5,3.1-5.9,6.3
				C97.2,240.5,100.2,240.5,100.4,238.6L100.4,238.6z"/>
		</g>
	</g>
</g>
</svg>
