<?xml version="1.0" encoding="utf-8"?>
<!-- Generator: Adobe Illustrator 22.0.1, SVG Export Plug-In . SVG Version: 6.00 Build 0)  -->
<svg version="1.1" id="Layer_1" xmlns="http://www.w3.org/2000/svg" xmlns:xlink="http://www.w3.org/1999/xlink" x="0px" y="0px"
	 width="172.2px" height="296.2px" viewBox="0 0 172.2 296.2" style="enable-background:new 0 0 172.2 296.2;" xml:space="preserve"
	>
<style type="text/css">
	.st0{fill:#179926;}
	.st1{fill:#442D19;}
	.st2{fill:#774D2F;}
</style>
<g>
	<g>
		<g>
			<path class="st0" d="M62.4,36.7c0,3.8,0,7.7,0,11.5c0,1.9,3,1.9,3,0c0-3.8,0-7.7,0-11.5C65.4,34.8,62.4,34.8,62.4,36.7L62.4,36.7
				z"/>
		</g>
	</g>
	<g>
		<g>
			<path d="M60.9,40.2c0,2.7,0,5.3,0,8c0,1.9,3,1.9,3,0c0-2.7,0-5.3,0-8C63.9,38.3,60.9,38.3,60.9,40.2L60.9,40.2z"/>
		</g>
	</g>
	<g>
		<g>
			<path d="M67.4,42.2c0,6,0,12,0,18c0,1.9,3,1.9,3,0c0-6,0-12,0-18C70.4,40.3,67.4,40.3,67.4,42.2L67.4,42.2z"/>
		</g>
	</g>
	<g>
		<g>
			<path d="M71.3,37.3c1.2,1.2,2.3,2.3,3.5,3.5c1.4,1.4,3.5-0.8,2.1-2.1c-1.2-1.2-2.3-2.3-3.5-3.5C72.1,33.8,70,35.9,71.3,37.3
				L71.3,37.3z"/>
		</g>
	</g>
	<g>
		<g>
			<path d="M68.4,36.2c0,9,0,18,0,27c0,1.9,3,1.9,3,0c0-9,0-18,0-27C71.4,34.3,68.4,34.3,68.4,36.2L68.4,36.2z"/>
		</g>
	</g>
	<path class="st0" d="M79.4,255.7c0,0-51-190-19-223s40,14,39,30c-0.4,6.2-0.9,34.1-1.4,66.7c-0.8,51.5-1.6,114.6-1.6,121.3
		C96.4,261.7,80.4,259.7,79.4,255.7z"/>
	<g>
		<path class="st0" d="M146.9,46.2c-2,3-1,4-5,11c-2.1,3.8-3.7,4.6-5.5,4.6c-0.5-1.5-1-2.8-1.5-3.6c-3-5-9-2-16,2
			s-5.5,34.5-6.5,40.5s-1,10-7,22s-12,8-12,8c-5.5-2.5-6.5,9.5-1.5,12.5s28-18,30-21s7-16,13-29c3.9-8.5,4-18.8,2.7-26.2
			c2.6-0.8,5.5-1.9,8.3-2.8c6-2,7-13,7-18S148.9,43.2,146.9,46.2z"/>
		<path class="st0" d="M47.9,153.2c-3-8-8-23-7-31s-2-17-11-18s-11,12-9,21s12,37,17,39s25,3,28,6c3,3,4-3-1-9
			C58.9,157.2,50.9,161.2,47.9,153.2z"/>
		<path class="st0" d="M57.9,66.2c3,0,2-11,2-11c-7-1-14-2-13-7s0-29-10-23s-2,25,0,28S54.9,66.2,57.9,66.2z"/>
	</g>
	<path class="st1" d="M57.9,267.2c0,0,72,0,78,0s1-8-5-6s0-12-12-9c0,0-12.9-14-23.5-6.5c0,0-23.5-16.5-31.5-2.5
		C55.9,257.2,48.9,267.2,57.9,267.2z"/>
	<g>
		<g>
			<path d="M66.1,39.7c0,6.3,0,12.7,0,19c0,1,1.5,1,1.5,0c0-6.3,0-12.7,0-19C67.6,38.8,66.1,38.8,66.1,39.7L66.1,39.7z"/>
		</g>
	</g>
	<g>
		<g>
			<path d="M81.6,25.7c0,5.2,0,10.3,0,15.5c0,1,1.5,1,1.5,0c0-5.2,0-10.3,0-15.5C83.1,24.8,81.6,24.8,81.6,25.7L81.6,25.7z"/>
		</g>
	</g>
	<g>
		<g>
			<path d="M79.6,56.7c0,4.8,0,9.7,0,14.5c0,1,1.5,1,1.5,0c0-4.8,0-9.7,0-14.5C81.1,55.8,79.6,55.8,79.6,56.7L79.6,56.7z"/>
		</g>
	</g>
	<g>
		<g>
			<path d="M34.6,30.7c0,1.7,0,3.3,0,5c0,1,1.5,1,1.5,0c0-1.7,0-3.3,0-5C36.1,29.8,34.6,29.8,34.6,30.7L34.6,30.7z"/>
		</g>
	</g>
	<g>
		<g>
			<path d="M38.6,43.2c0,1.8,0,3.7,0,5.5c0,1,1.5,1,1.5,0c0-1.8,0-3.7,0-5.5C40.1,42.3,38.6,42.3,38.6,43.2L38.6,43.2z"/>
		</g>
	</g>
	<g>
		<g>
			<path d="M55.6,81.7c0,4.7,0,9.3,0,14c0,1,1.5,1,1.5,0c0-4.7,0-9.3,0-14C57.1,80.8,55.6,80.8,55.6,81.7L55.6,81.7z"/>
		</g>
	</g>
	<g>
		<g>
			<path d="M69.6,92.7c0,7,0,14,0,21c0,1,1.5,1,1.5,0c0-7,0-14,0-21C71.1,91.8,69.6,91.8,69.6,92.7L69.6,92.7z"/>
		</g>
	</g>
	<g>
		<g>
			<path d="M62.1,126.2c0,4.3,0,8.7,0,13c0,1,1.5,1,1.5,0c0-4.3,0-8.7,0-13C63.6,125.3,62.1,125.3,62.1,126.2L62.1,126.2z"/>
		</g>
	</g>
	<g>
		<g>
			<path d="M85.1,105.2c0,3.7,0,7.3,0,11c0,1,1.5,1,1.5,0c0-3.7,0-7.3,0-11C86.6,104.3,85.1,104.3,85.1,105.2L85.1,105.2z"/>
		</g>
	</g>
	<g>
		<g>
			<path d="M77.6,134.7c0,3,0,6,0,9c0,1,1.5,1,1.5,0c0-3,0-6,0-9C79.1,133.8,77.6,133.8,77.6,134.7L77.6,134.7z"/>
		</g>
	</g>
	<g>
		<g>
			<path d="M88.6,156.2c0,3.5,0,7,0,10.5c0,1,1.5,1,1.5,0c0-3.5,0-7,0-10.5C90.1,155.3,88.6,155.3,88.6,156.2L88.6,156.2z"/>
		</g>
	</g>
	<g>
		<g>
			<path d="M71.6,157.2c0,4,0,8,0,12c0,1,1.5,1,1.5,0c0-4,0-8,0-12C73.1,156.3,71.6,156.3,71.6,157.2L71.6,157.2z"/>
		</g>
	</g>
	<g>
		<g>
			<path d="M72.6,188.2c0,3,0,6,0,9c0,1,1.5,1,1.5,0c0-3,0-6,0-9C74.1,187.3,72.6,187.3,72.6,188.2L72.6,188.2z"/>
		</g>
	</g>
	<g>
		<g>
			<path d="M88.4,202.5c1,0,1-1.5,0-1.5C87.4,201,87.4,202.5,88.4,202.5L88.4,202.5z"/>
		</g>
	</g>
	<g>
		<g>
			<path d="M88.1,200.7c0,3.2,0,6.3,0,9.5c0,1,1.5,1,1.5,0c0-3.2,0-6.3,0-9.5C89.6,199.8,88.1,199.8,88.1,200.7L88.1,200.7z"/>
		</g>
	</g>
	<g>
		<g>
			<path d="M81.1,211.2c0,2.7,0,5.3,0,8c0,1,1.5,1,1.5,0c0-2.7,0-5.3,0-8C82.6,210.3,81.1,210.3,81.1,211.2L81.1,211.2z"/>
		</g>
	</g>
	<g>
		<g>
			<path d="M106.1,127.7c0,1.5,0,3,0,4.5c0,1,1.5,1,1.5,0c0-1.5,0-3,0-4.5C107.6,126.8,106.1,126.8,106.1,127.7L106.1,127.7z"/>
		</g>
	</g>
	<g>
		<g>
			<path d="M121.1,67.7c0,2.7,0,5.3,0,8c0,1,1.5,1,1.5,0c0-2.7,0-5.3,0-8C122.6,66.8,121.1,66.8,121.1,67.7L121.1,67.7z"/>
		</g>
	</g>
	<g>
		<g>
			<path d="M129.1,75.7c0,3.7,0,7.3,0,11c0,1,1.5,1,1.5,0c0-3.7,0-7.3,0-11C130.6,74.8,129.1,74.8,129.1,75.7L129.1,75.7z"/>
		</g>
	</g>
	<g>
		<g>
			<path d="M120.1,95.2c0,4,0,8,0,12c0,1,1.5,1,1.5,0c0-4,0-8,0-12C121.6,94.3,120.1,94.3,120.1,95.2L120.1,95.2z"/>
		</g>
	</g>
	<g>
		<g>
			<path d="M148.1,49.2c0,1.2,0,2.3,0,3.5c0,1,1.5,1,1.5,0c0-1.2,0-2.3,0-3.5C149.6,48.3,148.1,48.3,148.1,49.2L148.1,49.2z"/>
		</g>
	</g>
	<g>
		<g>
			<path d="M23.6,110.7c0,1.3,0,2.7,0,4c0,1,1.5,1,1.5,0c0-1.3,0-2.7,0-4C25.1,109.8,23.6,109.8,23.6,110.7L23.6,110.7z"/>
		</g>
	</g>
	<g>
		<g>
			<path d="M32.6,113.7c0,3.7,0,7.3,0,11c0,1,1.5,1,1.5,0c0-3.7,0-7.3,0-11C34.1,112.8,32.6,112.8,32.6,113.7L32.6,113.7z"/>
		</g>
	</g>
	<g>
		<g>
			<path d="M29.1,124.7c0,2.7,0,5.3,0,8c0,1,1.5,1,1.5,0c0-2.7,0-5.3,0-8C30.6,123.8,29.1,123.8,29.1,124.7L29.1,124.7z"/>
		</g>
	</g>
	<g>
		<g>
			<path d="M35.1,136.2c0,3.2,0,6.3,0,9.5c0,1,1.5,1,1.5,0c0-3.2,0-6.3,0-9.5C36.6,135.3,35.1,135.3,35.1,136.2L35.1,136.2z"/>
		</g>
	</g>
	<g>
		<g>
			<path d="M40.6,159.7c0-3.3,0-6.7,0-10c0-1-1.5-1-1.5,0c0,3.3,0,6.7,0,10C39.1,160.7,40.6,160.7,40.6,159.7L40.6,159.7z"/>
		</g>
	</g>
	<g>
		<g>
			<path d="M51.6,164.2c0-2.2,0-4.3,0-6.5c0-1-1.5-1-1.5,0c0,2.2,0,4.3,0,6.5C50.1,165.2,51.6,165.2,51.6,164.2L51.6,164.2z"/>
		</g>
	</g>
	<g>
		<g>
			<path d="M71.9,74.2c-1.7-1.7-3.3-3.3-5-5c-0.7-0.7-1.7,0.4-1.1,1.1c1.7,1.7,3.3,3.3,5,5C71.5,76,72.6,74.9,71.9,74.2L71.9,74.2z"
				/>
		</g>
	</g>
	<g>
		<g>
			<path d="M86.1,92.7c0-4,0-8,0-12c0-1-1.5-1-1.5,0c0,4,0,8,0,12C84.6,93.7,86.1,93.7,86.1,92.7L86.1,92.7z"/>
		</g>
	</g>
	<g>
		<g>
			<path d="M89.9,63.3c2-2,4-4,6-6c0.7-0.7-0.4-1.7-1.1-1.1c-2,2-4,4-6,6C88.2,62.9,89.2,64,89.9,63.3L89.9,63.3z"/>
		</g>
	</g>
	<g>
		<g>
			<path d="M91.1,137.7c0-4,0-8,0-12c0-1-1.5-1-1.5,0c0,4,0,8,0,12C89.6,138.7,91.1,138.7,91.1,137.7L91.1,137.7z"/>
		</g>
	</g>
	<g>
		<g>
			<path d="M58.1,109.3c3,2.2,5.6,4.8,7.6,7.8c0.5,0.8,1.8,0,1.3-0.8c-2.2-3.3-5-6.1-8.2-8.4C58,107.4,57.3,108.7,58.1,109.3
				L58.1,109.3z"/>
		</g>
	</g>
	<g>
		<g>
			<path d="M72.9,154.2c-2-2-4-4-6-6c-0.7-0.7-1.7,0.4-1.1,1.1c2,2,4,4,6,6C72.5,156,73.6,154.9,72.9,154.2L72.9,154.2z"/>
		</g>
	</g>
	<g>
		<g>
			<path d="M82.9,182.3c2.3-2.3,4.7-4.7,7-7c0.7-0.7-0.4-1.7-1.1-1.1c-2.3,2.3-4.7,4.7-7,7C81.2,181.9,82.2,183,82.9,182.3
				L82.9,182.3z"/>
		</g>
	</g>
	<g>
		<g>
			<path d="M86,193.1c1-2,2-4,3-6c0.4-0.9-0.9-1.6-1.3-0.8c-1,2-2,4-3,6C84.3,193.2,85.6,194,86,193.1L86,193.1z"/>
		</g>
	</g>
	<g>
		<g>
			<path d="M75.1,177.7c0-0.3,0-0.7,0-1c0-1-1.5-1-1.5,0c0,0.3,0,0.7,0,1C73.6,178.7,75.1,178.7,75.1,177.7L75.1,177.7z"/>
		</g>
	</g>
	<g>
		<g>
			<path d="M81.1,208.7c0.5-5.5,1.8-10.7,3.9-15.8c0.4-0.9-1.1-1.3-1.4-0.4c-2.1,5.2-3.4,10.6-3.9,16.2
				C79.5,209.7,81,209.7,81.1,208.7L81.1,208.7z"/>
		</g>
	</g>
	<g>
		<g>
			<path d="M77.1,115.7c0-2,0-4,0-6c0-1-1.5-1-1.5,0c0,2,0,4,0,6C75.6,116.7,77.1,116.7,77.1,115.7L77.1,115.7z"/>
		</g>
	</g>
	<g>
		<g>
			<path d="M90.2,74c0.7-2,1.3-4,2-6c0.3-0.9-1.1-1.3-1.4-0.4c-0.7,2-1.3,4-2,6C88.5,74.5,89.9,74.9,90.2,74L90.2,74z"/>
		</g>
	</g>
	<g>
		<g>
			<path class="st2" d="M68.7,258c1.6-2.2,5.3-1.7,6.6,0.6c0.9,1.7,3.5,0.2,2.6-1.5c-2.5-4.4-8.9-4.5-11.8-0.6
				C65,258.1,67.6,259.6,68.7,258L68.7,258z"/>
		</g>
	</g>
	<g>
		<g>
			<path class="st2" d="M83.3,249.7c2.4-1.6,5.4-1.8,7.9-0.3c1.7,0.9,3.2-1.7,1.5-2.6c-3.5-1.9-7.6-1.8-11,0.3
				C80.2,248.2,81.7,250.8,83.3,249.7L83.3,249.7z"/>
		</g>
	</g>
	<g>
		<g>
			<path class="st2" d="M105.2,258c3.3-0.7,6.6,0.1,9.4,2.1c1.6,1.1,3.1-1.5,1.5-2.6c-3.5-2.4-7.6-3.2-11.7-2.4
				C102.6,255.5,103.4,258.4,105.2,258L105.2,258z"/>
		</g>
	</g>
	<g>
		<g>
			<path class="st2" d="M87.3,257.7c2.4-1,4.7-1.2,7.2-0.6c1.9,0.5,2.7-2.4,0.8-2.9c-3-0.7-6-0.6-8.8,0.6
				C84.7,255.5,85.5,258.4,87.3,257.7L87.3,257.7z"/>
		</g>
	</g>
</g>
</svg>
