<?xml version="1.0" encoding="utf-8"?>
<!-- Generator: Adobe Illustrator 22.0.1, SVG Export Plug-In . SVG Version: 6.00 Build 0)  -->
<svg version="1.1" id="Layer_1" xmlns="http://www.w3.org/2000/svg" xmlns:xlink="http://www.w3.org/1999/xlink" x="0px" y="0px"
	 width="384px" height="658px" viewBox="0 0 384 658" style="enable-background:new 0 0 384 658;" xml:space="preserve">
<style type="text/css">
	.st0{fill:#143F17;}
	.st1{fill:#179926;}
	.st2{fill:#774D2F;}
</style>
<g>
	<g>
		<path class="st0" d="M129.4,53.8c0,9.1,0,18.2,0,27.3"/>
		<g>
			<path class="st1" d="M127.9,53.8c0,9.1,0,18.2,0,27.3c0,1.9,3,1.9,3,0c0-9.1,0-18.2,0-27.3C130.9,51.8,127.9,51.8,127.9,53.8
				L127.9,53.8z"/>
		</g>
	</g>
	<g>
		<path class="st0" d="M125.3,62.1c0,6.3,0,12.7,0,19"/>
		<g>
			<path d="M123.8,62.1c0,6.3,0,12.7,0,19c0,1.9,3,1.9,3,0c0-6.3,0-12.7,0-19C126.8,60.1,123.8,60.1,123.8,62.1L123.8,62.1z"/>
		</g>
	</g>
	<g>
		<path class="st0" d="M143,66.8c0,14.2,0,28.5,0,42.7"/>
		<g>
			<path d="M141.5,66.8c0,14.2,0,28.5,0,42.7c0,1.9,3,1.9,3,0c0-14.2,0-28.5,0-42.7C144.5,64.9,141.5,64.9,141.5,66.8L141.5,66.8z"
				/>
		</g>
	</g>
	<g>
		<path class="st0" d="M152.6,52.6c3.2,2.8,6.4,5.5,9.6,8.3"/>
		<g>
			<path d="M151.6,53.6c3.2,2.8,6.4,5.5,9.6,8.3c1.5,1.3,3.6-0.9,2.1-2.1c-3.2-2.8-6.4-5.5-9.6-8.3
				C152.2,50.3,150.1,52.4,151.6,53.6L151.6,53.6z"/>
		</g>
	</g>
	<g>
		<path class="st0" d="M145.8,52.6c0,21.4,0,42.7,0,64.1"/>
		<g>
			<path d="M144.3,52.6c0,21.4,0,42.7,0,64.1c0,1.9,3,1.9,3,0c0-21.4,0-42.7,0-64.1C147.3,50.6,144.3,50.6,144.3,52.6L144.3,52.6z"
				/>
		</g>
	</g>
	<path class="st0" d="M171.8,573.7c0,0-139.5-451.1-52-529.4s109.4,33.2,106.7,71.2c-1.1,14.7-2.5,81-3.9,158.3
		c-2.2,122.3-4.3,272-4.3,288C218.3,587.9,174.5,583.2,171.8,573.7z"/>
	<g>
		<path class="st0" d="M356.4,76.3c-5.5,7.1-2.7,9.5-13.7,26.1c-5.9,8.9-10.2,11-15,11c-1.3-3.6-2.7-6.6-4.2-8.6
			c-8.2-11.9-24.6-4.7-43.8,4.7s-15,81.9-17.8,96.2c-2.7,14.2-2.7,23.7-19.2,52.2c-16.4,28.5-32.8,19-32.8,19
			c-15-5.9-17.8,22.6-4.1,29.7s76.6-42.7,82.1-49.9c5.5-7.1,19.2-38,35.6-68.8c10.8-20.2,10.9-44.5,7.5-62.2
			c7.1-1.8,15.1-4.5,22.6-6.6c16.4-4.7,19.2-30.9,19.2-42.7S361.9,69.2,356.4,76.3z"/>
		<path class="st0" d="M85.6,330.3c-8.2-19-21.9-54.6-19.2-73.6c2.7-19-5.5-40.4-30.1-42.7s-30.1,28.5-24.6,49.9
			c5.5,21.4,32.8,87.8,46.5,92.6s68.4,7.1,76.6,14.2c8.2,7.1,10.9-7.1-2.7-21.4C115.7,339.8,93.8,349.3,85.6,330.3z"/>
		<path class="st0" d="M113,123.8c8.2,0,5.5-26.1,5.5-26.1c-19.2-2.4-38.3-4.7-35.6-16.6s0-68.8-27.4-54.6s-5.5,59.4,0,66.5
			C61,100.1,104.7,123.8,113,123.8z"/>
	</g>
	<path class="st2" d="M113,601c0,0,197,0,213.4,0s2.7-19-13.7-14.2c-16.4,4.7,0-28.5-32.8-21.4c0,0-35.3-33.2-64.2-15.4
		c0,0-64.4-39.2-86.3-5.9C107.5,577.3,88.3,601,113,601z"/>
	<g>
		<path class="st0" d="M137.6,60.9c0,15,0,30.1,0,45.1"/>
		<g>
			<path d="M136.8,60.9c0,15,0,30.1,0,45.1c0,1,1.5,1,1.5,0c0-15,0-30.1,0-45.1C138.3,59.9,136.8,59.9,136.8,60.9L136.8,60.9z"/>
		</g>
	</g>
	<g>
		<path class="st0" d="M180,27.6c0,12.3,0,24.5,0,36.8"/>
		<g>
			<path d="M179.2,27.6c0,12.3,0,24.5,0,36.8c0,1,1.5,1,1.5,0c0-12.3,0-24.5,0-36.8C180.7,26.7,179.2,26.7,179.2,27.6L179.2,27.6z"
				/>
		</g>
	</g>
	<g>
		<path class="st0" d="M174.5,101.2c0,11.5,0,22.9,0,34.4"/>
		<g>
			<path d="M173.8,101.2c0,11.5,0,22.9,0,34.4c0,1,1.5,1,1.5,0c0-11.5,0-22.9,0-34.4C175.3,100.3,173.8,100.3,173.8,101.2
				L173.8,101.2z"/>
		</g>
	</g>
	<g>
		<path class="st0" d="M51.4,39.5c0,4,0,7.9,0,11.9"/>
		<g>
			<path d="M50.6,39.5c0,4,0,7.9,0,11.9c0,1,1.5,1,1.5,0c0-4,0-7.9,0-11.9C52.1,38.6,50.6,38.6,50.6,39.5L50.6,39.5z"/>
		</g>
	</g>
	<g>
		<path class="st0" d="M62.3,69.2c0,4.4,0,8.7,0,13.1"/>
		<g>
			<path d="M61.6,69.2c0,4.4,0,8.7,0,13.1c0,1,1.5,1,1.5,0c0-4.4,0-8.7,0-13.1C63.1,68.2,61.6,68.2,61.6,69.2L61.6,69.2z"/>
		</g>
	</g>
	<g>
		<path class="st0" d="M108.8,160.6c0,11.1,0,22.2,0,33.2"/>
		<g>
			<path d="M108.1,160.6c0,11.1,0,22.2,0,33.2c0,1,1.5,1,1.5,0c0-11.1,0-22.2,0-33.2C109.6,159.6,108.1,159.6,108.1,160.6
				L108.1,160.6z"/>
		</g>
	</g>
	<g>
		<path class="st0" d="M147.1,186.7c0,16.6,0,33.2,0,49.9"/>
		<g>
			<path d="M146.4,186.7c0,16.6,0,33.2,0,49.9c0,1,1.5,1,1.5,0c0-16.6,0-33.2,0-49.9C147.9,185.7,146.4,185.7,146.4,186.7
				L146.4,186.7z"/>
		</g>
	</g>
	<g>
		<path class="st0" d="M126.6,266.2c0,10.3,0,20.6,0,30.9"/>
		<g>
			<path d="M125.9,266.2c0,10.3,0,20.6,0,30.9c0,1,1.5,1,1.5,0c0-10.3,0-20.6,0-30.9C127.4,265.3,125.9,265.3,125.9,266.2
				L125.9,266.2z"/>
		</g>
	</g>
	<g>
		<path class="st0" d="M189.6,216.4c0,8.7,0,17.4,0,26.1"/>
		<g>
			<path d="M188.8,216.4c0,8.7,0,17.4,0,26.1c0,1,1.5,1,1.5,0c0-8.7,0-17.4,0-26.1C190.3,215.4,188.8,215.4,188.8,216.4L188.8,216.4
				z"/>
		</g>
	</g>
	<g>
		<path class="st0" d="M169,286.4c0,7.1,0,14.2,0,21.4"/>
		<g>
			<path d="M168.3,286.4c0,7.1,0,14.2,0,21.4c0,1,1.5,1,1.5,0c0-7.1,0-14.2,0-21.4C169.8,285.5,168.3,285.5,168.3,286.4L168.3,286.4
				z"/>
		</g>
	</g>
	<g>
		<path class="st0" d="M199.1,337.5c0,8.3,0,16.6,0,24.9"/>
		<g>
			<path d="M198.4,337.5c0,8.3,0,16.6,0,24.9c0,1,1.5,1,1.5,0c0-8.3,0-16.6,0-24.9C199.9,336.5,198.4,336.5,198.4,337.5L198.4,337.5
				z"/>
		</g>
	</g>
	<g>
		<path class="st0" d="M152.6,339.8c0,9.5,0,19,0,28.5"/>
		<g>
			<path d="M151.9,339.8c0,9.5,0,19,0,28.5c0,1,1.5,1,1.5,0c0-9.5,0-19,0-28.5C153.4,338.9,151.9,338.9,151.9,339.8L151.9,339.8z"/>
		</g>
	</g>
	<g>
		<path class="st0" d="M155.4,413.4c0,7.1,0,14.2,0,21.4"/>
		<g>
			<path d="M154.6,413.4c0,7.1,0,14.2,0,21.4c0,1,1.5,1,1.5,0c0-7.1,0-14.2,0-21.4C156.1,412.5,154.6,412.5,154.6,413.4L154.6,413.4
				z"/>
		</g>
	</g>
	<g>
		<path class="st0" d="M196.4,445.5"/>
		<g>
			<path d="M196.4,446.2c1,0,1-1.5,0-1.5C195.4,444.7,195.4,446.2,196.4,446.2L196.4,446.2z"/>
		</g>
	</g>
	<g>
		<path class="st0" d="M197.8,443.1c0,7.5,0,15,0,22.6"/>
		<g>
			<path d="M197,443.1c0,7.5,0,15,0,22.6c0,1,1.5,1,1.5,0c0-7.5,0-15,0-22.6C198.5,442.2,197,442.2,197,443.1L197,443.1z"/>
		</g>
	</g>
	<g>
		<path class="st0" d="M178.6,468c0,6.3,0,12.7,0,19"/>
		<g>
			<path d="M177.9,468c0,6.3,0,12.7,0,19c0,1,1.5,1,1.5,0c0-6.3,0-12.7,0-19C179.4,467.1,177.9,467.1,177.9,468L177.9,468z"/>
		</g>
	</g>
	<g>
		<path class="st0" d="M247,269.8c0,3.6,0,7.1,0,10.7"/>
		<g>
			<path d="M246.3,269.8c0,3.6,0,7.1,0,10.7c0,1,1.5,1,1.5,0c0-3.6,0-7.1,0-10.7C247.8,268.8,246.3,268.8,246.3,269.8L246.3,269.8z"
				/>
		</g>
	</g>
	<g>
		<path class="st0" d="M288,127.4c0,6.3,0,12.7,0,19"/>
		<g>
			<path d="M287.3,127.4c0,6.3,0,12.7,0,19c0,1,1.5,1,1.5,0c0-6.3,0-12.7,0-19C288.8,126.4,287.3,126.4,287.3,127.4L287.3,127.4z"/>
		</g>
	</g>
	<g>
		<path class="st0" d="M309.9,146.4c0,8.7,0,17.4,0,26.1"/>
		<g>
			<path d="M309.2,146.4c0,8.7,0,17.4,0,26.1c0,1,1.5,1,1.5,0c0-8.7,0-17.4,0-26.1C310.7,145.4,309.2,145.4,309.2,146.4L309.2,146.4
				z"/>
		</g>
	</g>
	<g>
		<path class="st0" d="M285.3,192.6c0,9.5,0,19,0,28.5"/>
		<g>
			<path d="M284.6,192.6c0,9.5,0,19,0,28.5c0,1,1.5,1,1.5,0c0-9.5,0-19,0-28.5C286.1,191.7,284.6,191.7,284.6,192.6L284.6,192.6z"/>
		</g>
	</g>
	<g>
		<path class="st0" d="M361.9,83.4c0,2.8,0,5.5,0,8.3"/>
		<g>
			<path d="M361.2,83.4c0,2.8,0,5.5,0,8.3c0,1,1.5,1,1.5,0c0-2.8,0-5.5,0-8.3C362.7,82.5,361.2,82.5,361.2,83.4L361.2,83.4z"/>
		</g>
	</g>
	<g>
		<path class="st0" d="M21.3,229.4c0,3.2,0,6.3,0,9.5"/>
		<g>
			<path d="M20.6,229.4c0,3.2,0,6.3,0,9.5c0,1,1.5,1,1.5,0c0-3.2,0-6.3,0-9.5C22.1,228.5,20.6,228.5,20.6,229.4L20.6,229.4z"/>
		</g>
	</g>
	<g>
		<path class="st0" d="M45.9,236.6c0,8.7,0,17.4,0,26.1"/>
		<g>
			<path d="M45.2,236.6c0,8.7,0,17.4,0,26.1c0,1,1.5,1,1.5,0c0-8.7,0-17.4,0-26.1C46.7,235.6,45.2,235.6,45.2,236.6L45.2,236.6z"/>
		</g>
	</g>
	<g>
		<path class="st0" d="M36.4,262.7c0,6.3,0,12.7,0,19"/>
		<g>
			<path d="M35.6,262.7c0,6.3,0,12.7,0,19c0,1,1.5,1,1.5,0c0-6.3,0-12.7,0-19C37.1,261.7,35.6,261.7,35.6,262.7L35.6,262.7z"/>
		</g>
	</g>
	<g>
		<path class="st0" d="M52.8,290c0,7.5,0,15,0,22.6"/>
		<g>
			<path d="M52,290c0,7.5,0,15,0,22.6c0,1,1.5,1,1.5,0c0-7.5,0-15,0-22.6C53.5,289,52,289,52,290L52,290z"/>
		</g>
	</g>
	<g>
		<path class="st0" d="M63.7,345.8c0-7.9,0-15.8,0-23.7"/>
		<g>
			<path d="M64.5,345.8c0-7.9,0-15.8,0-23.7c0-1-1.5-1-1.5,0c0,7.9,0,15.8,0,23.7C63,346.7,64.5,346.7,64.5,345.8L64.5,345.8z"/>
		</g>
	</g>
	<g>
		<path class="st0" d="M93.8,356.5c0-5.1,0-10.3,0-15.4"/>
		<g>
			<path d="M94.6,356.5c0-5.1,0-10.3,0-15.4c0-1-1.5-1-1.5,0c0,5.1,0,10.3,0,15.4C93.1,357.4,94.6,357.4,94.6,356.5L94.6,356.5z"/>
		</g>
	</g>
	<g>
		<path class="st0" d="M149.9,144c-4.6-4-9.1-7.9-13.7-11.9"/>
		<g>
			<path d="M150.4,143.4c-4.6-4-9.1-7.9-13.7-11.9c-0.7-0.6-1.8,0.4-1.1,1.1c4.6,4,9.1,7.9,13.7,11.9
				C150.1,145.1,151.1,144.1,150.4,143.4L150.4,143.4z"/>
		</g>
	</g>
	<g>
		<path class="st0" d="M188.2,186.7c0-9.5,0-19,0-28.5"/>
		<g>
			<path d="M188.9,186.7c0-9.5,0-19,0-28.5c0-1-1.5-1-1.5,0c0,9.5,0,19,0,28.5C187.4,187.7,188.9,187.7,188.9,186.7L188.9,186.7z"/>
		</g>
	</g>
	<g>
		<path class="st0" d="M199.1,115.5c5.5-4.7,10.9-9.5,16.4-14.2"/>
		<g>
			<path d="M199.7,116c5.5-4.7,10.9-9.5,16.4-14.2c0.7-0.6-0.3-1.7-1.1-1.1c-5.5,4.7-10.9,9.5-16.4,14.2
				C197.9,115.6,198.9,116.7,199.7,116L199.7,116z"/>
		</g>
	</g>
	<g>
		<path class="st0" d="M201.9,293.5c0-9.5,0-19,0-28.5"/>
		<g>
			<path d="M202.6,293.5c0-9.5,0-19,0-28.5c0-1-1.5-1-1.5,0c0,9.5,0,19,0,28.5C201.1,294.5,202.6,294.5,202.6,293.5L202.6,293.5z"/>
		</g>
	</g>
	<g>
		<path class="st0" d="M114.5,224.5c8.5,5.2,15.8,11.8,21.6,19.3"/>
		<g>
			<path d="M114.1,225.1c8.2,5.2,15.5,11.5,21.5,19.1c0.6,0.8,1.6-0.3,1.1-1.1c-6.1-7.7-13.4-14.2-21.8-19.4
				C114,223.3,113.3,224.6,114.1,225.1L114.1,225.1z"/>
		</g>
	</g>
	<g>
		<path class="st0" d="M152.6,333.9c-5.5-4.7-10.9-9.5-16.4-14.2"/>
		<g>
			<path d="M153.2,333.4c-5.5-4.7-10.9-9.5-16.4-14.2c-0.7-0.6-1.8,0.4-1.1,1.1c5.5,4.7,10.9,9.5,16.4,14.2
				C152.8,335.1,153.9,334,153.2,333.4L153.2,333.4z"/>
		</g>
	</g>
	<g>
		<path class="st0" d="M180,398c6.4-5.5,12.8-11.1,19.2-16.6"/>
		<g>
			<path d="M180.5,398.5c6.4-5.5,12.8-11.1,19.2-16.6c0.7-0.6-0.3-1.7-1.1-1.1c-6.4,5.5-12.8,11.1-19.2,16.6
				C178.7,398.1,179.8,399.2,180.5,398.5L180.5,398.5z"/>
		</g>
	</g>
	<g>
		<path class="st0" d="M188.1,424.1c2.7-4.7,5.5-9.5,8.2-14.2"/>
		<g>
			<path d="M188.7,424.5c2.7-4.7,5.5-9.5,8.2-14.2c0.5-0.8-0.8-1.6-1.3-0.8c-2.7,4.7-5.5,9.5-8.2,14.2
				C187,424.5,188.3,425.3,188.7,424.5L188.7,424.5z"/>
		</g>
	</g>
	<g>
		<path class="st0" d="M158.1,388.5c0-0.8,0-1.6,0-2.4"/>
		<g>
			<path d="M158.8,388.5c0-0.8,0-1.6,0-2.4c0-1-1.5-1-1.5,0c0,0.8,0,1.6,0,2.4C157.3,389.5,158.8,389.5,158.8,388.5L158.8,388.5z"/>
		</g>
	</g>
	<g>
		<path class="st0" d="M174.5,462.1c1.3-13.1,4.9-26,10.7-38.1"/>
		<g>
			<path d="M175.3,462.1c1.4-13.1,5-25.7,10.6-37.7c0.4-0.9-0.9-1.6-1.3-0.8c-5.7,12.2-9.3,25.1-10.8,38.5
				C173.7,463.1,175.2,463.1,175.3,462.1L175.3,462.1z"/>
		</g>
	</g>
	<g>
		<path class="st0" d="M163.6,241.3c0-4.7,0-9.5,0-14.2"/>
		<g>
			<path d="M164.3,241.3c0-4.7,0-9.5,0-14.2c0-1-1.5-1-1.5,0c0,4.7,0,9.5,0,14.2C162.8,242.3,164.3,242.3,164.3,241.3L164.3,241.3z"
				/>
		</g>
	</g>
	<g>
		<path class="st0" d="M199.5,141.7c1.8-4.8,3.6-9.5,5.4-14.3"/>
		<g>
			<path d="M200.2,141.9c1.8-4.8,3.6-9.5,5.4-14.3c0.3-0.9-1.1-1.3-1.4-0.4c-1.8,4.8-3.6,9.5-5.4,14.3
				C198.4,142.4,199.8,142.8,200.2,141.9L200.2,141.9z"/>
		</g>
	</g>
	<g>
		<path class="st0" d="M139.1,577.3c5.7-7.3,20.6-6.5,25.2,1.4"/>
		<g>
			<path class="st2" d="M140.2,578.4c5.5-6.5,18-6.3,22.8,1.1c1,1.6,3.6,0.1,2.6-1.5c-5.8-8.9-20.7-9.7-27.5-1.7
				C136.8,577.7,138.9,579.9,140.2,578.4L140.2,578.4z"/>
		</g>
	</g>
	<g>
		<path class="st0" d="M180.4,556.4c7.5-4.5,18-4.8,25.8-0.8"/>
		<g>
			<path class="st2" d="M181.1,557.7c7.5-4.2,16.5-4.5,24.3-0.8c1.7,0.8,3.3-1.8,1.5-2.6c-8.8-4.2-18.9-4-27.3,0.8
				C177.9,556,179.4,558.6,181.1,557.7L181.1,557.7z"/>
		</g>
	</g>
	<g>
		<path class="st0" d="M241.4,575.6c9.9-1.9,20.6,0.1,28.8,5.3"/>
		<g>
			<path class="st2" d="M241.8,577.1c9.6-1.6,19.3,0,27.6,5.1c1.7,1,3.2-1.6,1.5-2.6c-9.1-5.5-19.5-7.2-29.9-5.4
				C239.1,574.5,239.9,577.4,241.8,577.1L241.8,577.1z"/>
		</g>
	</g>
	<g>
		<path class="st0" d="M192.3,574.9c6.8-2.6,14.7-3.1,21.9-1.3"/>
		<g>
			<path class="st2" d="M192.7,576.4c6.9-2.4,14-2.9,21.1-1.3c1.9,0.4,2.7-2.5,0.8-2.9c-7.6-1.7-15.3-1.3-22.7,1.3
				C190.1,574.1,190.9,577,192.7,576.4L192.7,576.4z"/>
		</g>
	</g>
</g>
</svg>
