<?xml version="1.0" encoding="utf-8"?>
<!-- Generator: Adobe Illustrator 22.0.1, SVG Export Plug-In . SVG Version: 6.00 Build 0)  -->
<svg version="1.1" id="Layer_1" xmlns="http://www.w3.org/2000/svg" xmlns:xlink="http://www.w3.org/1999/xlink" x="0px" y="0px"
	 width="733px" height="386px" viewBox="0 0 733 386" style="enable-background:new 0 0 733 386;" xml:space="preserve">
<style type="text/css">
	.st0{fill:#894A20;}
	.st1{fill:#C97F3D;}
	.st2{fill:#F2B153;}
</style>
<g>
	<path class="st0" d="M105.4,288.1v-19.6c0,0,38.7-9.5,55.4-11.5s21.2,1.4,27.7-10.8c6.6-12.2,13.9-10.2,13.9-33.2s2.2-20.3,0-38.6
		c-2.2-18.3-5.1-23,54-27.8c59.1-4.7,62-3.4,63.5-13.5c1.5-10.2-5.8-32.5,0-38.6s8.8-27.8,8.8-36.6s-19-34.5,5.8-33.9
		c24.8,0.7,38.7,0,59.1,0s41.6-16.3,32.1,9.5c-9.5,25.7-23.3,25.1-24.8,44c-1.5,19-5.1,33.9-5.1,43.3s-1.5,13.5-0.7,21
		c0.7,7.4,13.9,10.2,19.7,6.1c5.8-4.1,10.2,2,5.8-18.3c-4.4-20.3-4.4-7.4-2.2-33.2s4.4-16.3,9.5-40.6c5.1-24.4-10.9-27.8,8.8-29.8
		s10.2,4.1,32.8,2c22.6-2,50.3-2,54.7-2s27.7-3.4,32.1,10.8s8.8,37.9,0,57.6s-12.4,14.9-11.7,33.9s2.9,42,2.9,42s10.2,8.8,27.7,12.2
		c17.5,3.4,32.1-6.1,28.5,14.9s-16.8,29.8,8,38.6c24.8,8.8,43,6.8,39.4,21c-3.6,14.2-3.6,24.4,19,31.1c22.6,6.8,20.4,13.5,16.8,17.6
		c-3.6,4.1,75.9,21-71.5,10.8c-147.4-10.2-167.8-2.7-232.7-2s-153.9-3.4-191.9,5.4s-66.4,3.4-85.4,0s-16.8-19-13.1-24.4
		S105.4,292.9,105.4,288.1z"/>
	<path class="st1" d="M54.2,325.7v-20.9c0,0,41.2-10.1,59-12.3s22.5,1.4,29.5-11.5s14.8-10.8,14.8-35.3s2.3-21.6,0-41.1
		c-2.3-19.5-5.4-24.5,57.5-29.6s66-3.6,67.6-14.4c1.6-10.8-6.2-34.6,0-41.1s9.3-29.6,9.3-38.9s-20.2-36.8,6.2-36s41.2,0,62.9,0
		s44.3-17.3,34.2,10.1s-24.8,26.7-26.4,46.8s-5.4,36-5.4,46.1s-1.6,14.4-0.8,22.3c0.8,7.9,14.8,10.8,21,6.5
		c6.2-4.3,10.9,2.2,6.2-19.5c-4.7-21.6-4.7-7.9-2.3-35.3s4.7-17.3,10.1-43.2c5.4-25.9-11.6-29.6,9.3-31.7s10.9,4.3,34.9,2.2
		s53.6-2.2,58.2-2.2c4.7,0,29.5-3.6,34.2,11.5s9.3,40.4,0,61.3c-9.3,20.9-13.2,15.9-12.4,36s3.1,44.7,3.1,44.7s10.9,9.4,29.5,13
		c18.6,3.6,34.2-6.5,30.3,15.9s-17.9,31.7,8.5,41.1c26.4,9.4,45.8,7.2,41.9,22.3s-3.9,25.9,20.2,33.2s21.7,14.4,17.9,18.7
		c-3.9,4.3,80.8,22.3-76.1,11.5s-178.6-2.9-247.7-2.2c-69.1,0.7-163.8-3.6-204.2,5.8c-40.4,9.4-70.7,3.6-90.9,0
		c-20.2-3.6-17.9-20.2-14-25.9C44.1,327.8,54.2,330.7,54.2,325.7z"/>
	<path class="st0" d="M84.1,314.2v-18.9c0,0,37.2-9.1,53.4-11.1c16.2-2,20.4,1.3,26.7-10.4s13.4-9.8,13.4-32s2.1-19.6,0-37.2
		c-2.1-17.6-4.9-22.2,52-26.7s59.7-3.3,61.1-13s-5.6-31.3,0-37.2c5.6-5.9,8.4-26.7,8.4-35.2s-18.3-33.3,5.6-32.6
		c23.9,0.7,37.2,0,56.9,0s40.1-15.7,30.9,9.1s-22.5,24.1-23.9,42.4s-4.9,32.6-4.9,41.7s-1.4,13-0.7,20.2c0.7,7.2,13.4,9.8,19,5.9
		c5.6-3.9,9.8,2,5.6-17.6s-4.2-7.2-2.1-32c2.1-24.8,4.2-15.7,9.1-39.1c4.9-23.5-10.5-26.7,8.4-28.7s9.8,3.9,31.6,2s48.5-2,52.7-2
		s26.7-3.3,30.9,10.4c4.2,13.7,8.4,36.5,0,55.4c-8.4,18.9-11.9,14.3-11.2,32.6c0.7,18.3,2.8,40.4,2.8,40.4s9.8,8.5,26.7,11.7
		c16.9,3.3,30.9-5.9,27.4,14.3s-16.2,28.7,7.7,37.2c23.9,8.5,41.5,6.5,37.9,20.2c-3.5,13.7-3.5,23.5,18.3,30s19.7,13,16.2,17
		s73.1,20.2-68.9,10.4s-161.6-2.6-224.2-2c-62.5,0.7-148.3-3.3-184.8,5.2c-36.5,8.5-63.9,3.3-82.2,0c-18.3-3.3-16.2-18.3-12.6-23.5
		S84.1,318.8,84.1,314.2z"/>
	<path class="st1" d="M36.3,332.3v-20.2c0,0,39.8-9.8,57-11.8c17.3-2.1,21.8,1.4,28.5-11.1s14.3-10.4,14.3-34.1s2.3-20.9,0-39.7
		c-2.3-18.8-5.3-23.7,55.5-28.6s63.8-3.5,65.3-13.9c1.5-10.4-6-33.4,0-39.7c6-6.3,9-28.6,9-37.6s-19.5-35.5,6-34.8
		c25.5,0.7,39.8,0,60.8,0s42.8-16.7,33,9.8s-24,25.8-25.5,45.3c-1.5,19.5-5.3,34.8-5.3,44.6c0,9.8-1.5,13.9-0.8,21.6
		c0.8,7.7,14.3,10.4,20.3,6.3s10.5,2.1,6-18.8s-4.5-7.7-2.3-34.1s4.5-16.7,9.8-41.8c5.3-25.1-11.3-28.6,9-30.6
		c20.3-2.1,10.5,4.2,33.8,2.1c23.3-2.1,51.8-2.1,56.3-2.1s28.5-3.5,33,11.1s9,39,0,59.2c-9,20.2-12.8,15.3-12,34.8
		c0.8,19.5,3,43.2,3,43.2s10.5,9.1,28.5,12.5c18,3.5,33-6.3,29.3,15.3s-17.3,30.6,8.3,39.7c25.5,9.1,44.3,7,40.5,21.6
		c-3.8,14.6-3.8,25.1,19.5,32s21,13.9,17.3,18.1c-3.8,4.2,78.1,21.6-73.5,11.1s-172.6-2.8-239.4-2.1c-66.8,0.7-158.4-3.5-197.4,5.6
		s-68.3,3.5-87.8,0S19,345.6,22.8,340S36.3,337.2,36.3,332.3z"/>
	<g>
		<g>
			<path class="st2" d="M312.3,103.9c4.9-0.7,9.7-1.5,14.6-2.1c2.4-0.3,10.6-1.7,8,5.2c-0.9,2.3-3.9,3.9-5.9,5.1
				c-3.7,2.4-8.7,5.6-7.7,10.8c0.6,3.2,3.6,5.2,5,8c2.2,4.1,2.3,9.2,2.9,13.8c1.2,9.6,2.9,19.1-6,25.7c-1.5,1.1,0,3.8,1.5,2.6
				c8-6,9.3-13.9,8.1-23.3c-0.6-5-1-10.3-2.1-15.2c-0.5-2.3-1.4-4.4-2.7-6.4c-2-3.1-5.3-6.5-1.9-10c3.8-3.9,16.2-8.5,11.6-16.2
				c-1.8-3-5.5-3.4-8.7-3.2c-5.9,0.4-11.8,1.6-17.6,2.5C309.6,101.3,310.4,104.2,312.3,103.9L312.3,103.9z"/>
		</g>
	</g>
	<g>
		<g>
			<path class="st2" d="M411,235.1c12.8-1.4,26-2.7,38.7,0c9.5,2,19.1,5.9,28.5,1.5c-0.7-0.6-1.5-1.1-2.2-1.7
				c-2.5,11.4,4.7,21.8,15,26.1c5.7,2.4,12,3.1,18.1,2.5c7.6-0.8,14.7-3.6,21.3,1.9c4.7,3.9,7.4,9.9,9.4,15.6c0.5,1.6,0.6,3.6,2,4.6
				c2.9,2.2,8.5,2.8,11.9,3.9c7.9,2.5,15.8,4.8,23.8,6.9c3.6,0.9,8.8,1.2,12,3c2.3,1.2,3.1,4.9,4.6,7c7.4,10.8,20.8,16.5,33.7,15.6
				c1.9-0.1,1.9-3.1,0-3c-8.5,0.6-16.9-1.6-23.8-6.7c-3.2-2.3-6-5.2-8-8.5c-1.4-2.2-1.8-5.3-3.8-6.8c-1.3-1-4.8-1.2-6.5-1.6
				c-2.2-0.5-4.3-1.1-6.5-1.6c-4.9-1.3-9.8-2.6-14.7-4.1c-4.3-1.2-8.5-2.6-12.7-3.9c-2-0.6-5.6-1.1-7.2-2.4
				c-1.5-1.2-1.6-2.6-2.3-4.4c-3.9-10.7-11.3-21.5-24.2-20c-8.6,1-16.1,2.9-24.6-0.2c-9.5-3.4-16.9-12.7-14.5-23.1
				c0.3-1.3-1-2.2-2.2-1.7c-10.1,4.7-21.8-1.5-32.1-2.8c-11.2-1.4-22.5-0.3-33.6,0.9C409.1,232.3,409,235.3,411,235.1L411,235.1z"/>
		</g>
	</g>
	<g>
		<g>
			<path class="st2" d="M212.2,267.3c25.1-4.9,50.9-5.1,76.1-0.6c-0.1-0.9-0.2-1.8-0.4-2.7c-5.8,3.6-8,11.9-2.4,16.9
				c2.5,2.3,6.1,3.3,9.4,3c3.2-0.3,11.1-6.5,13.4-4c-0.1-0.6-0.2-1.2-0.2-1.8c-2.1,4.5-4.4,10-1.5,14.7c2.3,3.7,6.8,4.8,10.9,5.1
				c6.9,0.5,13.4-0.3,20.2,1.4c7.1,1.7,13.8,4.8,20.5,7.5c6.3,2.6,12.8,4.9,19.5,5.9c6.8,1,13.6,0.3,20.4,0.7
				c4.1,0.3,8.2,0.9,11.9,2.9c3.1,1.7,5.5,4.4,8.3,6.4c5.2,3.7,11.5,4.5,17.6,3.3c1.9-0.4,1.1-3.3-0.8-2.9
				c-8.8,1.8-14.1-2.3-20.7-7.4c-3.7-2.8-7.9-4.2-12.4-4.9c-5.6-0.8-11.3-0.4-16.9-0.6c-6.4-0.1-12.5-1.3-18.6-3.4
				c-10.9-3.8-21.3-9.5-32.8-11.3c-5-0.8-10-0.3-15-0.5c-2.5-0.1-5.6-0.3-7.7-1.8c-4.8-3.3-2.4-9.4-0.5-13.6
				c0.3-0.6,0.3-1.3-0.2-1.8c-3.3-3.5-7.5-0.6-10.9,1.3c-3.8,2.1-8.3,2.9-11.9-0.3c-4.1-3.6-2.4-9.6,1.8-12.2c1-0.6,1-2.5-0.4-2.7
				c-25.7-4.6-52-4.4-77.7,0.6C209.5,264.7,210.3,267.6,212.2,267.3L212.2,267.3z"/>
		</g>
	</g>
	<g>
		<g>
			<path class="st2" d="M158.9,319.9c6.9-1.6,13.8-3,20.8-4.2c7.5-1.3,18.1-5.1,23.5,1.9c5.8,7.5,13.4,13.2,23.3,13.5
				c5,0.2,9.4-1.5,13.7-3.9c6.5-3.7,12.1-6.2,19.7-5.9c7.2,0.3,14.4,1.8,21.5,2.9c2.7,0.4,21.8,1.5,19.8,7.3
				c-0.6,1.8,2.3,2.6,2.9,0.8c1.3-3.9-1.8-6.4-5.1-7.8c-6.5-2.8-14.8-2.8-21.7-3.9c-7.1-1.1-14.4-2.7-21.5-2.2
				c-7.3,0.5-12.3,3.8-18.5,7.1c-7.2,3.8-15.1,3.3-22.1-0.7c-3.3-1.9-6.1-4.4-8.4-7.4c-1.6-2.1-2.9-4.3-5.4-5.6
				c-5.2-2.8-12.3-0.6-17.7,0.3c-8.6,1.4-17.1,3.1-25.5,5C156.2,317.5,157,320.4,158.9,319.9L158.9,319.9z"/>
		</g>
	</g>
	<g>
		<g>
			<path class="st2" d="M468.4,107.5c-5.2-0.9-10.5-1.9-15.7-2.8c-3.6-0.7-7.8-2.1-11.5-1.7c-6.6,0.6-6,8.5-11.1,10.9
				c0.7,0.3,1.5,0.6,2.2,0.9c-0.8-2.6-1.5-5.3-2.3-7.9c-0.3-1.1-2.2-1.6-2.7-0.4c-1.8,4.1-3.7,8.2-5.5,12.4
				c-0.8,1.7,1.8,3.3,2.6,1.5c1.8-4.1,3.7-8.2,5.5-12.4c-0.9-0.1-1.8-0.2-2.7-0.4c0.8,2.6,1.5,5.3,2.3,7.9c0.3,1,1.3,1.3,2.2,0.9
				c4.5-2.1,4.6-8.8,9-10.4c3.3-1.2,9.9,1.3,13.3,1.9c4.6,0.8,9.2,1.7,13.8,2.5C469.5,110.7,470.3,107.8,468.4,107.5L468.4,107.5z"
				/>
		</g>
	</g>
	<g>
		<g>
			<path class="st0" d="M403,77.7c7-1.7,14.6-3.7,21.7-1.4c7.6,2.5,11.5,9.3,7.6,16.7c-3.4,6.5-11.7,16.1-4.5,23.2
				c1.4,1.4,3.2,1.9,4.8,3c4.2,2.7,3.8,6.7,1.7,10.7c-2.3,4.6-6.5,8-8.7,12.7c-1.5,3.1-2.4,6.7-0.9,10c0.7,1.5,1.9,2.6,3.2,3.5
				c1.6,1.1,10.5,4,7.1,7.4c-1.4,1.4,0.8,3.5,2.1,2.1c2.7-2.7,1.5-6.5-1.3-8.7c-2.9-2.4-7.7-2.4-8.8-6.7c-1-4,2.3-8.6,4.6-11.6
				c3.1-3.9,6.6-7.9,7.2-13.1c0.6-5.3-2.5-7.4-6.5-9.8c-9.2-5.7-0.9-14.6,2.5-21.1c2.4-4.5,3.2-9.5,0.4-14
				c-7.1-11.2-22.4-8.3-33-5.7C400.3,75.2,401.1,78.1,403,77.7L403,77.7z"/>
		</g>
	</g>
	<g>
		<g>
			<path class="st0" d="M179.8,235.2c32.1-11.8,66.7-15.1,100.5-9.7c-0.4-0.5-0.7-1-1.1-1.4c-0.6,5.3-1.2,10.7-1.7,16
				c-0.3,3.4-0.6,7.2,0.9,10.4c3.2,6.8,11.6,6.6,18,6.2c23-1.2,46.1-3.6,69.1-3.8c7-0.1,21.9,1.5,19.4,11.9
				c-1.5,6.3-8.7,12.6-4,19.5c1.6,2.3,4.1,3.2,6.7,3.1c5-0.1,9.2-2.4,14.4-1.4c10.5,2,19.7,13.6,15.2,24.5c-1.5,3.7-4.6,2.6-8,2.3
				c-3.2-0.3-6.5-0.5-9.7-0.7c-6.5-0.4-12.9-0.6-19.4-0.8c-13-0.3-25.9,0-38.8,0.6c-1.9,0.1-1.9,3.1,0,3c25.2-1.3,50.5-0.8,75.7,1.5
				c0.5,0,1.1-0.3,1.3-0.7c5.7-11.3,2.1-24.9-9.6-30.6c-5.5-2.7-11.1-2.9-17-1.6c-3.3,0.7-7.9,1.7-9.1-2.6c-0.4-1.7-0.1-3.6,0.4-5.2
				c1.2-3.8,4.1-6.8,4.9-10.8c2.2-11.1-11-14.4-19.4-14.9c-8.4-0.4-17,0.7-25.4,1.1c-9.3,0.5-18.6,1-27.9,1.6
				c-5.6,0.3-11.3,0.6-16.9,1c-4.3,0.2-9.3,1-13.3-0.9c-5.5-2.5-4.9-8.5-4.4-13.5c0.5-5,1.1-10.1,1.6-15.1c0.1-0.6-0.5-1.4-1.1-1.4
				c-34.3-5.5-69.5-2.3-102.1,9.7C177.2,233,178,235.9,179.8,235.2L179.8,235.2z"/>
		</g>
	</g>
	<g>
		<g>
			<path class="st0" d="M135,324c36.5,4,71.7-8.7,107.9-10c4.3-0.2,8.6-0.1,12.8,0.1c2.9,0.2,5.5,0.1,7.8,1.9
				c2.1,1.6,2.3,3.4,3.5,5.7c2.2,4.1,6.5,6.6,11,7.5c2.1,0.4,4.3,0.4,6.5,0.1c3-0.5,4.8-2.1,7.4-3.1c0.2-0.1,0.5-0.6,0.7-0.6
				c1.2-0.2,1.1,0.9,1.1,2.2c0,1.7-1,3.2-1.8,4.7c-1.2,2.2-2.6,4.3-2.8,7c-0.4,7.6,9.5,6.1,14.4,6.2c11,0.3,22,0.6,32.9,0.8
				c1.9,0,1.9-3,0-3c-7.1-0.2-14.2-0.4-21.3-0.5c-3.6-0.1-7.1-0.2-10.7-0.3c-2.9-0.1-11.2,1-12.5-2.7c-1-3.1,4.4-8.5,4.6-12
				c0.2-3-1-5-3.7-6c-0.5-0.2-1.1,0-1.5,0.4c-4.1,4.6-11.2,5.4-16.8,2.8c-2.9-1.4-4.7-3.4-5.9-6.3c-0.8-1.9-1.4-4-3.2-5.4
				c-4-3.3-11.8-2.4-16.6-2.4c-7.7,0-15.3,0.5-22.9,1.4c-30.4,3.5-60.6,12.1-91.4,8.7C133.1,320.8,133.1,323.8,135,324L135,324z"/>
		</g>
	</g>
	<g>
		<g>
			<path class="st0" d="M473.8,318c14.6-1.5,29.1-3,43.7-4.5c7.3-0.8,14.6-1.5,21.8-2.3c3.6-0.4,7.3-0.8,10.9-1.1
				c3.2-0.3,8.2-1.8,11.3-0.7c6.1,2.1,5.1,14.3,5.8,19.3c0.6,4.7,1.8,9.3,5,12.9c4.9,5.5,13.2,8.2,19.3,3.4c1.5-1.2-0.6-3.3-2.1-2.1
				c-4.8,3.8-11.5,0.7-15.1-3.4c-4.3-4.8-4.2-11.9-4.9-17.9c-0.4-4.2-0.8-9.6-3.8-12.9c-3-3.3-7.7-2.4-11.6-2
				c-26.8,2.8-53.6,5.6-80.4,8.4C471.8,315.2,471.8,318.2,473.8,318L473.8,318z"/>
		</g>
	</g>
	<g>
		<g>
			<path class="st0" d="M341.5,75.1c-12.8,1.5-18,13.2-19.3,24.7c-1.9,17.1-2.8,34.3-4.2,51.4c-0.2,1.9,2.8,1.9,3,0
				c1.1-13.6,2.2-27.1,3.3-40.7c1-12.1,1.5-30.7,17.2-32.5C343.4,77.9,343.4,74.9,341.5,75.1L341.5,75.1z"/>
		</g>
	</g>
</g>
</svg>
