<?xml version="1.0" encoding="utf-8"?>
<!-- Generator: Adobe Illustrator 22.0.1, SVG Export Plug-In . SVG Version: 6.00 Build 0)  -->
<svg version="1.1" id="Layer_1" xmlns="http://www.w3.org/2000/svg" xmlns:xlink="http://www.w3.org/1999/xlink" x="0px" y="0px"
	 width="733px" height="386px" viewBox="0 0 733 386" style="enable-background:new 0 0 733 386;" xml:space="preserve">
<style type="text/css">
	.st0{fill:#894A20;}
	.st1{fill:#C97F3D;}
	.st2{fill:#F2B153;}
</style>
<g>
	<path class="st0" d="M109.2,336.7c9.2-23.5,4-25.4,10.1-39.2s8.1-18.4,20.2-17.9s14.8,12.1,17.5-5.2c2.7-17.3-4.4-32.6-0.3-42.4
		s0-20.2,0.7-30c0.7-9.8-6.7-20.2-4.7-30.5S146,143.9,150,133c4-10.9-2.7-21.3,0-36.9c2.7-15.6-2.7-17.3,2-27.1
		c4.7-9.8,3.4-13.8,28.3-11.5s23.6,3.5,38.4,17.3s12.1,28.2,6.1,34c-6.1,5.8-8.1,20.2-8.1,24.2c0,4-1.3,28.8-1.3,28.8s0-0.6,0,23.6
		s1.3,29.4,5.4,34.6s0.7,7.5-1.3,21.3c-2,13.8-8.8,25.4-0.7,32.3s13.5,9.2,24.9,4c11.5-5.2,4.7-19.6,10.1-25.4
		c5.4-5.8,12.8-8.6,14.1-26.5c1.3-17.9,0-31.7,0-57.6s0-34,0.7-59.4c0.7-25.4-25.6-30.5-13.5-51.9s13.5,51.9,32.3-30
		c18.9-17.3,51.2-16.7,55.2-17.9s34.4-1.7,42.4,0s22.2-0.6,14.1,19.6c-8.1,20.2-10.1,29.4-8.1,32.8c2,3.5,14.8-3.5,23.6-4.6
		c8.8-1.2,25.6-3.5,30.3-4.6c4.7-1.2,18.9-15.6,18.9-15.6l33.7-12.1c0,0,31-7.5,37.1-6.9s29.6,21.9,17.5,24.8
		c-12.1,2.9-6.1,23.1,3.4,34c9.4,10.9,20.9,35.2,33,38.6c12.1,3.5,0,30.5,0,31.7c0,1.2-37.1,32.8-33.7,38.6c3.4,5.8,0,21.3,6.1,30
		c6.1,8.6-7.4,34,16.2,40.9c23.6,6.9,13.5,39.2,25.6,43.2c12.1,4,19.5,17.9,14.8,24.8c-4.7,6.9-14.1,26.5-10.1,30.5
		c4,4-49.9,24.8-87.6,14.4c-37.7-10.4-77.5-6.3-138.8-8.6s-118.6-2.9-139.5-1.7s-64,6.3-82.9-4s-9.4-7.5-32.3-6.3
		S107.6,341,109.2,336.7z"/>
	<path class="st1" d="M90.4,343.1c9.2-23.5,4-25.4,10.1-39.2s8.1-18.4,20.2-17.9c12.1,0.6,14.8,12.1,17.5-5.2
		c2.7-17.3-4.4-32.6-0.3-42.4c4-9.8,0-20.2,0.7-30c0.7-9.8-6.7-20.2-4.7-30.5s-6.7-27.7-2.7-38.6c4-10.9-2.7-21.3,0-36.9
		c2.7-15.6-2.7-17.3,2-27.1c4.7-9.8,3.4-13.8,28.3-11.5c24.9,2.3,23.6,3.5,38.4,17.3s12.1,28.2,6.1,34c-6.1,5.8-8.1,20.2-8.1,24.2
		c0,4-1.3,28.8-1.3,28.8s0-0.6,0,23.6s1.3,29.4,5.4,34.6c4,5.2,0.7,7.5-1.3,21.3c-2,13.8-8.8,25.4-0.7,32.3s13.5,9.2,24.9,4
		c11.5-5.2,4.7-19.6,10.1-25.4c5.4-5.8,12.8-8.6,14.1-26.5c1.3-17.9,0-31.7,0-57.6s0-34,0.7-59.4s-25.6-30.5-13.5-51.9
		s13.5,51.9,32.3-30c18.9-17.3,51.2-16.7,55.2-17.9c4-1.2,34.4-1.7,42.4,0c8.1,1.7,22.2-0.6,14.1,19.6c-8.1,20.2-10.1,29.4-8.1,32.8
		c2,3.5,14.8-3.5,23.6-4.6c8.8-1.2,25.6-3.5,30.3-4.6c4.7-1.2,18.9-15.6,18.9-15.6L478.8,31c0,0,31-7.5,37.1-6.9
		c6.1,0.6,29.6,21.9,17.5,24.8c-12.1,2.9-6.1,23.1,3.4,34s20.9,35.2,33,38.6s0,30.5,0,31.7c0,1.2-37.1,32.8-33.7,38.6
		c3.4,5.8,0,21.3,6.1,30c6.1,8.6-7.4,34,16.2,40.9c23.6,6.9,13.5,39.2,25.6,43.2c12.1,4,19.5,17.9,14.8,24.8s-14.1,26.5-10.1,30.5
		c4,4-49.9,24.8-87.6,14.4c-37.7-10.4-77.5-6.3-138.8-8.6s-118.6-2.9-139.5-1.7c-20.9,1.2-64,6.3-82.9-4s-9.4-7.5-32.3-6.3
		S88.7,347.4,90.4,343.1z"/>
	<path class="st0" d="M134.7,350c7.4-18.9,3.3-20.4,8.1-31.5c4.9-11.1,6.5-14.8,16.3-14.4s11.9,9.7,14.1-4.2s-3.5-26.2-0.3-34.1
		c3.3-7.9,0-16.2,0.5-24.1s-5.4-16.2-3.8-24.6s-5.4-22.2-2.2-31.1c3.3-8.8-2.2-17.1,0-29.7c2.2-12.5-2.2-13.9,1.6-21.8
		c3.8-7.9,2.7-11.1,22.8-9.3s19,2.8,30.9,13.9c11.9,11.1,9.8,22.7,4.9,27.3c-4.9,4.6-6.5,16.2-6.5,19.5c0,3.2-1.1,23.2-1.1,23.2
		s0-0.5,0,19s1.1,23.6,4.3,27.8c3.3,4.2,0.5,6-1.1,17.1c-1.6,11.1-7,20.4-0.5,26s10.8,7.4,20,3.2s3.8-15.8,8.1-20.4
		c4.3-4.6,10.3-7,11.4-21.3s0-25.5,0-46.3s0-27.3,0.5-47.7c0.5-20.4-20.6-24.6-10.8-41.7c9.8-17.1,10.8,41.7,26-24.1
		c15.2-13.9,41.2-13.4,44.4-14.4c3.3-0.9,27.6-1.4,34.1,0c6.5,1.4,17.9-0.5,11.4,15.8s-8.1,23.6-6.5,26.4c1.6,2.8,11.9-2.8,19-3.7
		c7-0.9,20.6-2.8,24.4-3.7c3.8-0.9,15.2-12.5,15.2-12.5l27.1-9.7c0,0,24.9-6,29.8-5.6c4.9,0.5,23.8,17.6,14.1,19.9
		c-9.8,2.3-4.9,18.5,2.7,27.3c7.6,8.8,16.8,28.3,26.5,31.1c9.8,2.8,0,24.6,0,25.5s-29.8,26.4-27.1,31.1c2.7,4.6,0,17.1,4.9,24.1
		s-6,27.3,13,32.9s10.8,31.5,20.6,34.8s15.7,14.4,11.9,19.9s-11.4,21.3-8.1,24.6c3.3,3.2-40.1,19.9-70.4,11.6
		c-30.3-8.3-62.3-5.1-111.6-7c-49.3-1.9-95.4-2.3-112.2-1.4c-16.8,0.9-51.5,5.1-66.6-3.2c-15.2-8.3-7.6-6-26-5.1
		C130.1,360.4,133.4,353.5,134.7,350z"/>
	<path class="st1" d="M109.1,348.8c7.4-18.9,3.3-20.4,8.1-31.5c4.9-11.1,6.5-14.8,16.3-14.4c9.8,0.5,11.9,9.7,14.1-4.2
		c2.2-13.9-3.5-26.2-0.3-34.1c3.3-7.9,0-16.2,0.5-24.1s-5.4-16.2-3.8-24.6c1.6-8.3-5.4-22.2-2.2-31.1c3.3-8.8-2.2-17.1,0-29.7
		c2.2-12.5-2.2-13.9,1.6-21.8s2.7-11.1,22.8-9.3c20,1.9,19,2.8,30.9,13.9c11.9,11.1,9.8,22.7,4.9,27.3c-4.9,4.6-6.5,16.2-6.5,19.5
		s-1.1,23.2-1.1,23.2s0-0.5,0,19s1.1,23.6,4.3,27.8c3.3,4.2,0.5,6-1.1,17.1c-1.6,11.1-7,20.4-0.5,26s10.8,7.4,20,3.2
		s3.8-15.8,8.1-20.4c4.3-4.6,10.3-7,11.4-21.3s0-25.5,0-46.3s0-27.3,0.5-47.7s-20.6-24.6-10.8-41.7c9.8-17.1,10.8,41.7,26-24.1
		c15.2-13.9,41.2-13.4,44.4-14.4c3.3-0.9,27.6-1.4,34.1,0c6.5,1.4,17.9-0.5,11.4,15.8c-6.5,16.2-8.1,23.6-6.5,26.4s11.9-2.8,19-3.7
		c7-0.9,20.6-2.8,24.4-3.7s15.2-12.5,15.2-12.5l27.1-9.7c0,0,24.9-6,29.8-5.6c4.9,0.5,23.8,17.6,14.1,19.9
		c-9.8,2.3-4.9,18.5,2.7,27.3c7.6,8.8,16.8,28.3,26.5,31.1c9.8,2.8,0,24.6,0,25.5c0,0.9-29.8,26.4-27.1,31.1
		c2.7,4.6,0,17.1,4.9,24.1c4.9,7-6,27.3,13,32.9s10.8,31.5,20.6,34.8c9.8,3.2,15.7,14.4,11.9,19.9c-3.8,5.6-11.4,21.3-8.1,24.6
		c3.3,3.2-40.1,19.9-70.4,11.6c-30.3-8.3-62.3-5.1-111.6-7c-49.3-1.9-95.4-2.3-112.2-1.4c-16.8,0.9-51.5,5.1-66.6-3.2
		c-15.2-8.3-7.6-6-26-5.1S107.8,352.3,109.1,348.8z"/>
	<g>
		<g>
			<path class="st1" d="M280.7,163.7c3.8,0.2,7.2-0.9,10.7-2.4c2.3-1,4.6-2.2,7.1-2.7c1.8-0.4,3.4-0.6,5.2,0c1.7,0.6,6.4,3.7,2,5.9
				c-1.7,0.9-0.2,3.5,1.5,2.6c4.8-2.4,3.4-8.7-0.9-10.9c-8.4-4.3-17.2,5-25.6,4.6C278.8,160.6,278.8,163.6,280.7,163.7L280.7,163.7z
				"/>
		</g>
	</g>
	<g>
		<g>
			<path class="st0" d="M289.4,120.7c3.3-0.7,7-1.6,10.3-0.6c2.8,0.8,4.9,3.4,3.8,6.4c-0.4,1.2-1.3,2.2-1.9,3.2
				c-1.6,2.6-2.9,5.3-1.8,8.4c3.2,8.9,16.3,7.8,23.6,9.2c1.9,0.4,2.7-2.5,0.8-2.9c-6.4-1.3-14.7-0.3-19.8-4.9
				c-5.4-5,2.3-9.4,2.8-14.6c0.8-9.6-12.9-8.4-18.6-7.2C286.7,118.3,287.5,121.1,289.4,120.7L289.4,120.7z"/>
		</g>
	</g>
	<g>
		<g>
			<path class="st0" d="M419.5,142.6c8.1-0.1,16.2,1,23.9,3.6c6.3,2.1,20.2,7.2,17.7,16.3c-1.2,4.5-6.1,8.9-3.4,13.9
				c1.8,3.3,5.9,4.2,9.1,2.6c1.7-0.9,0.2-3.5-1.5-2.6c-4.6-1.3-6.1-3.2-4.6-5.9c0.3-0.9,0.7-1.8,1.2-2.6c0.5-1,1.1-2,1.6-3.1
				c0.8-2,1.2-4,0.8-6.1c-0.8-4.3-4.5-7.6-8-9.8c-10.5-6.9-24.4-9.2-36.7-9.1C417.6,139.7,417.6,142.7,419.5,142.6L419.5,142.6z"/>
		</g>
	</g>
	<g>
		<g>
			<path class="st0" d="M420.7,215.6c10.4-0.4,3.6,14.9,6.8,21c2.7,5.1,8.1,7.7,13.6,8.2c1.9,0.2,1.9-2.8,0-3
				c-5-0.5-10.4-3.4-11.7-8.7c-1-3.9,1.1-7.9,0.7-11.9c-0.5-5-4.3-8.8-9.3-8.6C418.8,212.7,418.8,215.7,420.7,215.6L420.7,215.6z"/>
		</g>
	</g>
	<g>
		<g>
			<path class="st0" d="M450.6,306.7c6.6-0.8,14.7,3.5,11.7,11.2c-1,2.6-3.8,4.8-1.6,7.7c2,2.6,6.8,3.4,9.6,4.4
				c5.5,2,11,3.9,16.5,5.9c1.8,0.6,2.6-2.3,0.8-2.9c-6.1-2.2-12.2-4.3-18.3-6.5c-1.1-0.4-2.8-0.6-3.7-1.3c-3.7-2.7-2-3.1-0.9-5.2
				c0.8-1.5,1.3-3.1,1.3-4.9c0.1-8.2-8.3-12.2-15.4-11.4C448.7,304,448.7,307,450.6,306.7L450.6,306.7z"/>
		</g>
	</g>
	<g>
		<g>
			<path class="st0" d="M170.6,88.1c3.4,3.3,7.6,5.4,11.5,8.1c2.7,1.9,5.9,4.4,6.8,7.8c1.2,4.6-3.7,8.9-8.2,6.9
				c-1.8-0.8-3.3,1.8-1.5,2.6c5.6,2.4,13-1.2,13-7.8c0-10.1-13.4-14-19.4-19.7C171.3,84.6,169.2,86.7,170.6,88.1L170.6,88.1z"/>
		</g>
	</g>
	<g>
		<g>
			<path class="st0" d="M175,149.3c4.3,1.2,8,6,5.2,10.4c-1.7,2.7-5.3,3.3-7,6c-1.1,1.7-1.1,3.1-0.6,5c1.4,4.4,4.2,8.7,6.2,12.8
				c0.8,1.7,3.4,0.2,2.6-1.5c-1.3-2.7-2.7-5.5-4-8.2c-1.6-3.4-2.6-6,0.9-8.5c2.4-1.8,4.7-3.2,5.5-6.3c1.6-5.7-2.6-11-8-12.5
				C174,145.9,173.2,148.8,175,149.3L175,149.3z"/>
		</g>
	</g>
	<g>
		<g>
			<path class="st0" d="M186.4,323.6c7.5,0,27.2-3.2,29,7.2c0.1,0.8,1.1,1.2,1.8,1c2.1-0.4,3.6-1.2,5.2-2.8c1.3-1.4-0.8-3.5-2.1-2.1
				c-1,1.2-2.3,1.9-3.8,2c0.6,0.3,1.2,0.7,1.8,1c-2.2-12.7-23.1-9.4-31.9-9.4C184.5,320.6,184.5,323.6,186.4,323.6L186.4,323.6z"/>
		</g>
	</g>
	<g>
		<g>
			<path class="st0" d="M267.3,334.1c7.3-1.6,14.7-2.7,22.1-3.4c6.7-0.6,15.1-1.9,21.7-0.5c7,1.5,11.2,17.7,20.7,11.2
				c1.6-1.1,0.1-3.7-1.5-2.6c-6.1,4.2-9.8-5.7-13.2-8.9c-3.2-3.1-7.3-3-11.5-3c-13.2,0-26.2,1.5-39.1,4.3
				C264.6,331.6,265.4,334.5,267.3,334.1L267.3,334.1z"/>
		</g>
	</g>
	<g>
		<g>
			<path class="st0" d="M308,239.1c12,10.1,24.6,19.6,37.7,28.3c1.6,1.1,3.1-1.5,1.5-2.6c-12.9-8.6-25.2-17.8-37.1-27.8
				C308.7,235.8,306.6,237.9,308,239.1L308,239.1z"/>
		</g>
	</g>
	<g>
		<g>
			<path class="st0" d="M406,98.5c13.8,0.9,27.8-3.7,37.5-13.7c1.3-1.4-0.8-3.5-2.1-2.1c-9.2,9.5-22.3,13.7-35.4,12.9
				C404,95.4,404,98.4,406,98.5L406,98.5z"/>
		</g>
	</g>
	<g>
		<g>
			<path class="st0" d="M527.4,110.2c-1.4,6.6,0.4,13.2,4.8,18.3c5.9,6.8,14.7,6.8,21.4,12c0.1-0.9,0.2-1.8,0.4-2.7
				c-3.6,1.2-6.7,3-9.5,5.5c-1.4,1.3,0.7,3.4,2.1,2.1c2.5-2.2,5.1-3.7,8.2-4.7c1.3-0.4,1.4-2,0.4-2.7c-5.1-3.9-11.9-4.4-17.1-8.1
				c-6-4.3-9.4-11.5-7.8-18.8C530.7,109.1,527.8,108.3,527.4,110.2L527.4,110.2z"/>
		</g>
	</g>
	<g>
		<g>
			<path class="st0" d="M541.5,272.1c3.7,11.8,11.7,21.2,22,27.7c1.6,1,3.1-1.6,1.5-2.6c-9.7-6.1-17.2-14.9-20.6-25.9
				C543.9,269.5,541,270.2,541.5,272.1L541.5,272.1z"/>
		</g>
	</g>
	<g>
		<g>
			<path class="st2" d="M335.5,165.1c7.5-2.4,14.2,3.1,21.3,4.6c6.8,1.4,15.7-0.9,21,4.7c1.3,1.4,3.4-0.7,2.1-2.1
				c-5.9-6.3-14.8-3.9-22.3-5.5c-7.8-1.6-14.7-7.1-22.9-4.6C332.9,162.8,333.7,165.7,335.5,165.1L335.5,165.1z"/>
		</g>
	</g>
	<g>
		<g>
			<path class="st2" d="M429.5,134.8c6.8,1.6,13.7,2.6,20.7,3.1c1.9,0.1,1.9-2.9,0-3c-6.7-0.5-13.4-1.5-19.9-3
				C428.4,131.5,427.6,134.4,429.5,134.8L429.5,134.8z"/>
		</g>
	</g>
	<g>
		<g>
			<path class="st2" d="M532,118.4c2.8,0.3,5.5,1.4,7.4,3.5c1.6,1.7,2.1,4.1,3.6,5.9c2,2.3,4.8,3.1,7.6,1.9c1.8-0.8,0.2-3.4-1.5-2.6
				c-3.2,1.4-4.6-2.5-5.6-4.5c-0.8-1.5-1.8-2.8-3.1-3.9c-2.4-2-5.3-3-8.4-3.4C530.1,115.2,530.1,118.2,532,118.4L532,118.4z"/>
		</g>
	</g>
	<g>
		<g>
			<path class="st2" d="M183.8,90.7c5.5,2.9,17.8,9.8,10.9,17.3c-1.3,1.4,0.8,3.5,2.1,2.1c8.6-9.3-4-18.2-11.5-22.1
				C183.6,87.2,182.1,89.8,183.8,90.7L183.8,90.7z"/>
		</g>
	</g>
	<g>
		<g>
			<path class="st2" d="M188.9,162.2c-3.7-0.9-7.7,1-9.2,4.6c-1.8,4.3,1,8.7,3.4,12.2c1.1,1.6,3.7,0.1,2.6-1.5
				c-1.5-2.2-3.5-4.8-3.6-7.6c-0.1-3.1,3-5.5,6-4.7C190,165.6,190.8,162.7,188.9,162.2L188.9,162.2z"/>
		</g>
	</g>
	<g>
		<g>
			<path class="st2" d="M193.9,326.3c6.1-1.9,12.9-1,17.9,3.1c1.5,1.2,3.6-0.9,2.1-2.1c-5.9-4.8-13.6-6.1-20.8-3.8
				C191.2,324,192,326.9,193.9,326.3L193.9,326.3z"/>
		</g>
	</g>
	<g>
		<g>
			<path class="st2" d="M285.6,329.3c9.8-5,22.5-4.2,31.3,2.7c1.5,1.2,3.6-0.9,2.1-2.1c-9.9-7.7-23.8-8.8-34.9-3.1
				C282.3,327.6,283.9,330.2,285.6,329.3L285.6,329.3z"/>
		</g>
	</g>
	<g>
		<g>
			<path class="st2" d="M459.6,306.3c5.6,3.6,9.4,9.7,8.4,16.5c-0.3,1.9,2.6,2.7,2.9,0.8c1.2-8.2-2.9-15.5-9.8-19.9
				C459.5,302.7,458,305.3,459.6,306.3L459.6,306.3z"/>
		</g>
	</g>
	<g>
		<g>
			<path class="st2" d="M425,217.9c3.9,5,5.1,9.9,6.3,15.9c0.6,2.7,2.6,4.9,5.5,3.7c1.8-0.7,1-3.6-0.8-2.9c-0.9,0.3-1.8-2.6-2-3.2
				c-0.2-0.7-0.2-1.5-0.4-2.2c-0.4-1.8-0.9-3.6-1.6-5.3c-1.2-3-2.9-5.6-4.9-8.2C425.9,214.3,423.8,216.4,425,217.9L425,217.9z"/>
		</g>
	</g>
	<g>
		<g>
			<path class="st2" d="M317.5,244.1c4.7,4.8,10.9,7.3,17.5,7.8c1.9,0.2,1.9-2.8,0-3c-5.9-0.5-11.3-2.7-15.4-6.9
				C318.2,240.6,316.1,242.7,317.5,244.1L317.5,244.1z"/>
		</g>
	</g>
	<g>
		<g>
			<path class="st2" d="M359.2,302.6c9.5-0.4,19.2-1.1,28.7-0.4c6.4,0.4,10.5,2.9,11,9.6c0.2,2.8,0,5.6,0.8,8.3
				c1.8,6.1,7.6,8.2,13.2,9.5c8.6,2,17.4,2.8,26.1,2.8c1.9,0,1.9-3,0-3c-9.4,0-19.3-0.7-28.3-3.5c-6.2-1.9-8.4-5.2-8.8-11.5
				c-0.2-2.7-0.1-5.5-1.1-8.1c-2.1-5.4-7.7-6.9-13-7.2c-9.5-0.6-19.2,0-28.7,0.4C357.3,299.7,357.3,302.7,359.2,302.6L359.2,302.6z"
				/>
		</g>
	</g>
</g>
</svg>
