<?xml version="1.0" encoding="utf-8"?>
<!-- Generator: Adobe Illustrator 22.0.1, SVG Export Plug-In . SVG Version: 6.00 Build 0)  -->
<svg version="1.1" id="Layer_1" xmlns="http://www.w3.org/2000/svg" xmlns:xlink="http://www.w3.org/1999/xlink" x="0px" y="0px"
	 width="183.8px" height="251.9px" viewBox="0 0 183.8 251.9" style="enable-background:new 0 0 183.8 251.9;" xml:space="preserve"
	>
<style type="text/css">
	.st0{fill:#367C1D;}
	.st1{fill:#FFFFFF;}
	.st2{fill:#39440C;}
	.st3{fill:#96A362;}
	.st4{fill:#A01227;}
	.st5{fill:none;stroke:#BFD8B4;stroke-miterlimit:10;}
	.st6{fill:#93542A;}
	.st7{fill:#F7C6A4;}
</style>
<g>
	<path class="st0" d="M99.2,231.8c0,0-47.5,2-74.6-38.8c-13.2-34.1-15-59.6-7.2-81.6s7.8-20.1,4.2-29.4S9.6,48.4,27,36.4
		S51.1,29,54.1,33c3,4,8.4,8.7,9.6,13.4c1.2,4.7,3,2,11.4,1.3c8.4-0.7,11.4-5.4,11.4-5.4s8.4-28.8,30.1-24.1s16.9,38.8,16.2,44.8
		s4.2,15.4,8.4,19.4s21.1,10,19.3,46.2C158.8,164.8,154.6,219,99.2,231.8z"/>
	<path class="st1" d="M32.4,41c0,0,17.5-15.4,25.9,10.7c0.2,0.6,0.4,1.1,0.5,1.7C65.9,78,46.7,81.8,39,79.9
		c-3.6-0.9-9.3-5-12.5-11.2C22.8,61.6,22.4,51.8,32.4,41z"/>
	<path class="st1" d="M121.5,31c0,0,12,14.7,0,32.1c-9,12-14.4,12.7-25.3,10.7c-7.8-6-13.2-17.4-2.4-34.1S117.9,27.7,121.5,31z"/>
	<ellipse cx="43.6" cy="58.8" rx="4.5" ry="5"/>
	<ellipse cx="106.7" cy="50.7" rx="4.5" ry="5"/>
	<path class="st2" d="M25.7,68.1c0,0,19.7-15,32.9-17.1c-3.8-8.7-9.9-19.8-22.9-14.9S17.9,61.1,25.7,68.1z"/>
	<path class="st2" d="M88.7,46.2c0,0,27.8-0.1,37.7,14.4c0,0,14.7-27.2-9.5-35.9C100.3,19.5,88.7,46.2,88.7,46.2z"/>
	<path class="st3" d="M77.9,103.6c0,0-65.6-12-54.8,38.1s51.8,69.6,65.6,70.9s37.3-17.4,43.3-29.4c6-12,25.3-45.5,21.1-66.2
		s-10.2-36.1-51.8-19.4C92.9,103.6,77.9,103.6,77.9,103.6z"/>
	<path class="st4" d="M79.7,113c0,0-30.1-4-34.9,2.7c-4.8,6.7-3,6.7,0,9.4c3,2.7,28.9,11.4,47.5,5.4s33.1-7.4,31.3-22.1
		s-30.7-2-33.1,0C88.1,110.3,83.3,113.6,79.7,113z"/>
	<path class="st5" d="M53.8,122.3c0,0,39.7,4,58.4-11.4"/>
	<ellipse cx="87.2" cy="91.9" rx="4.8" ry="5.4"/>
	<ellipse cx="69.1" cy="93.9" rx="4.8" ry="5.4"/>
	<path class="st6" d="M64.9,24.3c0,0,1.2,3.3,7.8,1.3S88.4,19,89,29s0,12,1.8,12.7c1.8,0.7,12,4.7,4.2,4c-7.8-0.7-18.4,0.9-22.1,3.8
		s-14,17.6-15.2,12.3s5.4-5.4,4.8-11.4c-0.3-2.7-1.7-5.5-2.9-8.2c-1.5-3.3-2.9-6.6-1.9-9.8C59.5,26.3,59.5,22.3,64.9,24.3z"/>
	<path class="st7" d="M89,37c-6-0.7-25.9,1.3-28.9,6l1.2,2.7c0,0,15-8,28.3-6"/>
</g>
</svg>
