<?xml version="1.0" encoding="utf-8"?>
<!-- Generator: Adobe Illustrator 22.0.1, SVG Export Plug-In . SVG Version: 6.00 Build 0)  -->
<svg version="1.1" id="Layer_1" xmlns="http://www.w3.org/2000/svg" xmlns:xlink="http://www.w3.org/1999/xlink" x="0px" y="0px"
	 width="1600px" height="900px" viewBox="0 0 1600 900" style="enable-background:new 0 0 1600 900;" xml:space="preserve">
<style type="text/css">
	.st0{fill:#C7EFED;stroke:#000000;stroke-miterlimit:10;}
	.st1{fill:#EFAC8F;stroke:#000000;stroke-miterlimit:10;}
	.st2{fill:#686461;}
	.st3{fill:#7C7671;}
</style>
<rect x="0.5" y="0.5" class="st0" width="1599" height="551"/>
<rect x="0.5" y="0.5" class="st1" width="1599" height="529"/>
<path class="st2" d="M831,516.6l92.1-155.1l177.6-57.2c0,0,71.3-44.6,71.3-57.2s15.4-21.9,29.6-35.2s14.3-54,14.3-54
	s61.4-32.9,61.4-39.2s20.8,27.4,20.8,27.4l36.2,19.6l29.6,44.6l34,72.8c0,0,76.8,65.8,84.4,68.9c7.7,3.1,31.8,9.4,31.8,9.4
	l96.5,60.3l63.6,75.2l88.8,19.6l-145.8,34.5L831,516.6z"/>
<path class="st3" d="M959,529.9L723.2,228.3c0,0-22.6-55.6-33.9-37.6c-11.3,18-27.5,37.6-27.5,37.6h-22.6l-19.1-50.9l-21.9,13.3
	h-33.9l-31.1-25.8c0,0-4.9-11-15.5,0c-10.6,11-38.8,36-38.8,36l-38.1,58.7l-80.5-40.7l-14.8-18l-57.2-82.2v21.1l-38.8,37.6
	c0,0-6.4,0-11.3-6.3C233.3,164.9,210,150,210,150s-33.9,3.9-32.5,16.4c1.4,12.5-33.9,45.4-33.9,45.4l-8.5-30.5l-51.5,9.4
	c0,0,7.1,1.6,0,14.9c-7.1,13.3-26.1,22.7-26.1,22.7l-29.7,12l-29.6,30.2l-5.6,10.2l-12,36c0,0-5.6,90.1,0,101
	c5.6,11,15.5,127.7,20.5,119c4.9-8.6,306.4,14.1,306.4,14.1L959,529.9z"/>
<path class="st2" d="M782,425l48-67l39-57c0,0,66-63,78-66s30-24,30-24l42,42l60,36l51,36c0,0,54,30,63,33s0,105,0,105
	s-103-12-146,0s-151.1,56.8-151.1,56.8S875,526,854,529S782,425,782,425z"/>
</svg>
