<?xml version="1.0" encoding="utf-8"?>
<!-- Generator: Adobe Illustrator 22.0.1, SVG Export Plug-In . SVG Version: 6.00 Build 0)  -->
<svg version="1.1" xmlns="http://www.w3.org/2000/svg" xmlns:xlink="http://www.w3.org/1999/xlink" x="0px" y="0px" width="176.9px"
	 height="257.9px" viewBox="0 0 176.9 257.9" style="enable-background:new 0 0 176.9 257.9;" xml:space="preserve">
<style type="text/css">
	.st0{fill:#936B30;}
	.st1{fill:#755832;}
	.st2{fill:#AF8034;}
	.st3{fill:#977037;}
	.st4{fill:#D99E37;}
	.st5{fill:#B78439;}
	.st6{fill:#C28F42;}
	.st7{fill:#9E7130;}
	.st8{fill:#996D2E;}
</style>
<g id="Layer_6">
	<path class="st0" d="M94.9,45.8c0,0,2.3,0.2,1.5,2.3c-0.8,2.2-1.1,2.7-2.9,2.2c-1.8-0.5-2.4-3-1.6-3.6c0.8-0.6,1.3-0.9,2.2-0.9"/>
	<path class="st1" d="M93.4,46.6c0,0,0.9-0.9,1.6,0.3s0.8,1.5-0.1,2s-2.2-0.2-2.1-0.8c0-0.6,0.1-0.9,0.4-1.2"/>
	<path class="st2" d="M62.2,249.7c0,0,3.5,5.4,7.4,0.9c4-4.5,30.1-235.3,30.1-235.3s-1.1-2.9-3.3-2.7c-2.2,0.2-4.8,0.9-4.9,2.2
		c-0.1,1.3-28,231.8-29.1,233.7S62.2,249.7,62.2,249.7z"/>
</g>
<g id="Layer_7">
	<path class="st0" d="M62.3,248.3c0,0,1.4,5.1,3.7,0.5S95.7,16.1,95.7,16.1L94.1,15c0,0-2.5-1-2.6,0.2c-0.1,1.2-28.3,230.1-29,232
		S62.3,248.3,62.3,248.3z"/>
</g>
<g id="Layer_1">
</g>
<g id="Layer_3">
	<path class="st3" d="M24.4,41.5c0,0,64.8,0.5,69.2,0s9.2,2,9.2,2s4.8,0.5,6.8,0s5,3,7.2,2.5s11.5-1.5,13-2.3c1.5-0.7,10-1,14.5-1.2
		c4.5-0.2,12.2,0,14.8,0s4.5-1.5,3.8,0s0.2,3.5,0.2,3.5h1.6c0,0,0.2,1.2,0,2.5s-2.2,3.5-2.8,4.5s3.8-2.2,5.5-2.5s0.5,8.5,0,9.5
		s-14.5,3.5-15.8,4c-1.2,0.5,12.8,1,13.8,1.3s-0.2,5.8-0.2,5.8l-6.8,4.8l1.5,1.2l-5,3.8h9.5l-1.8,5.2l-11,6.8c0,0-57.8-2.5-60.8-1.8
		s-2.2,2.5-9.2,1.8S59.4,92,54.9,91.5s-11,1.6-12.8,1.4s-2.5-3.7-2.5-3.7L36.9,89l-1-4.5c0,0-5.5-1.2-8.8-2.2S20.7,74,20.7,74
		l5.5-0.8l-5.5-3c0,0,0.8-3.2,1.2-4.2s17.2-0.8,17.2-0.8l-16.8-2.5l0.8-6l9.5-0.5l-10.2-4C22.4,52.2,20.7,41.4,24.4,41.5z"/>
</g>
<g id="Layer_4">
	<path class="st4" d="M27.4,39.4c0,0,61.4,0.5,65.6,0c4.3-0.5,8.8,2.1,8.8,2.1s4.5,0.5,6.4,0c1.9-0.5,4.7,3.1,6.9,2.6
		c2.1-0.5,10.9-1.6,12.3-2.4c1.4-0.8,9.5-1,13.7-1.3c4.3-0.3,11.6,0,14,0s4.3-1.6,3.6,0s0.2,3.7,0.2,3.7h1.5c0,0,0.2,1.2,0,2.6
		c-0.2,1.3-2.1,3.6-2.6,4.7c-0.5,1,3.6-2.3,5.2-2.6c1.7-0.3,0.5,8.8,0,9.9c-0.5,1-13.7,3.6-14.9,4.2c-1.2,0.5,12.1,1,13,1.3
		c0.9,0.3-0.2,6-0.2,6l-6.4,4.9l1.4,1.3l-4.7,3.9h9l-1.7,5.5l-10.4,7c0,0-54.7-2.6-57.6-1.8s-2.1,2.6-8.8,1.8
		c-6.6-0.8-21.1-0.8-25.4-1.3c-4.3-0.5-10.4,1.7-12.1,1.5c-1.7-0.2-2.4-3.8-2.4-3.8l-2.6-0.3l-0.9-4.7c0,0-5.2-1.3-8.3-2.3
		s-6.2-8.6-6.2-8.6l5.2-0.8l-5.2-3.1c0,0,0.7-3.4,1.2-4.4c0.5-1,16.4-0.8,16.4-0.8l-15.9-2.6l0.7-6.2l9-0.5l-9.7-4.2
		C25.5,50.6,23.8,39.3,27.4,39.4z"/>
</g>
<g id="Layer_2">
	<path class="st5" d="M23.4,42.5c0,0,64.8,0.5,69.2,0s9.2,2,9.2,2s4.8,0.5,6.8,0s5,3,7.2,2.5s11.5-1.5,13-2.3c1.5-0.7,10-1,14.5-1.2
		c4.5-0.2,12.2,0,14.8,0s4.5-1.5,3.8,0s0.2,3.5,0.2,3.5h1.6c0,0,0.2,1.2,0,2.5s-2.2,3.5-2.8,4.5s3.8-2.2,5.5-2.5s0.5,8.5,0,9.5
		s-14.5,3.5-15.8,4s12.8,1,13.8,1.2s-0.2,5.8-0.2,5.8l-6.8,4.8l1.5,1.2l-5,3.8h9.5l-1.8,5.2l-11,6.8c0,0-57.8-2.5-60.8-1.8
		s-2.2,2.5-9.2,1.8S58.4,93,53.9,92.5s-11,1.6-12.8,1.4s-2.5-3.7-2.5-3.7L35.9,90l-1-4.5c0,0-5.5-1.2-8.8-2.2S19.7,75,19.7,75
		l5.5-0.8l-5.5-3c0,0,0.8-3.2,1.2-4.2s17.2-0.8,17.2-0.8l-16.8-2.5l0.8-6l9.5-0.5l-10.2-4C21.4,53.2,19.7,42.4,23.4,42.5z"/>
</g>
<g id="Layer_5">
	<polygon class="st6" points="42.7,79 75.2,79 102.3,82.8 138.8,82.8 99.7,85.5 72.6,80.8 	"/>
	<polygon class="st6" points="47.9,50.3 88.4,56 98.9,53.2 136.9,54.2 97.3,50.3 90.8,52.2 	"/>
	<path class="st6" d="M42.7,65.1c0,0,102.6-10.3,103.6-9.9S89.6,70.1,42.7,65.1z"/>
	<polygon class="st6" points="44.2,85.5 69.9,88 46.9,89.3 	"/>
</g>
<g id="Layer_8">
	<path class="st7" d="M94.9,43.9c0,0-1.9-1.2-3.3,0c-1.4,1.2-0.8,4.5,0.7,4.6c1.5,0.1,3.2-0.2,3.5-1.5C96,45.7,96,44.4,94.9,43.9z"
		/>
	<path class="st8" d="M94.2,45c0,0-1-0.5-1.8,0c-0.8,0.5-0.5,1.8,0.4,1.9c0.8,0,1.7-0.1,1.9-0.6C94.8,45.7,94.8,45.2,94.2,45z"/>
</g>
</svg>
